<?xml version="1.0" encoding="utf-8"?>
<!-- Generator: Adobe Illustrator 23.0.4, SVG Export Plug-In . SVG Version: 6.00 Build 0)  -->
<svg version="1.1" id="Layer_1" xmlns="http://www.w3.org/2000/svg" xmlns:xlink="http://www.w3.org/1999/xlink" x="0px" y="0px"
	 viewBox="0 0 115.1 68.8" style="enable-background:new 0 0 115.1 68.8;" xml:space="preserve">
<style type="text/css">
	.st0{fill:#EB9015;}
	.st1{fill:#236293;}
</style>
<title>footer-logo</title>
<g>
	<g id="Layer_1-2">
		<path class="st0" d="M20.9,1.1c-0.1-0.2,0-0.4,0.2-0.5c0.1,0,0.1,0,0.2,0h2.7c0.2,0,0.4,0.1,0.4,0.3l2,7.9h0.1l3.6-8.2
			c0.1-0.2,0.2-0.3,0.4-0.2H31c0.2,0,0.3,0.1,0.4,0.2L35,8.8h0.1l2-7.9c0.1-0.2,0.2-0.3,0.4-0.3h2.7c0.2,0,0.4,0.1,0.5,0.3
			c0,0.1,0,0.2,0,0.2l-4.4,15.7c-0.1,0.2-0.2,0.3-0.4,0.3h-0.4c-0.2,0-0.3-0.1-0.4-0.2l-4.2-9.5h-0.1l-4.2,9.5
			c-0.1,0.2-0.2,0.2-0.4,0.2h-0.4c-0.2,0-0.4-0.1-0.4-0.3L20.9,1.1z"/>
		<path class="st0" d="M50.8,0.3c4.6,0,8.4,3.8,8.4,8.4s-3.8,8.4-8.4,8.4c0,0,0,0,0,0c-4.6,0-8.3-3.7-8.4-8.3c0,0,0-0.1,0-0.1
			C42.4,4.1,46.1,0.3,50.8,0.3C50.7,0.3,50.8,0.3,50.8,0.3z M50.8,13.4c2.6,0,4.7-2.1,4.7-4.6c0-2.6-2.1-4.7-4.6-4.7
			c-2.6,0-4.7,2.1-4.7,4.6c0,0,0,0,0,0C46.2,11.3,48.2,13.3,50.8,13.4z"/>
		<path class="st0" d="M62.5,1c0-0.2,0.2-0.4,0.4-0.5c0,0,0,0,0,0h7c2.8,0,5,2.2,5.1,5c-0.1,2.1-1.4,4-3.4,4.7l3.2,5.9
			c0.1,0.2,0.1,0.5-0.1,0.6c-0.1,0.1-0.2,0.1-0.3,0.1h-3.1c-0.2,0-0.3-0.1-0.4-0.2l-3.1-6.2h-1.6v6c0,0.2-0.2,0.4-0.4,0.4h-2.8
			c-0.2,0-0.4-0.2-0.4-0.4L62.5,1z M69.6,7.5c1-0.1,1.8-0.9,1.8-1.9c0-1-0.8-1.8-1.8-1.8h-3.4v3.6L69.6,7.5z"/>
		<path class="st0" d="M78.5,1c0-0.2,0.2-0.4,0.4-0.5c0,0,0,0,0.1,0h2.8c0.2,0,0.4,0.2,0.4,0.4v12.5h5.6c0.2,0,0.4,0.2,0.4,0.4v2.5
			c0,0.2-0.2,0.4-0.4,0.4l0,0H79c-0.2,0-0.4-0.2-0.4-0.4c0,0,0,0,0,0L78.5,1z"/>
		<path class="st0" d="M90.9,1c0-0.2,0.2-0.4,0.4-0.4c0,0,0,0,0,0H97c4.5,0,8.2,3.7,8.2,8.2s-3.7,8.2-8.2,8.2c0,0,0,0,0,0h-5.7
			c-0.2,0-0.4-0.2-0.4-0.4c0,0,0,0,0,0V1z M96.8,13.4c2.5,0,4.5-2,4.6-4.5c0-0.1,0-0.1,0-0.2c0.1-2.5-1.9-4.6-4.4-4.7
			c-0.1,0-0.1,0-0.2,0h-2.2v9.4L96.8,13.4z"/>
		<path class="st0" d="M14.7,26.8c0-0.2,0.2-0.4,0.4-0.4l0,0h9.7c0.2,0,0.4,0.2,0.4,0.4c0,0,0,0,0,0v2.5c0,0.2-0.2,0.4-0.4,0.4
			c0,0,0,0,0,0h-6.5v2.9h5.3c0.2,0,0.4,0.2,0.5,0.4v2.5c0,0.2-0.2,0.4-0.4,0.4c0,0,0,0,0,0h-5.3v3.2h6.5c0.2,0,0.4,0.2,0.4,0.4v2.5
			c0,0.2-0.2,0.4-0.4,0.5h-9.7c-0.2,0-0.4-0.2-0.4-0.5L14.7,26.8z"/>
		<path class="st0" d="M28.8,26.6c0-0.2,0.2-0.4,0.4-0.4h0.6l9.3,9l0,0v-8.3c0-0.2,0.2-0.4,0.4-0.4h2.8c0.2,0,0.4,0.2,0.4,0.4v15.7
			c0,0.2-0.2,0.4-0.4,0.4H42c-0.1,0-0.2-0.1-0.3-0.1l-9.2-9.2l0,0v8.7c0,0.2-0.2,0.4-0.4,0.4c0,0,0,0,0,0h-2.8
			c-0.2,0-0.4-0.2-0.5-0.5L28.8,26.6z"/>
		<path class="st0" d="M47.3,26.8c0-0.2,0.2-0.4,0.5-0.4h9.7c0.2,0,0.4,0.2,0.4,0.4v2.5c0,0.2-0.2,0.4-0.4,0.4h-6.5v2.9h5.3
			c0.2,0,0.4,0.2,0.4,0.4v2.5c0,0.2-0.2,0.4-0.4,0.4h-5.3v3.2h6.5c0.2,0,0.4,0.2,0.4,0.4v2.5c0,0.2-0.2,0.4-0.4,0.4c0,0,0,0,0,0
			h-9.6c-0.2,0-0.5-0.2-0.5-0.5l0,0V26.8z"/>
		<path class="st0" d="M61.4,26.8c0-0.2,0.2-0.4,0.5-0.4h7c2.8,0,5,2.2,5.1,5c-0.1,2.1-1.4,4-3.4,4.7l3.2,5.9
			c0.1,0.2,0.1,0.5-0.1,0.6c-0.1,0.1-0.2,0.1-0.3,0.1h-3.1c-0.2,0-0.3-0.1-0.4-0.2l-3.1-6.2H65v5.9c0,0.2-0.2,0.4-0.4,0.5h-2.7
			c-0.2,0-0.5-0.2-0.5-0.5l0,0V26.8z M68.5,33.4c1-0.1,1.8-0.9,1.8-1.9c0-1-0.8-1.8-1.8-1.8H65v3.6H68.5z"/>
		<path class="st0" d="M84.7,26.2c2.1,0,4.1,0.8,5.7,2.2c0.2,0.1,0.2,0.4,0.1,0.6c0,0,0,0-0.1,0.1l-1.8,2c-0.2,0.1-0.4,0.1-0.6,0
			c-0.8-0.7-1.9-1.2-3-1.1c-2.6,0.1-4.6,2.3-4.5,4.9c0.1,2.4,2,4.3,4.5,4.5c0.7,0,1.4-0.1,2.1-0.4v-1.3h-1.5c-0.2,0-0.4-0.2-0.4-0.4
			c0,0,0,0,0,0v-2.3c0-0.2,0.2-0.4,0.4-0.5c0,0,0,0,0,0h4.7c0.2,0,0.4,0.2,0.4,0.5V41c0,0.1-0.1,0.3-0.2,0.4c-1.8,1-3.8,1.5-5.8,1.5
			c-4.6,0-8.4-3.7-8.4-8.4S80,26.2,84.7,26.2C84.6,26.2,84.6,26.2,84.7,26.2L84.7,26.2z"/>
		<path class="st0" d="M97.3,34.9l-5.2-7.8c-0.1-0.2-0.1-0.5,0.1-0.6c0.1-0.1,0.2-0.1,0.3-0.1h3c0.2,0,0.3,0.1,0.4,0.2l3.2,4.8
			l3.2-4.8c0.1-0.1,0.2-0.2,0.4-0.2h3c0.2,0,0.4,0.2,0.4,0.4c0,0.1,0,0.2-0.1,0.3l-5.2,7.8v7.4c0,0.2-0.2,0.4-0.4,0.5h-2.7
			c-0.2,0-0.4-0.2-0.4-0.4c0,0,0,0,0,0V34.9z"/>
		<path class="st0" d="M8.4,52c2.1-0.1,4.1,0.7,5.6,2.2c0.2,0.2,0.2,0.4,0,0.6c0,0,0,0,0,0l-1.8,1.9c-0.2,0.2-0.4,0.2-0.6,0
			c0,0,0,0,0,0c-0.9-0.8-2-1.2-3.1-1.2c-2.6,0-4.8,2.1-4.8,4.8c0,2.6,2.1,4.8,4.8,4.8c1.1,0,2.3-0.4,3.2-1.1c0.2-0.1,0.4-0.1,0.6,0
			l1.8,1.9c0.2,0.2,0.2,0.5,0,0.6c-1.5,1.5-3.5,2.3-5.7,2.3c-4.6,0-8.4-3.8-8.4-8.4S3.8,52,8.4,52z"/>
		<path class="st0" d="M24.4,52c4.6,0,8.4,3.7,8.4,8.4c0,4.6-3.7,8.4-8.4,8.4c-4.6,0-8.4-3.7-8.4-8.4c0,0,0,0,0,0
			C16,55.8,19.8,52,24.4,52C24.4,52,24.4,52,24.4,52z M24.4,65.1c2.6,0,4.7-2.1,4.7-4.6c0-2.6-2.1-4.7-4.6-4.7
			c-2.6,0-4.7,2.1-4.7,4.6c0,0,0,0,0,0.1C19.8,63,21.9,65.1,24.4,65.1L24.4,65.1z"/>
		<path class="st0" d="M35.9,52.7c0-0.2,0.2-0.4,0.4-0.4h2.9c0.2,0,0.4,0.2,0.4,0.4v9.4c-0.1,1.6,1.1,3,2.7,3.1s3-1.1,3.1-2.7
			c0-0.1,0-0.2,0-0.3v-9.4c0-0.2,0.2-0.4,0.4-0.4h2.9c0.2,0,0.4,0.2,0.4,0.4v9.6c-0.1,3.7-3.2,6.5-6.9,6.4c-3.5-0.1-6.3-2.9-6.4-6.4
			L35.9,52.7z"/>
		<path class="st0" d="M53.3,52.4c0-0.2,0.2-0.4,0.4-0.4h0.6l9.3,9l0,0v-8.3c0-0.2,0.2-0.4,0.4-0.4l0,0h2.8c0.2,0,0.4,0.2,0.4,0.4
			v15.7c0,0.2-0.2,0.4-0.4,0.4h-0.4c-0.1,0-0.2-0.1-0.3-0.1L57,59.4l0,0v8.7c0,0.2-0.2,0.4-0.4,0.4c0,0,0,0,0,0h-2.8
			c-0.2,0-0.4-0.2-0.4-0.4L53.3,52.4z"/>
		<path class="st0" d="M79.1,52c2.1-0.1,4.1,0.7,5.6,2.2c0.2,0.2,0.2,0.4,0,0.6c0,0,0,0,0,0l-1.8,1.9c-0.2,0.2-0.4,0.2-0.6,0
			c0,0,0,0,0,0c-0.9-0.8-2-1.2-3.2-1.2c-2.6,0-4.8,2.1-4.8,4.8c0,2.6,2.1,4.8,4.8,4.8c1.2,0,2.3-0.4,3.2-1.1c0.2-0.1,0.4-0.1,0.6,0
			l1.8,1.9c0.2,0.2,0.2,0.5,0,0.6c-1.5,1.5-3.6,2.3-5.7,2.3c-4.6,0.2-8.5-3.5-8.7-8.1s3.5-8.5,8.1-8.7C78.7,52,78.9,52,79.1,52
			L79.1,52z"/>
		<path class="st0" d="M88,52.7c0-0.2,0.2-0.4,0.4-0.4h2.8c0.2,0,0.4,0.2,0.4,0.4v15.4c0,0.2-0.2,0.4-0.4,0.4h-2.8
			c-0.2,0-0.4-0.2-0.4-0.4L88,52.7z"/>
		<path class="st0" d="M96.1,52.7c0-0.2,0.2-0.4,0.4-0.4l0,0h2.8c0.2,0,0.4,0.2,0.4,0.4v12.5h5.6c0.2,0,0.4,0.2,0.4,0.4c0,0,0,0,0,0
			v2.5c0,0.2-0.2,0.4-0.4,0.4c0,0,0,0,0,0h-8.8c-0.2,0-0.4-0.2-0.4-0.4V52.7z"/>
		<rect x="111.7" class="st1" width="3.5" height="68.8"/>
	</g>
</g>
</svg>
