<?xml version="1.0" encoding="utf-8"?>
<!-- Generator: Adobe Illustrator 25.4.1, SVG Export Plug-In . SVG Version: 6.00 Build 0)  -->
<svg version="1.1" id="Layer_1" xmlns="http://www.w3.org/2000/svg" xmlns:xlink="http://www.w3.org/1999/xlink" x="0px" y="0px"
	 viewBox="0 0 50 50" style="enable-background:new 0 0 50 50;" xml:space="preserve">
<style type="text/css">
	.st0{clip-path:url(#SVGID_00000116917738081112021100000014057173998205334191_);fill:#F5F5F5;}
	.st1{clip-path:url(#SVGID_00000116917738081112021100000014057173998205334191_);fill:#ED8200;}
	.st2{clip-path:url(#SVGID_00000116917738081112021100000014057173998205334191_);fill:#E57225;}
</style>
<g>
	<defs>
		<path id="SVGID_1_" d="M0,22.9v4.3C1,39.3,10.7,49,22.8,50h4.2C39.9,48.9,50,38.2,50,25C50,11.2,38.8,0,25,0
			C11.8,0,1.1,10.1,0,22.9"/>
	</defs>
	<clipPath id="SVGID_00000140721181811161738350000000717177823796993198_">
		<use xlink:href="#SVGID_1_"  style="overflow:visible;"/>
	</clipPath>
	<path style="clip-path:url(#SVGID_00000140721181811161738350000000717177823796993198_);fill:#F5F5F5;" d="M50,25
		C50,11.2,38.8,0,25,0c-13.8,0-25,11.2-25,25s11.2,25,25,25C38.8,50.1,50,38.9,50,25"/>
	<path style="clip-path:url(#SVGID_00000140721181811161738350000000717177823796993198_);fill:#ED8200;" d="M42.7,6.9
		c-0.2,0-0.3,0-0.6-0.1c-0.3-0.1,0-0.2,0.6-0.2l0.5,0.3C43.1,6.9,42.9,6.9,42.7,6.9 M38.8,7.2c-0.2,0.2-0.3-0.1-0.3-0.1l-0.5-0.4
		c-0.5-0.4,0.1-0.2,0.1-0.4c0-0.2,0.3-0.1,0.6-0.2c0,0,0.1,0.2,0.2,0.3C39,6.6,39,6.6,39.1,6.8C39.1,7.1,38.9,7,38.8,7.2 M36.8,8.9
		c-0.5,0-0.2-0.1-0.2-0.1S36,8.6,35.9,8.5c-0.2-0.1-0.2-0.2-0.4-0.5c-0.2-0.3-0.1-0.2,0-0.4c0,0,0.2-0.1,0.2-0.2
		c-0.1-0.1-0.4-0.3-0.4-0.3S35.2,7,35,6.9c-0.2-0.1-0.1-0.1-0.6-0.5C34,6,34.7,6,34.7,6s0.4,0,0.7-0.1c0.3-0.1,0.2-0.1,0.8,0
		c0.5,0.1,0.1,0.4-0.1,0.4c-0.2,0-0.3,0.1-0.5,0.1c-0.3,0-0.2,0.2,0.2,0.3c0.4,0.2,0.1,0.1,0.6,0.3c0.4,0.2,0.1,0.1,0.2,0.3
		c0.1,0.2,0.1,0.3,0.1,0.2c0-0.2,0.1-0.2,0.3-0.2c0.2,0,0.4,0.3,0.2,0.3c-0.2,0-0.4,0.1-0.4,0.1s0.2,0.2,0.5,0.5
		c0.3,0.3,0,0.3,0.2,0.6C37.7,9.1,37.2,8.9,36.8,8.9 M31.5,7c-0.5,0-0.2,0-0.6-0.1c-0.4-0.1-0.9-0.1-1.3-0.1c-0.4-0.1-0.2,0-0.7,0
		c-0.6,0-1.1,0.1-1.4,0.1c-0.3,0-0.2,0.2-0.6,0.2c-0.4,0-0.7,0.3-0.8,0.3c-0.1,0-0.5,0.2-0.6,0.2c-0.1,0-0.3,0-0.4,0
		c-0.2,0-0.3,0.1-0.3,0.1s-0.2,0-0.5-0.1c-0.3-0.1,0-0.1,0.1-0.2c0.1-0.1,0.1,0,0.2,0c0,0,0.1,0,0.1,0c0,0,0.1-0.1,0.3-0.2
		c0.3-0.1,0.2,0.1,0.3,0.1c0.1,0.1,0.2,0.1,0.2,0.1c0.1,0,0.1-0.1,0.3-0.3C26,7,26.1,7.1,26.4,7c0.2,0,0.1-0.1,0-0.1
		c-0.1-0.1-0.1-0.1-0.1-0.2c0-0.1,0.1-0.1,0.3-0.2c0.2-0.1,0.1-0.3,0.3-0.4c0.2-0.2,0.4-0.2,0.4-0.2l0.2-0.1
		c0.2-0.1-0.2-0.1-0.6-0.1c-0.3,0,0-0.3,0.3-0.2c0.3,0.1,0.1,0.3,0.4,0.2c0.2-0.1,0.1,0.2,0.2,0.2c0.1,0-0.1,0.1-0.3,0.3
		c-0.2,0.2,0.1,0,0.3,0c0.1,0,0.1,0,0.2-0.1c0.1-0.1,0.1-0.1,0.3-0.2c0.2-0.1,0.1-0.1,0.2-0.2c0.2-0.1,0.1,0,0.7,0s0.1,0.1,0.3,0.1
		c0.2,0.1-0.1,0.1-0.5,0.1c-0.3,0,0.2,0.1,0.4,0.1c0.2,0,0,0.2,0,0.2l0.3,0c0,0,0.2-0.1,0.2-0.2c0.1,0,0.4,0,0.4,0l0-0.1l-0.1-0.1
		l-0.2,0l-0.3,0c0,0,0,0,0-0.1c0,0,0.1,0,0.4-0.1c0.2,0,0.3,0,0.7,0c0.3,0,0.2-0.1,0.2-0.1s0,0,0.2,0c0.1,0,0.1,0.1,0.1,0.1l0,0.1
		c0,0-0.1,0.1-0.3,0.1c-0.2,0.1-0.1,0-0.4,0c-0.3,0,0.1,0.2,0.2,0.3c0.1,0.1,0.7,0.2,1,0.3c0.4,0.1,0.5,0.2,0.6,0.4
		C32.3,7,32.1,6.9,31.5,7 M29.1,2.7c0.3,0,0.4-0.1,0.4,0c0,0.1,0,0.1-0.1,0.2c-0.1,0.1-0.1,0.2-0.2,0.1c-0.1-0.1,0.1-0.2-0.1-0.2
		C28.9,2.9,29.1,2.7,29.1,2.7 M30.1,2.6c0,0,0.2,0,0.3,0.1c0.1,0.1,0.1,0.1,0.1,0.2c0,0.1-0.2,0-0.4-0.1C29.8,2.6,30,2.7,30.1,2.6
		 M29,25.7c0,0.3,0.2,0.6,0.2,0.6s-0.1,0.1-0.3,0.2c-0.2,0.1-0.4,0-0.7,0.1c-0.3,0.1-0.3-0.3-0.2-0.6c0.1-0.3,0-0.3,0.2-0.5
		c0,0,0.3-0.1,0.6-0.1C29,25.4,29,25.5,29,25.7 M29.2,31.4c0.1-0.4,0-0.4,0-0.8c0,0,0.2,0,0.3,0.3c0.1,0.3,0.2,0.4,0.2,0.6
		s-0.1,0.5-0.1,0.9c0,0.4-0.2,0.3-0.3-0.1C29.2,31.9,29.1,31.8,29.2,31.4 M27.7,30.2c-0.2,0-0.3,0.1-0.5-0.3s-0.4-0.4-0.9-0.9
		c-0.5-0.6-0.2-0.1-0.7-0.3c-0.5-0.2-0.2-0.4,0.3-0.7c0,0,0.3,0.1,0.5,0.3c0.2,0.2,0.4,0.5,0.8,0.9C27.8,29.6,27.9,30.1,27.7,30.2
		 M25.4,29.3c-0.4-0.2-0.6-0.3-1.1-0.5c-0.6-0.3-0.5-0.6-0.2-0.7c0.2-0.1,1.5,0.8,1.8,1C26.2,29.2,25.8,29.4,25.4,29.3 M23.8,30.7
		c0,0-0.2,0.1-0.2,0c0-0.1-0.1-0.2,0-0.3c0.1-0.2,0.1-0.1,0.3-0.3l0.2,0.2L23.8,30.7z M27.3,24.2c0,0,0.3,0.5,0.2,0.6
		c-0.2,0.2-0.5,0.1-0.5,0C26.9,24.8,27.1,24.5,27.3,24.2 M30.7,24c0.1,0.4-0.3,0.1-0.7-0.4C29.7,23.2,30.6,23.7,30.7,24 M17.6,19.1
		c-0.1,0-0.1,0-0.4-0.2c-0.2-0.2-0.1-0.1,0-0.4c0,0,0.5,0.1,0.6,0.4C17.9,19.1,17.7,19.1,17.6,19.1 M34.9,2.4
		c-1.2-0.1-2-0.2-2.1-0.2c-0.1,0-0.2,0-0.3,0c-0.1,0.2-0.3,0.2-0.4,0.1c-0.1-0.2-0.3,0-0.3,0.2s-0.5,0-0.8,0c-0.3,0-0.4,0-0.9,0
		c-0.5,0-0.3-0.2-0.4-0.4C29.5,1.9,30.5,2,30.5,2H31c0,0,0,0.1-0.3,0.1c-0.2,0-0.3,0-0.4-0.1c-0.2,0-0.4,0.1-0.6,0.1
		c-0.5,0-0.4,0-0.6,0c-1.2,0.1-2.3,0.2-3.4,0.4c0,0,0,0-0.1,0c-0.3,0.1-0.4,0.1-0.7,0.2c-0.3,0-0.6,0.2-0.7,0.2
		C23.9,2.9,24,3,23.8,3c-0.2,0-0.1,0-0.4,0c-0.2,0-0.2,0.1-0.3,0.2C23,3.4,23,3.3,22.8,3.4c-0.2,0.1-0.1,0-0.2,0.2
		c-0.1,0.2,0.2,0,0.3,0c0.2,0,0.2,0,0.3-0.1c0.1-0.1,0.1-0.1,0.3-0.1c0.2-0.1,0.4-0.1,0.4,0.1c0,0.1-0.1,0.3-0.3,0.5
		c-0.2,0.2,0.2,0,0.5-0.1c0.2-0.1,0.4-0.1,0.4-0.1l0.2-0.2c0,0,0.1,0,0.3-0.3c0.2-0.3,0.3-0.1,0.3-0.1l0.4-0.1L25.7,3
		c0,0,0-0.1,0.1-0.1c0.1,0,0.3-0.2,0.3-0.2l0.2,0.1c0,0,0.1,0.1,0.3,0.1c0.2,0,0.2,0,0.3,0c0.2,0,0.2,0,0.4,0c0.3,0,0.5,0,0.7,0
		c0.2,0,0,0-0.1,0c-0.1,0-0.7-0.1-0.7-0.1h-0.4c-0.2,0-0.1,0.1-0.3,0C26.2,2.8,26.1,3,26,3c-0.1,0,0,0.1,0.1,0.1c0.1,0,0.2,0,0.4,0
		c0.2,0,0.2,0,0.3,0.1c0,0,0.1,0.2,0.1,0.2s-0.1,0-0.3,0c-0.2,0-0.5,0.1-0.7,0.1c-0.2,0.1-0.3,0.3-0.3,0.3S25.1,4,24.7,4
		c-0.4,0-0.1,0-0.4,0c-0.3,0-0.6,0.2-0.7,0.2c-0.1,0,0-0.1,0-0.2s-0.2,0.1-0.5,0.1c-0.4,0-0.3,0-0.4,0c-0.2-0.1,0.1,0,0.3-0.1
		c0.2-0.1,0.3,0,0.5-0.1c0.1-0.1,0,0-0.1-0.2c-0.1-0.1-0.2,0-0.3,0c-0.1,0-0.3,0.1-0.5,0.2c-0.2,0-0.1,0-0.3,0C22,4,22,4,21.7,4
		c-0.2,0-0.1,0.1,0.1,0.1C22,4.1,22,4.1,22.3,4s0,0.1-0.2,0.3c-0.1,0.1-0.3,0.2-0.3,0.2s-0.4,0-0.5,0c-0.1,0-0.2,0.1-0.3,0.1
		s-0.3,0-0.3,0l-0.1,0.2c0,0-0.3,0.1-0.4,0.1c-0.2,0,0-0.2,0-0.2S20.1,4.8,20,4.7c-0.1,0,0.2-0.2,0.2-0.2s0.1-0.1,0.2-0.3
		c0.1-0.2,0.4-0.2,0.4-0.2S20.9,4,21,3.9c-1.1,0.4-2.1,1-3.1,1.5c0.1,0,0.1-0.1,0.3-0.2c0.3-0.1,0.2,0,0.4,0c0.3,0-0.1,0-0.3,0.1
		c-0.1,0.1,0.1,0.2,0.1,0.2s0.2-0.1,0.4-0.2c0.2-0.1,0.5,0,0.9-0.1c0.4-0.1,0,0.1-0.1,0.1c-0.1,0.1-0.4,0.3-0.6,0.3s-0.2,0-0.3,0.1
		c0,0.1-0.3,0.2-0.7,0.2c-0.4,0-0.3,0.2-0.4,0.4c-0.1,0.1,0.2,0.1,0.3,0.2c0,0.1-0.1,0.3-0.4,0.4c-0.3,0.2-0.4,0.5-0.4,0.5h-0.7
		c-0.6,0-0.2,0-0.5,0c-0.3,0-0.5,0.2-0.5,0.4c0,0.2-0.2,0.3-0.4,0.3c-0.2,0.1-0.2,0.2-0.1,0.4c0.1,0.2-0.3,0.3-0.7,0.7
		c-0.4,0.3-0.1,0.5,0.2,0.4c0.3-0.1,0,0.1,0.1,0.2c0.1,0.1,0.2,0.1,0.5-0.1c0.3-0.2,0.5-0.3,0.8-0.3c0.3,0,0.2-0.2,0.5-0.4
		c0.3-0.2,0.3-0.3,0.3-0.5c0-0.2,0-0.1,0.4-0.2c0.4-0.1,0.2-0.2,0.3-0.3c0.1-0.1,0.5-0.2,0.7-0.3C18,7.6,18,7.5,18.2,7.3
		c0.2-0.2,0.3-0.1,0.5-0.2C19,7.1,19.1,7.1,19.3,7c0.3-0.1,0.3-0.1,0.5-0.2C20,6.7,20,6.7,20.2,6.6c0.2-0.1,0.5,0.1,0.5,0.1
		s0.2,0.2,0.4,0.4c0.2,0.2,0,0.2,0.3,0.3c0.3,0.1,0,0,0,0.2c0,0.2,0.1,0.1,0.4,0.1S21.6,8,21.6,8l-0.1,0.3c0,0,0.2-0.1,0.4-0.2
		C22,8,22.3,7.8,22.3,7.8s0-0.1,0-0.2c0-0.1,0-0.2,0.2-0.1c0,0,0.2,0.2,0.3,0.1c0-0.2-0.3-0.4-0.3-0.4S22.4,7,22.1,6.9
		c-0.2-0.1-0.1-0.1-0.2-0.2c0,0,0.1-0.1,0.1-0.1s0.1-0.1,0.1-0.2c0.1-0.1-0.1,0-0.2,0c-0.1,0-0.1,0-0.2,0c-0.2-0.3,0.3-0.2,0.6-0.1
		l0.2,0.2c0,0,0.4,0.2,0.6,0.4c0.3,0.2,0,0.3,0,0.4c0,0.1,0,0.2-0.1,0.3c0.1,0,0.1,0,0.2,0c0.4,0.1,0,0,0.1,0.2
		c0.1,0.2,0.1,0.1,0.4,0.1c0.3,0,0.2,0.1,0,0.1c-0.2,0-0.3,0-0.3,0c-0.1,0-0.2,0.2-0.2,0.2l0,0.1l0.3,0.1l0.3,0c0,0,0.1,0,0.2-0.2
		c0.1-0.2,0-0.1,0.2-0.1c0.2,0,0,0,0.1-0.1c0.1-0.1,0-0.1,0.2-0.3c0.2-0.1,0,0,0.5,0c0.5,0,0.4,0,0.4,0.1c0.1,0.1,0.1,0.1,0,0.2
		c-0.1,0.1,0.1,0.2,0.4,0.2c0.3,0,0.2,0.2,0.3,0.2c0.2,0,0.2,0,0.5,0c0.3,0,0,0,0.3-0.1c0.2-0.1,0.1,0,0.2,0c0,0,0.8,0.1,0.9,0
		c0.2-0.1,0.2-0.1,0.3,0.1c0.1,0.1,0.4,0.1,0.8,0.1c0.4-0.1,0.2-0.2,0.5-0.1c0.2,0.1,0.4,0,0.6,0c0.2-0.1-0.1,0.2,0,0.3
		c0.1,0.1,0.1,0.2,0.1,0.2S30,9.2,29.9,9.5c-0.2,0.3-0.4,0.9-0.4,0.9s-0.5,0.1-0.8,0c-0.3-0.1-0.4,0-0.6,0c-0.2,0-0.8,0.2-1.1,0
		c-0.3-0.2-0.5,0-1.1,0.1c-0.6,0.1-1.8,0-1.8,0s-0.3-0.2-0.7-0.2c-0.3-0.1-0.2-0.1-0.5-0.2c-0.3-0.1-1,0.1-0.8,0.5
		c0.1,0.4-0.2,0.4-0.3,0.5c-0.1,0-0.4,0.1-0.8,0.1c-0.4,0-0.2,0-0.5-0.2c-0.3-0.2-0.1-0.2-0.1-0.4c0-0.2,0-0.2-0.3-0.3
		c-0.3,0-0.5,0.1-0.5,0.1h-0.4c-0.2,0,0,0-0.1,0c0,0-0.2,0-0.2-0.1c0,0,0,0-0.1-0.1c-0.1-0.1,0-0.1,0.1-0.2c0.1-0.1,0.2-0.1,0.2-0.2
		c0-0.1,0.1-0.1,0.2-0.2c0.1-0.1,0-0.1,0-0.2c0-0.2,0.4-0.3,0.4-0.4c0-0.1-0.4,0-0.8,0.1c-0.4,0.1-0.4,0.2-1.3,0.2
		c-0.8,0-0.6,0.2-1.5,0.4c-0.9,0.1-1.1,0.6-1.4,0.7c-0.3,0.1-0.4-0.1-0.7,0c-0.3,0.1-0.7,0.7-1.2,0.9c-0.4,0.2-0.6,0.4-0.8,1
		c-0.2,0.6-0.8,0.8-1.4,1.1c-0.6,0.3-0.8,1.1-1.1,1.4c-0.3,0.4-0.8,1.1-1,1.5c-0.2,0.3-0.1,0.5-0.1,0.6c0,0.1-0.4,1.4-0.4,1.4
		c0,0.1-0.2,0.2-0.3,0.5c-0.2,0.3-0.1,0.7-0.1,0.7s-0.1,0.1-0.2,0.1c-0.1,0.1,0.1,0.2,0.1,0.2L7.2,20c0,0-0.1,0.1-0.2,0.4
		c-0.1,0.2,0.1,0.2,0.3,0.2c0.2,0,0.5,0.1,0.5,0.1s0.1,0.2,0.1,0.4C7.9,21,8,21.8,8,21.8s0,0.4,0.2,0.6c0.1,0.2,0.1,0.4,0.1,0.4
		c0.1,0,0.2,0,0.4,0.2c0.2,0.2,0.4,0.3,0.5,0.3c0.1,0,0.3-0.2,0.7-0.4c0.4-0.2,0.6,0,0.6,0l0.4,0.2l0.5,0c0,0,0.2-0.2,0.2-0.3
		c0.1-0.2-0.1-0.1-0.1-0.1s-0.4-0.1-0.4-0.1c0-0.1,0.3-0.1,0.3-0.1l0.1-0.3l0-0.3c0,0,0-0.1-0.1-0.4c-0.1-0.2-0.3,0-0.4,0
		c-0.1,0,0.1-0.1,0.2-0.2c0.1-0.1,0.2,0.1,0.2,0.1s0.1,0.2,0.4,0.1c0.3-0.1,0,0.2,0,0.4c0,0.2-0.1,0.4-0.1,0.7c-0.1,0.2,0,0.3,0,0.3
		s0.1-0.1,0.3-0.2c0.1-0.1,0.1-0.1,0.3-0.2c0.2-0.1,0,0,0.5-0.1c0.5,0,0.2,0.1,0.2,0.1s0.1,0.2,0.3,0.3c0.2,0,0.1,0.4,0.2,0.6
		c0.1,0.2,0.5,0,0.7-0.2c0.2-0.2,0.7,0,0.7,0s0.2,0.4,0.2,0.7c0,0.4,0,0.5,0.1,0.9c0.1,0.4-0.1,0.8-0.2,0.5c-0.2-0.3-0.1,0-0.1,0.1
		c0,0.2-0.2,0.9,0,1.2c0.2,0.4,0.1,0.1,0.5,0.7c0.5,0.6,0.3,0.5,0.5,0.9c0.2,0.4,0.4,1.7,0.7,2.3c0.3,0.6,0.1,0.7-0.4,1.9
		c-0.4,1.2,0,2.2,0.3,2.6c0.3,0.4,0.7,1.2,1.1,2.6c0.3,1.4,1.4,2.2,1.4,2.5c0.1,0.3,0.8,1.2,0.7,1.5c-0.1,0.3,0.1,0.5,0.6,0.9
		c0.5,0.4,1.2-0.1,1.2-0.1h1.6c0,0,0.7-0.4,1.3-0.6c0.7-0.2,1.2-0.2,1.7-0.2c0.6-0.1,0.5-0.5,1.5-0.7c0,0,0.4-0.1,0.9-0.4
		c0.5-0.3,0.1-0.3,0.1-0.8c0-0.5,0-0.5,0.4-0.6c0.4-0.1,0.6-0.1,0.7-0.5c0.1-0.4,0.4-0.3,0.4-0.7c0.1-0.5-0.3-0.5-0.4-1
		c-0.1-0.6,0.3-0.5,0.3-0.8c0.1-0.3,0.6-0.2,0.8-0.7c0.3-0.5,0.3-0.2,0.8-0.6c0.5-0.3,0.6-0.6,1-0.9c0.3-0.3,0-0.4,0-1.2
		c0-0.8-0.2-1.3-0.2-1.4c0-0.1-0.2-0.4-0.2-0.4s-0.2-0.4-0.3-0.7c-0.1-0.3,0-0.5,0-0.5s0.1-0.4-0.2-0.7c-0.2-0.3-0.1-0.2,0.1-0.5
		c0.2-0.3,0.2-0.6,0.3-0.8c0.1-0.1,0.4-0.4,0.7-0.7c0.3-0.3,0.5-0.4,0.9-0.8c0.4-0.4,0.4-0.3,0.6-0.5c0.2-0.2,0-0.4,0.4-0.9
		c0.4-0.5,0.9-0.7,1.2-1c0.3-0.3,0.3-0.3,0.4-0.5c0.1-0.2,0.2-0.3,0.2-0.3s0.4-0.5,0.7-0.6c0.2-0.1,0.1-0.1,0-0.5
		c-0.1-0.4,0.3-0.6,0.3-0.6s0.2-0.4,0.2-0.7c0.1-0.4,0.4-0.4,0.3-0.5c-0.1-0.1-0.1-0.2-0.1-0.7c0-0.5-0.2-0.2-0.3,0
		c-0.2,0.2-0.2,0.2-0.3,0.2c-0.1,0-0.3,0-0.6,0.1c-0.3,0.1-0.4,0.2-0.9,0.2c-0.5,0-0.5,0-0.9,0.1c-0.5,0.1-0.5-0.3-0.5-0.3
		s-0.1-0.3-0.1-0.5c0-0.1-0.3-0.3-0.4-0.3c-0.1,0-0.1-0.1-0.3-0.4c-0.2-0.2-0.1-0.1-0.6-0.2c-0.4-0.1-0.7-0.3-0.9-0.6
		c-0.2-0.3-0.3,0.1-0.2-0.2c0-0.2-0.3-0.6-0.3-0.9c0-0.3-0.2-0.2-0.5-0.4c-0.3-0.3-0.3-0.5-0.2-0.8c0.1-0.3,0-0.6-0.3-0.8
		c-0.2-0.2-0.4-0.5-0.6-0.9c-0.2-0.4-0.1-0.4-0.5-0.7c-0.3-0.3-0.3-0.8-0.6-1.3c-0.3-0.5-0.1-0.4-0.1-0.4c0,0,0.5,0.6,0.8,0.8
		c0.4,0.1,0-0.3,0.1-0.4c0.1-0.2,0.1,0.1,0.2,0.3c0,0.2,0.3,0.2,0.7,0.6c0.4,0.4,0.4,0.8,0.6,1.1c0.2,0.3,0.5,0.4,0.3,0.8
		c-0.1,0.4,0,0.3,0.1,0.4c0.2,0.1,0.5,0.2,0.8,0.5c0.2,0.3,1.2,1.7,1.2,1.7s0.1,0.1,0,0.4c-0.1,0.2,0.1,0.3,0.1,0.8
		c0.1,0.5,0.1,0.4,0.4,0.7c0.3,0.3,0.3,0.4,0.3,0.2c0.1-0.2,0.2-0.2,0.6-0.6c0.3-0.4,0.2-0.1,0.9-0.1c0.7,0,0.5,0,0.9-0.2
		c0.4-0.3,0.2-0.2,1-0.3c0.9-0.1,0.6-0.6,0.6-0.6s0.2,0,0.4-0.2c0.2-0.2,0.1,0,0.4,0.1c0.3,0.1,0.1-0.3,0.4-0.4
		c0.3-0.1,0.2-0.4,0.6-0.5c0.3-0.2-0.1-0.4,0-0.7c0.1-0.3,0.1,0.2,0.4,0.1c0.3,0,0.2-0.5,0.3-0.8c0.1-0.3-0.4-0.2-0.6-0.5
		c-0.2-0.4,0,0-0.4-0.1c-0.4-0.1-0.5-0.5-0.7-0.7c-0.2-0.2-0.3-0.3-0.4-0.5c-0.1-0.2-0.2,0.4-0.3,0.5C39,13.5,39,13.6,39,13.7
		c0,0.1-0.1,0.3-0.3,0.3c-0.2,0-0.4,0-0.5-0.1c-0.2-0.1-0.4-0.3-0.4-0.3s-0.1-0.3-0.1-0.7c0-0.4-0.1-0.1-0.2,0.1
		c-0.1,0.2-0.1,0.4-0.3,0.2c-0.2-0.2-0.3-0.2-0.2-0.5c0-0.3-0.1-0.2-0.4-0.5c-0.3-0.2-0.4-0.5-0.4-0.5s-0.2-0.1-0.3-0.2
		c-0.1-0.1-0.1-0.1-0.1-0.3c0.1-0.2,0.1-0.1,0.2-0.1c0.1,0,0.2,0.1,0.4,0c0.2-0.1,0.1,0.1,0.5,0.4c0.4,0.2,0.4,0.3,0.8,0.7
		c0.4,0.4,0.6,0.4,1.1,0.6c0.4,0.2,0.2,0,0.5-0.2c0.3-0.2,0.5-0.2,0.6,0.2c0.2,0.3,0.3,0.3,0.6,0.5c0.3,0.1,0.5,0.2,1.2,0.3
		c0.6,0.1,0.3,0.1,0.8,0.1c0.5,0,0.2-0.2,0.5-0.1c0.2,0.2,0.2,0.2,0.5,0c0.2-0.2,0.1,0,0.4,0s0.1,0.4,0.3,0.4c0.2,0,0,0.1,0.4,0.3
		c0.4,0.2,0.4,0.1,0.4,0.1s0.2,0.1,0.3,0.2c0.1,0.1,0.3,0.2,0.1,0.2c-0.1,0-0.1,0,0.1,0.2c0.2,0.2,0.5,0.4,0.8,0.5
		c0.3,0.2,0-0.1,0.3-0.2c0.2-0.1,0.1-0.2,0.2-0.3c0.1-0.1,0.2,0.2,0.2,0.7c0.1,0.5,0.3,0.6,0.4,0.9c0.2,0.3,0.4,1,0.6,1.5
		s1,1.8,1.3,2.3c0.2,0.4,0.2,0.8,0.4,1.1c0.2,0.2,0.2,0.2,0.5,0c0.3-0.2,0-0.2,0-0.4c0-0.2,0.1-0.1,0.3,0.1c0.2,0.1-0.2-0.3-0.2-0.5
		c0-0.1,0.2-0.2,0.1-0.5c0-0.3,0-0.2,0-0.4c0-0.2,0-0.2,0.1-0.5c0.1-0.3-0.2-0.1-0.2-0.1c0,0-0.1-0.1-0.1-0.3c0-0.1,0-0.4,0-0.4
		s0-0.1,0.3-0.5c0.3-0.4,0.1-0.5,0.1-0.7c0-0.2,0.2-0.4,0.2-0.4s0-0.5,0.2-0.7c0.2-0.2,0.2-0.2,0.1-0.5c0-0.3,0.3,0.1,0.6,0.2
		c0.3,0.1,0.1,0,0.1-0.2c0-0.2,0.2,0.3,0.4,0.7c0.2,0.4,0.3,0.2,0.5,0.4c0.2,0.2,0.3,0.7,0.3,0.9c0,0.2,0.1,0.4,0.3,0.6
		c0.2,0.2,0.2,0.4,0.3,0.1c0.1-0.3,0,0,0.2,0.4c0.2,0.4,0.7,1.9,0.7,2.7c0,0.8,0.4,0.9,0.4,1.3c0.1,0.4,0.1,0.9-0.1,0.6
		c-0.1-0.3-0.1-0.3-0.4-0.3c-0.3-0.1,0.4,0.9,0.7,2c0.3,1.1,0.2,1.3,0.3,1.9c0,0.3,0.1,0.5,0.2,0.5c0-0.1,0-0.2,0-0.4
		C55.4,14.8,46.6,4.6,34.9,2.4"/>
	<path style="clip-path:url(#SVGID_00000140721181811161738350000000717177823796993198_);fill:#E57225;" d="M20.5,8.5
		c-0.2-0.1-0.3-0.3-0.3-0.1c0,0.2,0,0.2,0.1,0.3c0.1,0.2,0.3,0.3,0.3,0.3s-0.1,0.3,0.1,0C21,8.8,21,8.7,21.1,8.6
		c0.1-0.1,0.3-0.3,0.1-0.3c-0.2,0-0.3-0.1-0.5,0.1L20.5,8.5z"/>
	<path style="clip-path:url(#SVGID_00000140721181811161738350000000717177823796993198_);fill:#E57225;" d="M20,7.1
		c-0.2,0.1-0.4,0.1-0.4,0.3c0,0.2,0.1,0.2,0,0.2c-0.1,0.1-0.2,0.2-0.2,0.2s-0.2,0.2-0.2,0.3c0,0.1-0.1,0.4,0.1,0.2
		c0.2-0.1,0.2-0.1,0.3-0.3c0.1-0.2,0.1-0.2,0.1-0.3s0-0.2,0.1-0.2C20.1,7.4,20,7.1,20,7.1"/>
	<path style="clip-path:url(#SVGID_00000140721181811161738350000000717177823796993198_);fill:#E57225;" d="M24,8.8
		c-0.2,0.1-0.2,0.1-0.3,0.3c-0.1,0.2-0.3,0.3,0.1,0.2c0.5-0.1,0.5,0,0.5,0C24.4,9.1,24.5,9,24.5,9s0.1-0.2-0.1-0.2
		C24.1,8.8,24,8.8,24,8.8"/>
	<path style="clip-path:url(#SVGID_00000140721181811161738350000000717177823796993198_);fill:#E57225;" d="M25,8.9
		c-0.2,0-0.2,0-0.3,0c-0.1,0-0.2,0-0.1,0.1c0.1,0.1,0,0.2,0.2,0.1C25,9.2,25,8.9,25,8.9"/>
	<path style="clip-path:url(#SVGID_00000140721181811161738350000000717177823796993198_);fill:#E57225;" d="M25.7,8.5
		c-0.2,0-0.3,0-0.4,0.1c-0.1,0.1-0.3,0.1-0.1,0.1l0.3,0c0,0,0,0,0.2-0.1c0.2-0.1,0.1,0,0.2-0.1C26,8.6,25.7,8.5,25.7,8.5"/>
	<path style="clip-path:url(#SVGID_00000140721181811161738350000000717177823796993198_);fill:#E57225;" d="M25.1,8.4
		c0,0,0,0.2,0.1,0.2c0.1-0.1,0.1,0,0.1-0.1c0.1,0,0.1-0.1,0.1-0.1C25.4,8.4,25.1,8.4,25.1,8.4"/>
	<path style="clip-path:url(#SVGID_00000140721181811161738350000000717177823796993198_);fill:#E57225;" d="M24.5,8.4
		c0.1,0.1,0,0.2,0.1,0.1c0.1-0.1,0-0.1,0.1-0.1c0.1,0,0.2,0,0.2,0V8.2h-0.3L24.5,8.4z"/>
	<path style="clip-path:url(#SVGID_00000140721181811161738350000000717177823796993198_);fill:#E57225;" d="M24.7,8
		c-0.1,0-0.2,0.1-0.1,0.1c0.1,0,0.1,0.1,0.2,0c0,0,0.1-0.1,0.1-0.1L24.7,8z"/>
	<path style="clip-path:url(#SVGID_00000140721181811161738350000000717177823796993198_);fill:#E57225;" d="M25.2,8.1
		c-0.1,0-0.2,0-0.1,0.1c0.1,0.1,0.1,0.1,0.1,0.1s0.1,0,0.1,0C25.3,8.2,25.2,8.1,25.2,8.1"/>
	<path style="clip-path:url(#SVGID_00000140721181811161738350000000717177823796993198_);fill:#E57225;" d="M37.6,31.4
		c-0.3,0.2-0.3,0.3-0.5,0.6c-0.2,0.2-0.4,0.4-0.4,0.4s-0.1,0.1-0.2,0.3c-0.1,0.2-0.6,0.6-0.6,0.6l-0.6,0.2c0,0-0.6,0.1-0.6,0.6
		c0.1,0.5,0.1,0.6,0.1,0.9c0,0.3-0.1,0.8-0.1,0.8s-0.6,0.4-0.6,0.8c0,0.4,0.3,0.5,0.3,0.9c0,0.3-0.4,0.5,0,0.7c0.4,0.2,0.8,0,0.8,0
		s0.3,0.8,0.7-0.2c0.3-1,0.6-1.7,0.6-1.7s0.6-0.8,0.6-1.2c0-0.4,0-1.6,0.2-1.4c0.2,0.1,0.5,0.3,0.4-0.2s-0.2-0.9-0.2-1.2
		C37.7,31.9,38.1,31.2,37.6,31.4"/>
	<path style="clip-path:url(#SVGID_00000140721181811161738350000000717177823796993198_);fill:#E57225;" d="M39.5,18.7
		c0.3,0,0.5-0.1,0.5,0.1c0,0.2,0.2,0.1-0.2,0.3c-0.4,0.1-0.3,0.3-0.5,0.2c-0.2-0.1-0.3-0.2-0.2-0.3C39.2,18.8,39.5,18.7,39.5,18.7"
		/>
	<path style="clip-path:url(#SVGID_00000140721181811161738350000000717177823796993198_);fill:#E57225;" d="M28.6,8.9
		C28,9.1,27.2,9,28.1,9.2c0.8,0.2,0.3,0.4,0.8,0.2c0.5-0.2,0.6-0.3,0.6-0.4C29.5,8.8,29,8.8,28.6,8.9"/>
	<path style="clip-path:url(#SVGID_00000140721181811161738350000000717177823796993198_);fill:#E57225;" d="M11,6.2
		c0.2,0,0.6-0.1,0.8-0.4c0,0,0.1-0.2,0.1-0.3"/>
	<path style="clip-path:url(#SVGID_00000140721181811161738350000000717177823796993198_);fill:#E57225;" d="M10.8,4.1
		c-1,0.8-1,0.8-1,0.8c-1,0.8-1.1,0.8-1.7,1.3C7.8,6.5,7.2,7,7.3,7.1c0.1,0.1,1-0.6,2.6-1.4c0.3-0.1,0.2-0.1,1.4-0.6
		c1.2-0.5,1.5-0.7,1.8-0.8c0.8-0.4,0.6-0.5,1.1-0.7c0.5-0.2,1-0.3,1.6-0.7c0.4-0.2,0.3-0.3,0.3-0.3c-0.1-0.2-1.3-0.1-1.5-0.1
		c-0.3,0-0.8,0.1-1.3,0.2C13,2.8,12.9,2.9,12.7,3c-0.4,0.2-0.9,0.5-1.3,0.7C11.2,3.8,11,4,10.8,4.1"/>
</g>
</svg>
