<?xml version="1.0" encoding="utf-8"?>
<!-- Generator: Adobe Illustrator 25.4.1, SVG Export Plug-In . SVG Version: 6.00 Build 0)  -->
<svg version="1.1" id="Layer_1" xmlns="http://www.w3.org/2000/svg" xmlns:xlink="http://www.w3.org/1999/xlink" x="0px" y="0px"
	 viewBox="0 0 50 50" style="enable-background:new 0 0 50 50;" xml:space="preserve">
<style type="text/css">
	.st0{clip-path:url(#SVGID_00000127015504069283797570000013455994831197000872_);fill:#F5F5F5;}
	.st1{clip-path:url(#SVGID_00000127015504069283797570000013455994831197000872_);fill:#ED8200;}
	.st2{fill:#ED8200;}
	.st3{clip-path:url(#SVGID_00000140711727391703831760000006239096141950772888_);fill:#ED8200;}
</style>
<g>
	<defs>
		<rect id="SVGID_1_" width="50" height="50"/>
	</defs>
	<clipPath id="SVGID_00000045615598747029170800000001091249344144452743_">
		<use xlink:href="#SVGID_1_"  style="overflow:visible;"/>
	</clipPath>
	<path style="clip-path:url(#SVGID_00000045615598747029170800000001091249344144452743_);fill:#F5F5F5;" d="M50,25
		C50,11.2,38.8,0,25,0C11.2,0,0,11.2,0,25s11.2,25,25,25C38.8,50,50,38.8,50,25"/>
	<path style="clip-path:url(#SVGID_00000045615598747029170800000001091249344144452743_);fill:#ED8200;" d="M24.7,44.4
		c-0.1,0.6-0.1,0.3-0.5,0.6s-0.8,0.5-0.9,0.6c-0.1,0.1-0.4,0.1-0.1,0.3c0.2,0.2,0.8,0.5,0.7,0.6c-0.1,0.1-0.2,0.1-0.4,0.3
		c-0.2,0.2-0.4,0.1,0.2,0.4c0.6,0.3,0.7,0.4,1.1,0.3c0.4,0,0.8,0,0.8-0.5s0-0.7,0-0.8c0-0.1,0-0.4,0-0.5c0-0.1,0-0.4,0.1-0.4
		c0.2,0,0.6,0.3,0.2-0.2C25.4,44.8,24.7,44.2,24.7,44.4"/>
	<path style="clip-path:url(#SVGID_00000045615598747029170800000001091249344144452743_);fill:#ED8200;" d="M11.6,24.4
		c-0.2,0.2-0.1,0.1-0.1,0.3c0,0.2,0,0.2,0,0.3c0,0.1-0.1-0.2,0.1,0s0.2,0.2,0.2,0.2c0,0,0.1-0.1,0.1-0.2c0-0.1,0-0.1,0-0.1
		c0-0.1,0.1-0.1,0.1-0.1s0-0.1-0.1-0.2C11.9,24.7,11.6,24.4,11.6,24.4"/>
	<path style="clip-path:url(#SVGID_00000045615598747029170800000001091249344144452743_);fill:#ED8200;" d="M12,25.7
		c0.4,0,0,0,0.4,0.1c0.4,0.1,0.5,0.1,0.6,0.1C13,26,13.1,26,13,26c-0.1,0-0.4,0-0.4,0s-0.3-0.1-0.5-0.1C12.1,25.9,11.4,25.6,12,25.7
		"/>
	<path style="clip-path:url(#SVGID_00000045615598747029170800000001091249344144452743_);fill:#ED8200;" d="M6.9,21.9
		C6.7,22,6.6,22,6.7,22.1c0.2,0.2,0.3,0.3,0.4,0.2C7.1,22.2,6.9,21.9,6.9,21.9"/>
	<path style="clip-path:url(#SVGID_00000045615598747029170800000001091249344144452743_);fill:#ED8200;" d="M7.2,21.8
		c-0.1,0.1,0,0.2,0,0.2c0,0,0.2,0,0.2-0.1C7.4,21.9,7.2,21.8,7.2,21.8"/>
	<path style="clip-path:url(#SVGID_00000045615598747029170800000001091249344144452743_);fill:#ED8200;" d="M8.7,21.3
		c-0.3,0.2-0.3,0-0.3,0.3c0,0.3-0.1,0.7,0.1,0.3C8.8,21.5,8.7,21.3,8.7,21.3"/>
	<path style="clip-path:url(#SVGID_00000045615598747029170800000001091249344144452743_);fill:#ED8200;" d="M8.2,22.1
		c-0.1,0.2,0.1-0.1-0.1,0.3C8,22.8,7.9,22.8,8,22.9c0.1,0.1,0,0.2,0.1,0.2c0.1,0,0.1,0.3,0.2,0c0.1-0.3,0.2-0.6,0.3-0.6
		c0-0.1,0.3-0.5,0.1-0.4C8.4,22.2,8.2,22.1,8.2,22.1"/>
	<path style="clip-path:url(#SVGID_00000045615598747029170800000001091249344144452743_);fill:#ED8200;" d="M9.7,13.7
		c-0.6,0.1-0.4-0.1-0.6,0.2c-0.2,0.3-0.1,0.2-0.2,0.3c-0.1,0.1-0.2,0.4-0.2,0.4s0,0-0.1,0.2c0,0.2-0.1,0.3-0.1,0.3s0.1,0.2,0.1,0.3
		c0,0.1-0.1,0.3-0.1,0.3l-0.1,0.1c0,0-0.1-0.1-0.2,0c-0.1,0.1,0,0.1-0.1,0.2c-0.1,0.1-0.2,0.3-0.2,0.3s-0.3,0.1-0.4,0.2
		c-0.1,0.1-0.1,0.1-0.1,0.2c-0.1,0.1-0.1,0.2,0,0.2c0.1,0,0.6,0.1,0.6,0.1L8.4,17c0,0-0.3,0.4,0.1,0C8.9,16.6,9,16.5,9,16.5
		s0.1,0,0.1-0.1c-0.1-0.1-0.2-0.2-0.2-0.2S8.9,16,9,15.9c0.1-0.2,0.1-0.1,0.1-0.3c0-0.2,0-0.3,0-0.3s-0.2,0.2,0-0.1
		c0.2-0.3,0.1-0.3,0.2-0.4c0.1-0.1,0.4-0.2,0.4-0.3l0-0.1l-0.1-0.1c0,0-0.1-0.2-0.1-0.2C9.5,13.9,9.7,13.7,9.7,13.7"/>
	<path style="clip-path:url(#SVGID_00000045615598747029170800000001091249344144452743_);fill:#ED8200;" d="M8.4,14.5
		C8.2,14.6,8,14.6,8,14.7c0,0.1,0.1,0.2-0.1,0.1c-0.1-0.1-0.1-0.3-0.2-0.2C7.6,14.8,7.5,15,7.5,15s-0.2,0.1-0.1,0.1
		c0,0.1,0.2,0.1,0.2,0.2c-0.1,0.1-0.3,0.3-0.3,0.3l-0.1,0.2c0,0,0.1,0.2,0.2,0.2c0.1,0,0.3,0,0.4-0.1c0.1-0.1,0.2-0.2,0.2-0.4
		c0.1-0.1-0.1,0,0.1-0.1c0.1-0.1,0.2-0.1,0.3-0.2c0-0.1,0.1-0.3,0.1-0.3L8.4,14.5z"/>
	<path style="clip-path:url(#SVGID_00000045615598747029170800000001091249344144452743_);fill:#ED8200;" d="M11.5,16
		c-0.1,0-0.2,0-0.2,0.1s0,0.2,0,0.2c0,0-0.1,0.1-0.2,0.1c0,0,0,0.1,0,0.1l0.2-0.1c0,0,0.1-0.1,0.1-0.2C11.6,16.3,11.5,16,11.5,16"/>
	<path style="clip-path:url(#SVGID_00000045615598747029170800000001091249344144452743_);fill:#ED8200;" d="M11.7,16.1
		c-0.1,0.2-0.1,0.3-0.1,0.3s0.1,0.1,0.2,0.1s0,0,0.1,0c0,0,0.1,0,0.1-0.1C12,16.3,11.7,16.1,11.7,16.1"/>
	<path style="clip-path:url(#SVGID_00000045615598747029170800000001091249344144452743_);fill:#ED8200;" d="M10.4,9.6
		c-0.2-0.5-0.3,0.1-0.3,0.1c0,0.1,0,0.2,0,0.2s-0.2,0.1-0.3,0.2c0,0.1-0.1,0.4-0.1,0.4s0,0.2,0.4,0.2c0.5,0,0.5,0,0.5,0
		s0.3-0.2,0.3-0.2c0-0.1,0-0.2,0-0.2S10.7,10,10.6,10c-0.1,0-0.3,0-0.3-0.1c0,0,0,0,0,0c0,0,0.1-0.1,0.1-0.1L10.4,9.6z"/>
	<path style="clip-path:url(#SVGID_00000045615598747029170800000001091249344144452743_);fill:#ED8200;" d="M19.8,11
		c-0.2,0.1-0.3,0.1-0.2,0.2c0.1,0.1,0,0.2,0.1,0.1c0.2-0.1,0.3-0.2,0.3-0.2s0.1,0,0-0.1C20,10.9,19.8,11,19.8,11"/>
	<path style="clip-path:url(#SVGID_00000045615598747029170800000001091249344144452743_);fill:#ED8200;" d="M33.8,12.4
		c-0.2,0.2-0.2,0.5-0.4,0.7c0,0,0,0,0,0s0,0-0.1,0c-0.1,0.1-0.1,0.1-0.2,0.2c-0.3,0.2,0,0,0.2-0.2c0,0,0.1-0.1,0.1-0.1
		c0-0.1,0.1-0.5,0.2-1.7c0.1-1.6-0.3-0.1-0.5-0.7l0.2-0.3l0.5,0.1c0,0,0,0.6,0.1,0.8c0.1,0.3,0.1,0.3,0.2,0.5
		C34.1,12.1,34,12.1,33.8,12.4 M29.4,20.2c-0.8-0.1,0-0.2,0.7-0.6l0.3,0.3C30.4,19.9,30.2,20.3,29.4,20.2 M24.7,10.4
		c-0.4-0.2-0.3-0.3-0.5-0.2c-0.1,0.1-0.3,0-0.4,0.1c0.2-0.1,0.3-0.3,0.4-0.3c0.1,0,0.4-0.2,0.5,0.2C24.9,10.5,25.1,10.6,24.7,10.4
		 M24.3,21.2c-0.1,0.1-0.1,0.1-0.4,0.6c-0.3,0.4-0.3-0.4-0.4-0.6c-0.1-0.1,0-0.6,0-0.6s0.3-0.4,0.5-0.5c0,0,0.5,0.2,0.5,0.9
		S24.4,21.1,24.3,21.2 M23.8,25.9c-0.2,0.1,0-0.1-0.1-0.3c-0.1-0.2-0.2-0.2,0-0.4c0,0,0.4,0.1,0.4,0.2C24,25.7,24,25.9,23.8,25.9
		 M22.9,24.9c-0.1,0.1-0.5,0.1-0.7,0.3c-0.2,0.1-0.2,0-0.3,0.1c-0.2,0.1-0.1,0-0.3,0c-0.2,0-0.4-0.4-0.4-0.4s-0.1,0-0.4-0.3
		c-0.3-0.3-0.1-0.4,0.1-0.9c0.2-0.5-0.2-0.8-0.8-1.3c-0.7-0.6,0-0.1,0-0.5c0-0.4-0.1-0.1-0.1-0.1s-0.1-0.3-0.1-0.4
		c0-0.1,0.2-0.2,0.3-0.6s0.1-0.1,0.8-0.6c0,0,0.5-0.1,0.5,0.1c0,0.2,0.1,0.1,0.3,0.3c0.2,0.2,0.2,0.1,0.3,0.1c0.1,0,0.3,0.2,0.4,0.2
		c0.1,0.1-0.3,0.2-0.3,0.2s-0.1,0.3-0.3,0.4c-0.2,0.1-0.1-0.1-0.1-0.3c0-0.2,0,0,0.1-0.3c0.1-0.3-0.2,0-0.6,0.1
		c-0.3,0.1-0.1,0.3-0.1,0.3c0,0-0.1,0.1-0.1,0.3c0,0.2,0.2,0.4,0.6,0.4c0.4,0,0.2,0.2,0.1,0.3c-0.2,0.2,0.1,0.5,0.2,0.5
		c0.1,0,0-0.2,0.3-0.5c0.2-0.4,0.3,0.2,0.6,0.3c0.3,0.2,0.1,0.1-0.3,0.4c-0.4,0.2-0.2,0.1-0.3,0.1c-0.2,0.1,0.1,0.2,0.2,0.4
		c0.1,0.2,0.1,0.1,0.2,0.2c0.2,0.1,0,0,0,0.3c0,0.3,0.1,0.4,0.4,0.4C23.3,24.6,23,24.8,22.9,24.9 M15.1,40.8c0,0,0.1-0.1,0.2-0.1
		c0.1,0,0,0,0.2,0.1c0.1,0.1,0,0.1,0,0.2c0,0.1-0.1,0.1-0.3,0C15,41,15,41,15.1,40.8 M15.6,40.3h0.3c0,0-0.1,0.3-0.3,0.3
		C15.4,40.5,15.4,40.3,15.6,40.3 M16.2,42.7c0,0,0.4,0.3,0.6,0.5c0.2,0.2,0,0.4,0,0.4s-0.1-0.1-0.5-0.3c-0.4-0.2,0,0.2,0,0.2
		l-0.1,0.2c0,0-0.1,0-0.4-0.1c-0.3-0.1,0-0.1,0.1-0.2c0-0.2,0.1-0.2,0.1-0.2s0-0.2-0.2-0.5c-0.2-0.3-0.2-0.1-0.3-0.6
		c0,0,0.3,0.1,0.5,0.2C16.1,42.5,16.2,42.7,16.2,42.7 M16.3,41.2l0.1-0.2l0.5,0c0.4,0.3,0.5,0.2,0.4,0.5c-0.1,0.2,0,0.4-0.4,0.3
		c-0.3,0-0.7-0.1-0.7-0.2S16.3,41.2,16.3,41.2 M17.4,36.4c0,0,0.3,0.1,0.3,0.2c0,0.1,0,0.1-0.1,0.2c-0.1,0.1-0.1,0-0.3-0.1
		C17.1,36.6,17.2,36.5,17.4,36.4 M18.3,40.2c0,0,0,0.2-0.1,0.1c-0.1-0.1-0.5-0.5-0.5-0.5s-0.1-0.3,0-0.5c0,0,0.2,0.3,0.4,0.5
		C18.2,40,18.3,40.2,18.3,40.2 M18.6,44.5c0.2,0.2,0,0,0.6,0.6c0.6,0.6,0,0.2-0.1,0.2c0,0-0.5-0.2-0.6-0.5c-0.1-0.2-0.3-0.2-0.3-0.6
		C18.2,43.9,18.5,44.2,18.6,44.5 M10.2,33.6c0,0.1-0.2,0.1-0.3-0.2c-0.1-0.2-0.1-0.2-0.1-0.2c0,0,0,0,0-0.1c0,0,0.4,0,0.4,0.1
		C10.1,33.4,10.2,33.5,10.2,33.6 M8.9,34.9C8.8,35,8.6,35,8.5,35c-0.1,0-0.1-0.3-0.3-0.5c-0.1-0.2-0.1-0.2-0.2-0.5
		c0,0,0.3,0.1,0.3,0.1c0,0,0,0.1,0.1,0.3c0,0.2,0.3,0.2,0.5,0.3C9.3,34.7,9,34.8,8.9,34.9 M7.6,25.4c0,0-0.1,0.1-0.2-0.1
		c-0.1-0.1-0.1-0.2,0-0.3l0.3,0L7.6,25.4z M7.1,24.9c0,0.1,0,0-0.3,0c-0.2-0.1,0,0,0.2-0.2c0,0,0.2,0.1,0.2,0.1
		C7.2,24.7,7.2,24.8,7.1,24.9 M15.6,24.9c-0.1,0.1-0.2-0.1-0.5-0.1c-0.3-0.1,0-0.2,0.2-0.5c0,0,0.3,0.1,0.5,0.3
		C16,24.8,15.8,24.7,15.6,24.9 M17.6,15.8c-0.3,0.1-0.1,0-0.2-0.2c-0.1-0.1,0-0.2,0.2-0.4c0,0,0.4,0.2,0.4,0.3
		C17.9,15.7,17.8,15.7,17.6,15.8 M17.1,14.6c-0.2,0.3-0.1-0.1-0.1-0.1c0,0-0.1-0.3-0.1-0.4c0-0.1,0-0.2,0.1-0.4c0,0,0.3,0.2,0.4,0.5
		C17.5,14.5,17.4,14.3,17.1,14.6 M16.2,15c-0.3,0.3-0.2,0-0.2,0c0,0,0-0.2,0-0.4c0-0.2,0-0.1,0.1-0.3c0,0,0.3,0.1,0.3,0.2
		c0.1,0.1,0.1,0.1,0.2,0.2C16.6,14.7,16.5,14.7,16.2,15 M44.6,30.4c0,0-0.2-0.1-0.2-0.2c0-0.1,0-0.2-0.1-0.3c0-0.1-0.1-0.3-0.1-0.3
		s0-0.1-0.2-0.1c-0.2,0-0.3,0-0.4,0l-0.1,0c0,0,0.1,0.3-0.1,0l-0.2-0.3L43,28.9l-0.1-0.2c0,0-0.2,0.1-0.2,0.2l0,0.1
		c0,0-0.1-0.2-0.1-0.4c0-0.1-0.2-1-0.2-1.1c0-0.1-0.1-0.3,0-0.3c0.1-0.1,0.1-0.4,0.2-0.1c0,0.3-0.1,0.4,0.1,0.4
		c0.1,0,0.3-0.1,0.3-0.2c0-0.1,0.1-0.2,0.1-0.2l0.1,0.1c0,0,0,0.2,0.1,0.2c0.1,0,0.1-0.1,0.1-0.1s0,0.1,0.1,0.2
		c0.1,0.1,0,0.1,0.1,0.1c0.1,0,0.2,0,0.2,0c0,0,0.2-0.2,0.2-0.2s0.2,0,0.2,0.1c0,0.2,0,0.4,0,0.4s0.1,0.5,0.2,0
		c0.1-0.5,0.3-0.8,0.3-0.9s-0.1-0.2,0-0.5c0.1-0.2,0.2-0.5,0.2-0.5s0-1.2-0.8-1.5c-0.8-0.3-1-0.2-1.1-0.5c-0.1-0.3-0.1-0.4-0.1-0.5
		c0-0.1,0-1,0.1-1.2c0.2-0.2,0.2-0.6,0.3-0.3c0.1,0.3,0,0.4,0.1,0.3c0.1-0.1,0.2,0,0.1-0.3c-0.1-0.3-0.2-0.4,0.1-0.7
		c0.3-0.3,0.2-0.8,0.3-1.1c0.1-0.3-0.1-1,0-1.5c0-0.5,0-0.8,0-0.8s-0.1-0.4-0.2-0.7c-0.2-0.3-0.3-0.9-0.6-1.2
		c-0.4-0.4,0-0.1-0.5-0.5c-0.5-0.4-0.4-0.7-0.6-0.6c-0.2,0.1-0.2,0.1-0.3,0.2c-0.1,0.1-0.1,0.5-0.2,0.1c-0.1-0.3-0.1-0.5-0.2-0.7
		c-0.1-0.2-0.1-0.2-0.1-0.3c0-0.1,0-0.2,0-0.2l-0.1-0.2c0,0,0.1-0.2,0,0c-0.2,0.2-0.3,0.2-0.3,0.2s-0.2-0.1-0.1,0
		c0.1,0.2,0.1,0.2,0.1,0.2c0,0,0,0.1,0,0.1s0,0,0,0c0,0-0.2,0-0.2,0s-0.1-0.1-0.1,0c0,0-0.1,0-0.1,0c0,0-0.1-0.1-0.1-0.1
		S40,14,40,14c0,0,0-0.1,0-0.1c0,0-0.1-0.2-0.1-0.2s-0.1-0.1-0.1-0.2c0,0,0-0.2,0-0.3c0-0.1,0.1-0.5,0.2-0.2
		c0.1,0.3,0.1,0.3,0.2,0.4c0.1,0.1,0.1,0.1,0.1,0.1s0,0,0-0.2c0-0.2-0.1-0.2-0.1-0.3c0-0.1-0.1-0.3,0.1-0.4c0.2-0.1-0.1-0.3,0.2-0.1
		c0.2,0.2,0.2,0.2,0.3,0.3c0.1,0.1,0.2,0.2,0.2,0.2s0,0.1,0,0c0.1-0.1,0.1-0.1,0.1-0.1c0,0,0-0.1,0.1,0c0.1,0.1,0.2,0.1,0.2,0.2
		c0,0.1,0,0.1,0,0.1l0.1,0l0.1,0.1c0,0,0.2-0.1,0.2,0.1c0,0.2,0,0.2,0.1,0.3c0,0.1,0.2,0.2,0.2,0.2s0,0,0,0c0,0,0-0.3,0-0.3
		c0,0,0-0.2,0-0.2c0,0,0-0.1,0-0.2c0-0.1,0-0.2,0-0.2s0.2-0.2-0.6-0.5c-0.8-0.3-0.4-0.4-0.7-0.3c-0.3,0.1-0.3,0.1-0.3-0.2
		c-0.1-0.2,0-0.5-0.2-0.8c-0.2-0.3-0.3-0.2-0.5-0.4c-0.2-0.2-0.3-0.4-0.3-0.4c0-0.1-0.2-0.2,0-0.1c0.2,0.1,0.3,0.3,0.3,0l0-0.2
		c0,0-0.1-0.2-0.2-0.3c-0.1-0.1-0.5-0.8-1.2-1.5c-0.7-0.7-0.2-0.5-0.8-0.8c-0.6-0.3-0.8-0.3-0.9-0.4c-0.1-0.1-0.7-0.4-0.1-0.2
		c0.6,0.2,0.5,0.2,0.8,0.3c0.3,0.1,0.2,0.1,0.5,0.2c0.2,0.1,0.2,0.1,0.4,0.2c0.2,0.1,0.2,0.1,0.2,0.1s0.3,0.1,0.1-0.1
		c-0.2-0.2,0.2-0.2-0.3-0.3C38,7.2,37.9,7.1,37.8,7c-0.1-0.1-0.1-0.1-0.3-0.2c-0.2-0.1-0.3-0.1-0.6-0.2c-0.3-0.1,0.2,0-0.4-0.2
		c-0.6-0.2-0.9-0.5-0.6-0.2c0.2,0.3,0.7,0.3,0.3,0.4l-0.3,0.1C35.7,6.6,36,7,36,7c0,0,0.1,0.1-0.2,0.1c-0.3,0-0.1,0-0.3,0
		s-0.3,0-0.3-0.2c-0.1-0.2-0.2-0.4-0.2-0.4S35,6.6,34.7,6.3c-0.3-0.3-1-0.9-1.1-0.9c0,0-0.3-0.2-0.2-0.4c0-0.2,0.2-0.3,0-0.3
		c-0.1-0.1-0.2-0.3-0.1-0.3c0.1,0,0.2-0.1,0.2-0.1s0.1,0-0.1-0.2C33.2,4,33,3.9,33,3.9s0,0.2-0.5,0s-1-0.5-0.7-0.4
		c0.3,0.1,0.7,0,0.2-0.1c-0.5-0.1-1.4-0.4-0.9-0.3c0.5,0,1,0.1,1.6,0.5c0.6,0.3,0.6,0.4,1.1,0.6c0.5,0.2,0.9,0.3,1.3,0.4
		C35.5,4.5,36,4.6,36,4.6s0.3,0-0.5-0.4c-0.8-0.4-0.3-0.5-1.6-0.8s-1.4,0-1.9-0.5c-0.5-0.5,0-0.2-1-0.6c-1-0.3-1.2-0.4-1.3-0.4
		c-0.1,0,0-0.1-0.5-0.1c-0.5,0-0.6-0.1-0.7-0.1c-0.1,0-0.4,0.2-0.4,0c0-0.2,0.3-0.2-0.2-0.2c-0.5,0-0.9-0.3-0.7-0.1
		c0.2,0.3,0.3-0.1,0.2,0.3c-0.1,0.4,0.5,0.7,0.7,0.7c0.1,0,0.4-0.2,0.4,0.1s0.6,0.5,0.2,0.6c-0.4,0-0.8-0.2-0.6,0.2
		c0.3,0.3,0.9,0.5,0.4,0.6c-0.5,0-0.5-0.3-0.6,0.2c-0.1,0.5,0.1,0.5,0.2,0.7c0.1,0.2-0.3,0.1,0,0.4c0.3,0.3,0.4,0.5,0,0.3
		c-0.4-0.1-0.3-0.5-0.8-0.1c-0.5,0.3,0.3,0.2,0,0.4C27,6,27.1,6,26.8,6.2c-0.3,0.2-0.2-0.1-0.4,0.3c-0.1,0.4-0.1,0.7-0.3,0.1
		c-0.3-0.6-0.2-0.8-0.6-0.7C25.1,6,25,5.8,24.8,6.1c-0.1,0.3-0.3,0-0.3,0.4c0,0.4,0.1,0.3-0.1,0.5c-0.2,0.2-0.8,0.8-0.4,0.9
		c0.4,0.1,0.8,0.1,0.1,0.3c-0.6,0.2-1.1,0.1-0.5,0.4C24.3,8.8,24.5,9,24.5,9s0.6,0.2,0,0.1c-0.6-0.1-0.4-0.1-0.6-0.1
		c-0.2,0-0.3-0.2-0.3,0.1c0,0.3,0,0.3,0.1,0.4c0.2,0.1,0.5,0.1,0.3,0.1c-0.2,0,0.1,0.4-0.3,0c-0.4-0.3-0.4-0.9-0.5-0.7
		c-0.1,0.2,0.1,0.2,0.1,0.4c0,0.2,0.1,0.1,0.2,0.4s0.3,0.2,0.2,0.4c0,0.1-0.1,0.4,0.1,0.3c0,0,0,0,0,0c0,0,0,0.1,0.1,0.1
		c0.2,0.2,0.3,0.3,0.3,0.4c0,0.1,0.2,0-0.1,0.2c-0.3,0.2-0.3,0-0.3-0.1c0-0.1,0.1-0.3,0-0.3c-0.1-0.1-0.1,0-0.2-0.1
		c-0.1-0.1,0-0.1-0.1-0.3c-0.2-0.2-0.2-0.3-0.3-0.4c-0.1-0.2-0.2-0.4-0.2-0.5c0-0.2,0-0.3-0.2-0.3c-0.2,0-0.3-0.2-0.3,0.1
		c-0.1,0.2-0.1,0.7,0,0.8c0.1,0.1,0,0.1,0.3,0.4c0.3,0.2,0.6,0.3,0.6,0.4c0,0.1,0,0.2-0.2,0.1c-0.2,0-0.5-0.1-0.7-0.1
		c-0.2,0-0.6-0.1-0.6-0.1s-0.8-0.3-0.5,0c0.3,0.3,0.6,0.3,0.3,0.5c-0.2,0.1,0.1,0.1-0.3,0.1c-0.4,0.1-0.3,0-0.5,0.1
		c-0.2,0.1-0.7-0.1-0.9,0.3c-0.3,0.4,0.1,0.6-0.3,0.6c-0.4,0-0.5,0.1-0.3-0.2c0.1-0.3,0-0.4-0.1-0.4c-0.2,0.1-0.2,0-0.2,0.3
		c-0.1,0.2-0.1,0.3,0,0.4c0.1,0.2,0.2,0.3,0,0.3c-0.2,0.1-0.3,0-0.5,0.1c-0.2,0.1-0.1,0.2-0.3,0.4c-0.2,0.2-0.3-0.2-0.4,0.1
		c-0.1,0.3-0.2,0.7-0.4,0.3c-0.1-0.4,0.2-0.1,0-0.6c-0.2-0.5-0.8-1-0.3-0.6c0.6,0.4,0.5,0.5,0.7,0.4c0.3-0.1,0.4-0.1,0.5-0.2
		c0.1-0.1,0.5-0.1,0.1-0.5c-0.4-0.3-0.3-0.4-0.8-0.6L17,11c0,0-0.4-0.5-1.2-0.4c-0.7,0.2-0.5,0.4-1.4,1c-0.9,0.6-0.8,0.4-1.3,0.9
		c-0.5,0.5-1,0.6-1.4,0.9c-0.3,0.3-0.6,0.3-0.7,0.7c0,0.4,0.1,0.6,0.4,0.6c0.2,0,0.5-0.4,0.3,0.1c-0.1,0.5-0.2,0-0.1,0.6
		c0,0.5-0.1,0.7,0.2,0.7c0.3,0,0.2,0.4,0.6-0.1c0.3-0.6,0.3-0.6,0.7-0.7c0.4-0.1,0.5-0.2,0.4-0.6c-0.1-0.4-0.5-0.2-0.1-0.5
		c0.4-0.3,0.6-0.5,0.9-0.7c0.3-0.2,0.3-0.2,0.4-0.4c0.1-0.2,0-0.3,0.3-0.5c0.4-0.1,0.7-0.2,0.7,0c-0.1,0.3-0.4,0.3-0.8,0.6
		c-0.4,0.3-0.5,0.5-0.6,0.6c-0.1,0.1-0.4,0.4-0.3,0.6c0.1,0.2-0.3,0.4,0.3,0.3c0.6-0.1,0.6-0.1,0.7-0.1c0.1,0,0.3-0.2,0.4,0
		c0.1,0.3,0.4-0.3,0.1,0.3c-0.3,0.6-0.3,0.4-0.3,0.6c0,0.2-0.2,0.4-0.2,0.3c0-0.1,0.1-0.4-0.1-0.5c-0.1-0.2-0.4-0.1-0.4-0.1
		s-0.4-0.1-0.4,0c0,0.1,0.2-0.2,0,0.3c-0.1,0.6,0,0.7-0.2,0.6c-0.2-0.1-0.4-0.4-0.4-0.4s-0.4,0.5-0.6,0.8c-0.2,0.3-0.2,0.4-0.4,0.5
		c-0.1,0.1-0.1,0.1-0.3,0c-0.2-0.1,0.1-0.2-0.4,0c-0.5,0.1-0.4,0.2-0.8-0.1c-0.3-0.2-0.3,0.3-0.3-0.2c0-0.5,0.1-0.4,0.3-0.7
		c0.2-0.3,0.4-0.9,0.1-0.7c-0.3,0.1-0.4,0.2-0.4,0.3c-0.1,0.1-0.2,0.2-0.2,0.4c0,0.3,0.1,0.5-0.1,0.5c-0.2,0.1,0,0-0.6,0.1
		c-0.6,0.1-0.5,0.3-0.5,0.3l-0.8,0.5c0,0-0.7,0.1-0.8,0.1c-0.1,0-0.4-0.3-0.5,0.2c0,0.5-0.4,1.2-0.4,1.2s0.1,0.5,0,0.7
		c-0.1,0.2,0.1,0.6-0.2,0.3c-0.3-0.2-0.8-1.4-1.2-0.7C5,19.8,5.2,19.6,5,20c-0.2,0.4-0.1,0.2-0.2,0.6c-0.2,0.4-0.3,0.2-0.3,0.5
		c0,0.4,0,0.6,0,0.7v0.5c0,0,0,0,0.2,0c0.2,0,0.4,0.1,0.6,0.1c0.3,0,0.4,0.3,0.5-0.1c0.2-0.4,0.2-0.5,0.2-0.5c0-0.1,0.1-0.2,0.4-0.4
		c0.3-0.2,0.2-0.2,0.5-0.3c0.3-0.1,0.5-0.2,0.5-0.4c0-0.2-0.4-0.6,0.2-0.3c0.6,0.3,0.2,0.6,0.7,0.3c0.5-0.3,0.6-0.9,0.7-0.3
		c0.1,0.6,0.1,0.6,0.2,0.9c0,0.3,0.1,0.5,0.3,0.8c0.2,0.3-0.2,0,0.2,0.6c0.4,0.6,0.5,0.7,0.4,0.9C10,23.9,9.8,24,9.7,24
		c-0.2,0-0.4-0.2-0.6-0.1c-0.1,0.1-0.2,0.1,0.1,0.4c0.3,0.4,0.2,0.4,0.4,0.1c0.2-0.3,0.4-0.3,0.6-0.5c0.1-0.2,0.2-0.4,0.1-0.5
		c-0.1-0.1,0.1-0.3,0.1-0.3s0.1,0.1,0.2,0.2c0.1,0.1,0.4,0.1,0.2-0.1c-0.2-0.2-0.4-0.2-0.5-0.5s0.1-0.4-0.1-0.5
		c-0.2,0-0.4-0.7-0.3-0.8c0-0.2-0.4-0.4-0.2-0.6c0.2-0.3,0.6-1.1,0.6-0.5c0,0.6,0,0.5,0.2,0.9c0.2,0.5,0.2,0.5,0.4,0.7
		c0.1,0.2,0.5,0.5,0.5,0.6c0,0.1-0.1,0.4-0.1,0.5c-0.1,0.1-0.3,0.2-0.1,0.5c0.3,0.3-0.1,0.5,0.2,0.6c0.4,0.1,0.3,0.1,0.6,0.3
		l0.3,0.2c0,0,0.6,0.3,0.1-0.2c-0.6-0.6-0.5-0.5-0.4-0.7c0-0.2,0-0.5,0.1-0.5c0.1,0,0.3,0.1,0.3,0.2s0,0.4,0.1,0.2
		c0.1-0.3,0-0.3,0.3-0.3c0.3,0,0.5,0,0.5,0s0.2,0.1,0.3,0c0.1,0,0.2-0.1,0.2-0.1s0-0.1,0-0.3c0-0.1-0.2-0.3-0.1-0.5
		c0.1-0.2,0.3,0,0.3-0.4c0-0.3-0.1-0.3,0.2-0.5c0.3-0.2,0.4-0.4,0.5-0.5c0.1-0.1,0-0.5,0.3-0.3c0.3,0.2,0.9-0.1,0.6,0.2
		s-0.6,0.3-0.3,0.4c0.3,0.1,0.3,0.3,0.3,0.4c0,0.1,0,0.1,0.3-0.1c0.4-0.2,1-0.3,0.7-0.3c-0.3,0-0.3,0.2-0.4-0.1
		c-0.1-0.3-0.7-0.2-0.1-0.3c0.7-0.2,1.7-0.7,1.2-0.3c-0.4,0.4-0.6,0.7-0.5,0.9c0,0.2-0.2,0.3,0.3,0.4c0.4,0.2,0.5,0.2,0.6,0.4
		c0.1,0.2,0.5,0.1,0.5,0.4c0,0.3,0,0.3-0.1,0.5c-0.1,0.1-0.5,0.2-0.6,0.2c-0.1,0,0.3-0.1-0.3,0c-0.6,0.1-0.4,0.1-0.7,0
		c-0.3-0.1-0.2-0.2-0.7-0.2c-0.5,0-0.1-0.3-0.7,0c-0.6,0.3-1.2-0.1-1.1,0.1c0.1,0.2,0.2,0.3-0.1,0.3c-0.3,0-0.5-0.2-0.7,0
		c-0.2,0.2,0.3,0.1,0.1,0.4c-0.2,0.3-0.2,0.5-0.1,0.6c0.1,0.1-0.2,0.3,0,0.4c0.1,0.1,0.2,0.1,0.3,0.3c0.1,0.2,0.2,0.2,0.3,0.3
		l0.1,0.1c0,0,0.2,0.2,0.3-0.1c0.1-0.2,0.1-0.3,0.1-0.3s-0.3-0.6,0.1-0.1c0.4,0.5,0.4,0.5,0.5,0.6c0.1,0,0.4,0.1,0.4,0.1
		c0.1,0,0.2,0,0.2-0.2c0-0.1-0.1-0.3,0.1-0.4c0.2-0.1,0.4-0.2,0.5-0.2c0.1,0,0.5-0.2,0.3,0.4c-0.3,0.5-0.2,0.6-0.2,0.7
		c0,0.1,0,0.8-0.2,1.2c-0.2,0.4-0.2,0.4-0.4,0.5c-0.2,0.1-0.4,0-0.4,0.1c-0.1,0-0.4,0.1-0.4,0.1c-0.1,0-0.3,0-0.3,0
		s-0.4-0.1-0.6,0.1c0,0-0.1,0-0.1,0c0,0-0.1-0.1-0.4-0.2c-0.8-0.2-0.7-0.2-0.9-0.2c-0.2,0,0,0.2-0.3-0.1c-0.3-0.3-0.1,0.1-0.5-0.3
		c-0.4-0.4-0.4-0.5-0.7-0.4c-0.2,0.1-0.3,0.2-0.4,0.5c0,0.2,0.3,0.5-0.2,0.4c-0.5-0.1,0-0.2-0.6-0.4c-0.6-0.3-0.6-0.1-0.7-0.5
		c-0.1-0.3,0.2-0.2-0.3-0.5c-0.5-0.3-0.3,0.1-0.7-0.4c-0.3-0.5-0.5-0.6-0.3-0.8c0.3-0.2,0.4-0.4,0.3-0.8c-0.1-0.4,0.2-0.6-0.4-0.6
		c-0.6,0-0.3-0.3-0.7-0.2c-0.4,0,0.1-0.2-0.6-0.2c-0.6,0-0.2-0.2-0.7-0.1c-0.5,0-0.6,0-0.7,0c-0.1,0-0.2,0-0.3-0.2
		c-0.1-0.3-0.1-0.8-0.3-0.4C4.4,23,4.3,23,4,23.1c-0.3,0.1-0.3-0.4-0.5,0.3c-0.2,0.6-0.1,0.5-0.2,0.6c-0.1,0.2-0.2,0.2-0.5,0.3
		c-0.3,0.1-0.1-0.2-0.5,0.3c-0.3,0.5-0.9,0.5-0.9,1.6c0,1.1,0.2,1.8,0,2.6s0.1,2.5,0.8,3.6s0.3,2,1.1,2.2c0.8,0.2,1,0.8,1.5,0.8
		c0.6,0,0.9-0.3,1.4,0.5c0.4,0.9-0.2,0.6,1,1.4S7,37.8,8.8,40.6c1.8,2.8,0.7,2.2,1.8,3.3s2.4,2.5,3.9,3.3s3.9,1.4,3.9,1.4l0.8-0.3
		l0.6-0.2l-0.1,0l0.3,0.1h0.2c0,0,0.3,0.3,0.3,0c0-0.6-0.2-0.6-0.3-0.7c-0.1-0.1-0.4-0.5-0.4-0.5l-0.2-0.2l0.1-0.2c0,0,0,0,0.1,0
		c0.2-0.1,0.4-0.1,0.5-0.2s0,0,0.3-0.3c0.2-0.2,0.1-0.2,0.3-0.3c0.3,0,0.4,0.1,0.4,0c0-0.1,0.2-0.3,0.1-0.4
		c-0.1-0.1-0.2-0.3-0.3-0.5s-0.1-0.4-0.3-0.6c-0.2-0.3-0.2,0-0.5-0.5C20,43.3,20,43.3,20,43.3l-0.2-0.7c0,0,0.3-0.3,0.3-0.4
		c0-0.1,0.2-0.5,0.3-0.7s0.3-0.5,0.4-0.6c0.1-0.1,0.6-0.5,0.6-0.6c0-0.1,0.5-0.4,0.6-0.6c0.2-0.2,0.2-0.3,0.2-0.3s0.5-0.6,0.7-1.1
		c0.2-0.5,0.4-0.8,0.4-1.1v-0.8c0,0,0.2-0.2,0.1-0.3c0-0.1,0.4-0.1,0-0.1c-0.4,0-0.2-0.2-0.5,0c-0.4,0.2-0.2,0.1-0.3,0.2
		c-0.1,0.1,0.1,0.1-0.3,0.1c-0.4,0.1-0.5,0-0.6,0.1c-0.1,0.1,0.1,0-0.1,0.1c-0.2,0.1-0.3,0.1-0.4,0.1c-0.1,0-0.3,0-0.3,0
		s-0.2,0-0.4,0c-0.2,0-0.1,0-0.3-0.1c-0.1-0.1-0.3-0.1-0.3-0.1l-0.3-0.1l0.2-0.1l0.1-0.1c0,0-0.1,0.1-0.3-0.2
		c-0.2-0.2-0.2-0.3-0.2-0.3c0,0,0,0-0.3-0.1c-0.4-0.2-0.7-0.5-0.7-0.5s0,0.5-0.3-0.2c-0.4-0.7-0.8-1.4-0.8-1.4L17,33.3l-0.1-0.7
		l-0.4-0.9l-0.3-0.6c0,0-0.2-0.8-0.3-1c-0.1-0.1-0.2-0.1-0.4-0.4c-0.1-0.3-0.3-0.4-0.5-0.5c-0.1-0.1-0.4-0.3-0.4-0.4v-0.4l0.3-0.2
		l0.5,1c0,0,0.3,0.3,0.3,0.2c0-0.1,0-0.4,0.1-0.4c0-0.1,0.2-0.3,0.2-0.3l0.1,0.3c0,0,0,0.3,0,0.3c0,0.1,0.3,0.3,0.3,0.3l0.4,0.7
		c0,0,0,0,0.1,0.1c0.1,0.1,0.1,0.4,0.2,0.5c0,0.1,0.1,0.1,0.1,0.2s0.1,0.1,0.2,0.2c0.1,0.1,0.4,0.6,0.4,0.6l0.1,0.2l0,0.4
		c0,0,0.1,0.3,0.2,0.4c0.1,0.1,0.4,0.4,0.4,0.4s0.2,0,0.3,0.1c0.1,0.1,0.1,0.1,0.2,0.3c0.1,0.2-0.3,0.1,0.1,0.4
		c0.5,0.2,0.6,0.3,0.6,0.3l0.1,0.3c0,0,0.1-0.2,0.1,0.3c0,0.5,0,0.3,0,0.5c0.1,0.2,0.5,0.5,0.5,0.5l0.3-0.1c0,0,0.6-0.1,0.7-0.1
		c0.1-0.1-0.6,0.2,0.5-0.2l1.1-0.4L23,35l0.2-0.3l0.2-0.2v-0.2c0,0,0.1-0.1,0.3-0.2c0.2-0.2,0.3-0.2,0.5-0.3
		c0.2-0.1,0.3-0.1,0.3-0.1s0,0,0.2-0.1c0.2-0.1,0.5-0.1,0.5-0.1s-0.1,0,0-0.2c0.1-0.2,0.1-0.2,0.2-0.3c0.1-0.1,0.3,0,0.3-0.3
		c0-0.3-0.1-0.3,0-0.4c0.1-0.1,0.3,0,0.2-0.4c0-0.4-0.1,0,0.2-0.4c0.3-0.4,0.9-0.4,0.3-0.8c-0.7-0.4-0.2-0.1-0.8-0.4
		c-0.6-0.3-0.4,0.1-0.6-0.3c-0.3-0.4-0.2-0.9-0.4-0.5c-0.2,0.4-0.7,0.5-0.5,0.7c0.1,0.2,0.6,0.3-0.1,0.5c-0.6,0.1-0.7-0.2-0.8,0.3
		c-0.1,0.4-0.3,0.2-0.3-0.1c0-0.3-0.1,0-0.1-0.3c0-0.3-0.1-0.9-0.3-0.7c-0.1,0.2,0.1,0.8-0.1,0.6c-0.2-0.2-0.5-0.7-0.6-0.8
		c-0.1-0.1,0.2,0.1-0.4-0.5c-0.6-0.6-0.6-0.6-0.5-0.7c0.1-0.1,0-0.2,0.2-0.3l0.2-0.1c0,0,0.4-0.2,0.5,0c0.1,0.2,0.1,0.2,0.3,0.4
		c0.2,0.2,0.4,0.3,0.5,0.5c0.1,0.2-0.1,0.1,0.1,0.2c0.3,0,0.3,0,0.4,0c0.1,0.1,0.2,0.2,0.2,0.2l0.2,0.1c0,0,0.4,0,0.5-0.1
		c0.1,0,0.5-0.3,0.5-0.3s-0.2-0.1,0.1,0c0.3,0.1,0.3,0.3,0.3,0.3s-0.1,0.1,0.3,0.1c0.4,0,0.8,0,0.8,0s1.1-0.1,1.3-0.2
		c0.2-0.1,1.2-0.4,1.2-0.4l0.2-0.1c0,0-0.1-0.3,0.5,0.3c0.7,0.6,0.5,0.5,0.7,0.6c0.2,0.1,0.3,0.2,0.5,0.3c0.2,0.1-0.2,0,0.2,0.1
		c0.4,0.2,0.4,0.2,0.5,0.2c0.1,0,0.3,0.1,0.4,0.1c0.1,0,0.1-0.4,0-0.6c-0.1-0.2-0.1-0.7,0-0.5c0.1,0.2,0.2,0.7,0.2,0.9
		s0.1,0.4,0.2,0.6c0.1,0.1,0.7,0.6,0.8,0.7c0,0.1,0,0.4,0.6,0.9c0.6,0.5,0.2,0.2,0.6,0.7c0.4,0.4,0.2,0.2,0.4,0.4s0.3,0.4,0.4,0.5
		c0.1,0.1,0.2,0.3,0.3,0.3c0.1,0,0.3,0.1,0.4-0.1c0.1-0.2-0.1,0.2,0.1-0.2l0.2-0.4c0,0,0,0.1,0-0.2c0-0.3,0-0.1,0-0.3
		c0.1-0.2-0.1,0,0.1-0.2c0.1-0.2,0.2-0.1,0.1-0.3c-0.1-0.2-0.2-0.5-0.2-0.5s0,0.3,0-0.2c0-0.5,0.1-0.4,0-0.7
		c-0.2-0.3-0.3-0.4-0.3-0.4s0-0.1,0.1-0.3l0.1-0.1c0,0,0.3,0,0.3-0.4c0-0.4,0.3-0.1,0.4-0.6c0.1-0.4,0.3-0.7,0.4-1.1
		c0.1-0.4,0.2-0.3,0.3-0.6c0.1-0.3,0.1-0.4,0-0.6c-0.1-0.1,0.3-0.3,0.3-0.3c0,0,0.1-0.1,0.1-0.1s0.3,0,0.3-0.1
		c0.1-0.1,0-0.2,0.2-0.3c0.1,0,0.4,0.2,0.4-0.1s0-0.4,0-0.4s0.1,0.3,0.3,0.4c0.1,0.1,0.3,0.2,0.4,0.2c0.1,0,0.1-0.2,0.2-0.1
		c0.1,0.1,0.1,0.1,0.1,0.1c0,0,0.4,0.2,0.5,0.4c0.1,0.2,0.1,0.2,0.2,0.4c0,0.2,0.1,0.4,0.1,0.4c0,0,0.1,0.2,0.4-0.1
		c0.3-0.3,0.4-0.5,0.5-0.5c0.1,0,0-0.3,0.2-0.1c0.2,0.2,0.3,0.4,0.3,0.4l0.3,0.2c0,0-0.1-0.6,0.1,0.2c0.2,0.8,0.2,0.8,0.2,1
		c0.1,0.2,0.3,1.1,0.3,1.1c0,0-0.2,0.1,0.1,0c0.3-0.1,0.4-0.1,0.5,0.1c0.1,0.1,0.1,0.2,0.1,0.3c0,0.1,0.2,0.3,0.4,0.4
		s0.2,0.2,0.2,0.2s0,0.1,0.3,0.1c0.3,0,0.3,0,0.4-0.1c0.1,0,0.2,0,0.2,0c0,0,0.2-0.1,0.1-0.2C44.8,30.5,44.6,30.5,44.6,30.4"/>
	<path style="clip-path:url(#SVGID_00000045615598747029170800000001091249344144452743_);fill:#ED8200;" d="M15,26.2
		c0.1-0.1,0.4-0.1,0.4-0.1s0.2,0,0.1,0.2c-0.1,0.2,0,0.2-0.2,0.2c-0.2,0-0.3,0.1-0.3,0C14.9,26.4,15,26.2,15,26.2"/>
	<path style="clip-path:url(#SVGID_00000045615598747029170800000001091249344144452743_);fill:#ED8200;" d="M21.8,8
		c-0.2,0.1,0.1,0-0.3,0.2c-0.4,0.2-0.4,0.2-0.5,0.2c-0.1,0.1-0.1-0.4-0.3,0.3c-0.2,0.7-0.2,0.8-0.2,0.8L20.2,10c0,0-0.4,0,0,0.2
		c0.4,0.2,0.5,0.3,0.6,0.3c0.1,0,0.3,0.1,0.1-0.2c-0.2-0.3-0.4,0.2-0.2-0.4C20.9,9.1,21,8.9,21,8.9s0.6-0.5,0.7-0.5
		c0.1,0,0.4-0.1,0.3-0.2C22,8,21.9,7.9,21.8,8"/>
	<path style="clip-path:url(#SVGID_00000045615598747029170800000001091249344144452743_);fill:#ED8200;" d="M14.8,4.4
		c-0.5,0.7-0.1,0.6-1.1,1c-0.9,0.4-1.7,0.8-1.7,0.8s-0.7,0.1-1.2,0.4c-0.5,0.3-0.6,0.3-1.2,0.7C9.1,7.7,8.6,8.4,8.4,8.7
		C8.3,8.9,7.8,9.2,9,8.7c1.2-0.6,1.1-0.8,1.3-0.5c0.2,0.3,0.2,0.5,0.5,0.4c0.3-0.1,0.8-0.2,0.8-0.1c0.1,0.1,0.2,0.7,0.4,0.2
		C12.2,8,12.2,8,12.3,8c0.1,0,0.3,0,0.6-0.1c0.3-0.1-0.1,0,0.5-0.2c0.6-0.2,0.8-0.3,0.8-0.3S14,7.5,14.5,7.2
		c0.5-0.3,0.4-0.3,0.6-0.4c0.2-0.1,0.5-0.2,0.5-0.3c0.1,0,0.4-0.1,0.6-0.2s0.3,0,0.3,0s0.3-0.1,0.1-0.2c-0.2-0.1-0.2-0.4-0.2-0.5
		c0,0,0.1,0,0.2-0.1c0.1-0.1,0.3-0.2,0.2-0.3c0-0.1,0.2,0,0-0.2c-0.2-0.2,0-0.1-0.3-0.3c-0.3-0.3-0.3-0.3-0.4-0.3
		c0,0-0.3-0.1-0.3-0.1s-0.3-0.1-0.5-0.1c-0.2,0,0-0.2-0.3,0L14.8,4.4z"/>
	<path style="clip-path:url(#SVGID_00000045615598747029170800000001091249344144452743_);fill:#ED8200;" d="M17.1,7.4
		c-0.1,0-0.2-0.3-0.3,0.1c-0.1,0.4-0.1,0.5-0.3,0.9c-0.2,0.4-0.2,0.7,0.2,0.2c0.4-0.4,0.3-0.8,0.4-0.4c0.2,0.4,0.4,0.4,0.4,0
		c0-0.3-0.2-0.5-0.1-0.7C17.5,7.3,17.1,7.4,17.1,7.4"/>
	<path style="clip-path:url(#SVGID_00000045615598747029170800000001091249344144452743_);fill:#ED8200;" d="M17.9,7.2
		c-0.3,0.4-0.9,0.5-0.3,0.5c0.5,0,0.6,0.1,0.6-0.1C18.2,7.4,17.9,7.2,17.9,7.2"/>
	<path style="clip-path:url(#SVGID_00000045615598747029170800000001091249344144452743_);fill:#ED8200;" d="M23.1,6.1
		c-0.6,0-0.6,0.3-0.5,0.3c0.1,0.1,0,0,0.1,0.1c0.1,0,0.4,0,0.4,0V6.1z"/>
</g>
<polygon class="st2" points="23.6,6.3 23.7,6.4 23.9,6.2 23.9,6 23.6,6 "/>
<g>
	<defs>
		<rect id="SVGID_00000119112186646615634240000001573622811716988811_" width="50" height="50"/>
	</defs>
	<clipPath id="SVGID_00000166675422785601566600000004029964346328064413_">
		<use xlink:href="#SVGID_00000119112186646615634240000001573622811716988811_"  style="overflow:visible;"/>
	</clipPath>
	<path style="clip-path:url(#SVGID_00000166675422785601566600000004029964346328064413_);fill:#ED8200;" d="M26.6,3.9
		c-0.2,0.2-0.1,0.4-0.1,0.4s-0.9,0-0.3,0.2c0.6,0.3,0.4,0.5,0.6,0.3C27,4.6,27,4.7,27,4.4C27,4.2,26.6,3.9,26.6,3.9"/>
	<path style="clip-path:url(#SVGID_00000166675422785601566600000004029964346328064413_);fill:#ED8200;" d="M27,3.5
		c-0.3,0.1-0.2,0.3-0.1,0.4C27,4,27,4.2,27.1,4.1c0.1-0.1,0.2-0.2,0.2-0.3C27.3,3.8,27,3.5,27,3.5"/>
	<path style="clip-path:url(#SVGID_00000166675422785601566600000004029964346328064413_);fill:#ED8200;" d="M36.3,33.2
		c-0.1,0.2-0.2,0.4,0,0.7c0.2,0.3,0.1,0.3,0.2,0.4c0.1,0.2,0.3,0.1,0.6-0.2c0.3-0.3,0.7-0.4,0.1-0.7C36.6,33.1,36.4,33,36.3,33.2"/>
	<path style="clip-path:url(#SVGID_00000166675422785601566600000004029964346328064413_);fill:#ED8200;" d="M44.1,31.2
		c-0.5,0.1,0.1,0.2-0.5,0.1c-0.6-0.1-0.7-0.1-0.7-0.1s0.1-0.3-0.5,0c-0.5,0.3-1.6,0-0.3,0.5c1.3,0.5,1.1,0.3,1.4,0.6
		c0.3,0.3,0.6,0.5,0.6,0.5s0.2,0.1,0.6,0.2c0.3,0.1,0.4,0,0.7-0.1c0.2-0.1,0.3-0.2,0.3-0.5s0-0.4,0-0.5s0.7-0.1,0-0.2
		c-0.6-0.1-0.7,0-0.8-0.2c0-0.1,0-0.3-0.1-0.3C44.6,31.1,44.1,31.2,44.1,31.2"/>
	<path style="clip-path:url(#SVGID_00000166675422785601566600000004029964346328064413_);fill:#ED8200;" d="M46.9,25.3
		c-0.3,0.6,0,0.5-0.1,1c-0.1,0.6-0.4,1.7-0.4,1.7l-0.2,0.8l-0.1,0.3c0,0-0.4,0.2-0.1,0.6c0.2,0.4,0.3,0.6,0.4,0.7
		c0.1,0.1,0,0.5,0.4-0.2c0.4-0.7,0.4-0.3,0.4-0.9v-1.1c0,0,0.1-0.3,0.1-0.7c0.1-0.4,0.1-0.6,0.1-0.7c0-0.1-0.2-0.4-0.2-0.7
		c0-0.3,0.5-0.9,0.1-0.8C47,25.4,47,25.2,46.9,25.3"/>
	<path style="clip-path:url(#SVGID_00000166675422785601566600000004029964346328064413_);fill:#ED8200;" d="M48.8,28.1
		c-0.1,0.5-0.1,0.6-0.2,0.9c-0.1,0.3-0.1,0.4-0.2,0.6c-0.1,0.3-0.5,1-0.5,1s0.3-0.2-0.4,0.4c-0.7,0.6-0.8,0.7-0.9,0.9
		c-0.1,0.2-0.6,0.7-0.7,0.8c-0.1,0.2-0.7,0.7,0.1,0.2c0.8-0.6,0.7-0.5,0.9-0.7c0.2-0.2,0.7-0.7,0.7-0.7s0.1-0.3,0.4-0.6
		c0.3-0.2,0.5-0.3,0.5-0.5c0-0.1,0.1-0.6,0.2-0.9s0.2-0.7,0.2-0.7l0.2-0.9C49,28.1,48.9,27.8,48.8,28.1"/>
	<path style="clip-path:url(#SVGID_00000166675422785601566600000004029964346328064413_);fill:#ED8200;" d="M48.4,25.1
		c0,0.5,0,0.4-0.1,0.8c-0.1,0.2-0.1,0.4-0.2,0.5c0,0.1-0.1,0.2-0.1,0.3c0,0.1,0,0.6,0,0.8c0,0.2,0.1,0.2,0.1,0.7c0,0.5,0,0.5,0,0.7
		s0,0.5,0.1,0.1c0.1-0.4,0-0.2,0.1-0.5s0.2-0.2,0.3-0.6c0-0.4,0-0.5,0-0.6c0-0.2,0.1-0.3,0.1-0.6c0-0.3,0.3-0.8,0.1-0.6
		c-0.2,0.2-0.4,0-0.4,0.6c0,0.6,0,0.8,0,0.9c0,0.1-0.1,0-0.1,0s0-0.8,0-0.9c0-0.1,0.3-0.9,0.3-0.9S48.4,24.6,48.4,25.1"/>
	<path style="clip-path:url(#SVGID_00000166675422785601566600000004029964346328064413_);fill:#ED8200;" d="M43.8,22.1
		c-0.4,0.5-0.9,0.4-0.5,0.9c0.4,0.5,0.8,0.7,0.8,0.2C44.1,22.8,43.8,22.1,43.8,22.1"/>
	<path style="clip-path:url(#SVGID_00000166675422785601566600000004029964346328064413_);fill:#ED8200;" d="M45.8,19.9
		c-0.2,0.3-0.1,0.6-0.1,0.6s0.2,0.3,0.2,0.5c0,0.2,0.4,0.7,0.4,0.7l0.2,0.1c0,0,0.5,0.1,0.2-0.2c-0.3-0.3-0.3-0.5-0.4-0.6
		c0-0.1-0.1-0.2-0.1-0.4C46.2,20.3,45.8,19.9,45.8,19.9"/>
	<path style="clip-path:url(#SVGID_00000166675422785601566600000004029964346328064413_);fill:#ED8200;" d="M49.2,22.2
		c-0.2,0.8-0.3,1.4-0.3,1.4l0.1,0.6c0,0-0.1,0.4,0.1,0.2c0.2-0.2,0.3-0.7,0.3-0.7s0-0.2,0-0.6C49.5,22.8,49.2,22.2,49.2,22.2
		C49.2,22.2,49.2,21.9,49.2,22.2"/>
	<path style="clip-path:url(#SVGID_00000166675422785601566600000004029964346328064413_);fill:#ED8200;" d="M48.4,23.9
		c0,0.3,0.1,0.1,0.1,0.4c0,0.3-0.1,0.6-0.1,0.7c0,0,0-0.2,0-0.2v-0.3V23.9z"/>
	<path style="clip-path:url(#SVGID_00000166675422785601566600000004029964346328064413_);fill:#ED8200;" d="M49.1,25.2
		c-0.1,0.2-0.2,0.3-0.1,0.3c0,0,0,0,0.1,0c0.1,0,0.1-0.1,0.1-0.1c0,0,0-0.1,0-0.1C49.2,25.3,49.1,25.2,49.1,25.2"/>
	<path style="clip-path:url(#SVGID_00000166675422785601566600000004029964346328064413_);fill:#ED8200;" d="M47.7,22.6
		c0,0,0,0.2,0,0.3c0,0-0.1,0.2-0.1,0.2s-0.2-0.3-0.2,0.1c0,0.4,0,0.5,0,0.7s0,0.4,0,0.4l0,0.2c0,0,0.2-0.5,0.2-0.7
		c0-0.2,0-0.3,0-0.3s0.1-0.3,0.1-0.1c0,0.1-0.1,0.5,0.1,0.4c0.2-0.1,0.3-0.1,0.2-0.3c-0.1-0.2-0.1-0.2-0.1-0.3
		c0-0.1-0.2-0.1-0.1-0.2c0.1-0.2,0.1-0.2,0.1-0.2L47.7,22.6z"/>
	<path style="clip-path:url(#SVGID_00000166675422785601566600000004029964346328064413_);fill:#ED8200;" d="M46.7,22.1
		c-0.1,0.1-0.2,0.1-0.1,0.2c0.1,0.1,0.2,0.2,0.2,0.2s0.3,0,0.2-0.2C46.9,22.1,46.7,22.1,46.7,22.1"/>
	<path style="clip-path:url(#SVGID_00000166675422785601566600000004029964346328064413_);fill:#ED8200;" d="M47.1,21.4
		c-0.1,0.2,0,0,0.1,0.3c0.1,0.3,0,0.4,0,0.4c0,0,0-0.1,0-0.1v-0.3C47.2,21.6,47.1,21.2,47.1,21.4"/>
	<path style="clip-path:url(#SVGID_00000166675422785601566600000004029964346328064413_);fill:#ED8200;" d="M46.8,20.9
		c0,0.2-0.2,0.2,0,0.4c0.2,0.2,0.1,0,0.2-0.2C47.1,20.9,46.8,20.8,46.8,20.9"/>
	<path style="clip-path:url(#SVGID_00000166675422785601566600000004029964346328064413_);fill:#ED8200;" d="M47.3,22.2
		c-0.1,0.3-0.1,0.1-0.1,0.3c0,0.2,0,0.3,0,0.3s0.1,0,0.1-0.1c0-0.1,0-0.2,0.1-0.3c0-0.1,0.1,0,0-0.1C47.4,22.2,47.3,22.1,47.3,22.2"
		/>
	<path style="clip-path:url(#SVGID_00000166675422785601566600000004029964346328064413_);fill:#ED8200;" d="M44.3,17.8
		c0,0.4,0,0.4,0.1,0.6c0.1,0.3,0.2,0.4,0.3,0.5c0.1,0.1,0.2,0.2,0.2,0.2s0.1,0.1,0.1-0.2c0-0.2,0-0.4,0-0.4s0,0-0.1-0.2
		c-0.1-0.2-0.2-0.2-0.2-0.2s0,0-0.1-0.1C44.6,17.9,44.3,17.6,44.3,17.8"/>
	<path style="clip-path:url(#SVGID_00000166675422785601566600000004029964346328064413_);fill:#ED8200;" d="M39.3,7.4
		c0.2,0.3,0.4,0.4,0,0.4c-0.4,0-0.4-0.1,0.1,0.3c0.5,0.5,0.6,0.5,0.7,0.7c0.1,0.2,0.4,0.3,0.4,0.3s0-0.2,0.5,0.1
		c0.5,0.4,0.6,0.7,0.8,1.2c0.2,0.5,0.3,0.4,0.4,1c0.1,0.6,0.1,0.6,0.2,1c0.2,0.3-0.2,0.1,0.2,0.6c0.4,0.5,0.3,0.4,0.6,0.6
		c0.3,0.2,0.8,1,0.3,0.2c-0.5-0.8-0.5-0.7-0.5-0.8c0-0.1,0,0-0.1-0.2c-0.1-0.2-0.2-0.5-0.2-0.5s-0.4-0.9-0.2-0.7
		c0.3,0.2,0.6,0.2,0.3-0.1c-0.3-0.3-0.4-0.1-0.4-0.5c0-0.4,0.5,0.1-0.2-0.7c-0.7-0.8-0.6-0.8-0.9-1c-0.4-0.2-0.6-0.5-0.8-0.5
		c-0.2,0-0.9-0.4-0.6-0.5c0.3-0.1,0.2,0-0.3-0.6C39.4,7.2,39.1,7.1,39.3,7.4"/>
	<path style="clip-path:url(#SVGID_00000166675422785601566600000004029964346328064413_);fill:#ED8200;" d="M27.3,0.7
		C28,1,29,1.1,28,1c-1-0.1-1.4-0.1-1.4-0.1S26.2,0.8,26.2,1c0,0.2,0.4,0.2-0.1,0.2c-0.5,0.1,0.5-0.1-0.9,0.1
		c-1.4,0.2-0.2-0.1-2.2-0.1c-2.1,0-1.7,0.3-2.6,0.3c-0.8,0-1.2,0-1.3,0.1c-0.1,0.1-0.6,0.1,0,0.1c0.6,0,0.9,0,0.9,0L19.7,2
		c0,0-0.2,0-0.8,0.1c-0.6,0-1.1,0.3-1.1,0.3l-0.8,0.1c0,0,0,0,0.2-0.2c0.2-0.1,0.4-0.2,0.5-0.3c0.2-0.1-0.3,0-0.8,0.2
		c-0.5,0.1-0.5,0.2-0.8,0.4c-0.3,0.2-0.3,0.2-0.3,0.2L16,2.9c0,0-0.7,0-0.4,0.1C16,3,16.8,3,16.8,3l0.1,0.1c0,0-0.2,0.1-0.1,0.3
		c0.1,0.3,0.9-0.6,1-0.1c0.1,0.5,0.3,0.4-0.2,0.7c-0.5,0.3-0.2,0.5-0.7,0.4c-0.5-0.2-0.8-0.2-0.8-0.2S16,4,15.7,4
		c-0.3,0-0.4-0.2-0.3-0.3c0-0.1,0-0.4-0.1-0.1c-0.1,0.3-0.2,0-0.9,0.6c-0.7,0.6-1.1,0.6-1.8,1c-0.7,0.3-0.8,0.6-1.1,0.6
		c-0.3,0,0.2-0.5-0.2-0.3c-0.4,0.2-0.8,0.4-0.8,0.3c0-0.1,0.9-0.5,1.1-0.6c0.2-0.1,0.7-0.6,0.9-0.6c0.2,0,0.1,0.1,0.5-0.1
		c0.4-0.2,0.6-0.4,0.7-0.4c0,0,0.6-0.1,0.1-0.1c-0.5,0,0-0.4-0.5-0.1c-0.5,0.3-0.6,0.1,0.2-0.3c0.8-0.4,0.5-0.3,1.3-0.8
		c0.8-0.4,1.4-0.7,3.6-1.4c2.2-0.7,4.6-0.9,6-0.9C25.6,0.5,27.3,0.7,27.3,0.7"/>
	<path style="clip-path:url(#SVGID_00000166675422785601566600000004029964346328064413_);fill:#ED8200;" d="M26.5,1.9
		c0.6,0,0.8,0.1,0.6,0.2c-0.2,0.1-0.2,0.1-0.5,0C26.3,2.1,26.5,1.9,26.5,1.9"/>
	<path style="clip-path:url(#SVGID_00000166675422785601566600000004029964346328064413_);fill:#ED8200;" d="M26.4,1.2
		c0.5,0.1,1.1,0.3,0.6,0c-0.5-0.2-1.1-0.5-1.1-0.3C26,1.1,26.4,1.2,26.4,1.2"/>
	<path style="clip-path:url(#SVGID_00000166675422785601566600000004029964346328064413_);fill:#ED8200;" d="M15.9,3.1
		c0.3-0.4,0.3-0.4,0.6-0.4c0.3,0,0.7-0.2,0.4,0c-0.3,0.2-0.2,0.2-0.5,0.3C16.2,3.1,15.9,3.1,15.9,3.1"/>
	<path style="clip-path:url(#SVGID_00000166675422785601566600000004029964346328064413_);fill:#ED8200;" d="M17.4,2.8
		c0.4-0.1,1-0.4,0.4,0c-0.6,0.3-0.3,0.3-0.7,0.4c-0.5,0.2-0.5,0.2-0.5,0.2c0,0,0.1-0.2,0.1-0.2L17.4,2.8z"/>
	<path style="clip-path:url(#SVGID_00000166675422785601566600000004029964346328064413_);fill:#ED8200;" d="M6.9,9
		C7.9,8.1,8,8.1,8.4,7.6c0.3-0.5,0.5-0.7,0.5-0.7s0.3-0.4,0.4-0.5C9.4,6.4,9.5,6.2,9.7,6c0.2-0.2,0.8-0.5,1.1-0.7
		c0.3-0.2,1.3-0.8,0.6-0.5C10.7,5,9.8,5.3,8.6,6.4C7.5,7.5,7,8.2,6.7,8.6C6.4,8.9,6.9,9,6.9,9"/>
</g>
</svg>
