<?xml version="1.0" encoding="utf-8"?>
<!-- Generator: Adobe Illustrator 25.4.1, SVG Export Plug-In . SVG Version: 6.00 Build 0)  -->
<svg version="1.1" id="Layer_1" xmlns="http://www.w3.org/2000/svg" xmlns:xlink="http://www.w3.org/1999/xlink" x="0px" y="0px"
	 viewBox="0 0 50 50" style="enable-background:new 0 0 50 50;" xml:space="preserve">
<style type="text/css">
	.st0{clip-path:url(#SVGID_00000116929083554050293370000014497118316523636097_);fill:#F5F5F5;}
	.st1{clip-path:url(#SVGID_00000116929083554050293370000014497118316523636097_);fill:#ED8200;}
	.st2{fill:#ED8200;}
	.st3{clip-path:url(#SVGID_00000012444414735698583190000005307271391689715076_);fill:#ED8200;}
</style>
<g>
	<defs>
		<rect id="SVGID_1_" x="0.3" width="49.3" height="50"/>
	</defs>
	<clipPath id="SVGID_00000150069659634940257260000005899744795592954814_">
		<use xlink:href="#SVGID_1_"  style="overflow:visible;"/>
	</clipPath>
	<path style="clip-path:url(#SVGID_00000150069659634940257260000005899744795592954814_);fill:#F5F5F5;" d="M49.6,25
		c0-13.8-11-25-24.7-25S0.3,11.2,0.3,25s11,25,24.7,25S49.6,38.8,49.6,25"/>
	<path style="clip-path:url(#SVGID_00000150069659634940257260000005899744795592954814_);fill:#ED8200;" d="M27.2,47.2
		C27.2,47.1,27.2,47.1,27.2,47.2C27.2,47.1,27.2,47.1,27.2,47.2c-0.1-0.1-0.1-0.1-0.2-0.1c-0.3,0-0.5,0-0.6,0.1c-0.1,0-0.1,0-0.1,0
		c-0.1,0-0.1,0-0.2-0.1c-0.1,0-0.1,0-0.2,0c0,0,0,0.1,0,0.1c0,0,0,0.1,0,0.1c0,0,0,0.1,0,0.1c0,0,0,0,0,0c0,0,0,0-0.1,0
		c-0.1,0-0.1,0-0.1,0c0,0,0,0.1,0.1,0.1c0.2,0.1,0.3,0,0.4,0l0,0c0,0,0,0,0,0c0,0,0,0,0,0c-0.1,0.1-0.1,0.1-0.1,0.1c0,0,0,0,0,0
		c0,0,0.1,0,0.2,0c0.2,0,0.2-0.1,0.2-0.1c0,0,0.1,0,0.2,0c0.1,0,0.2,0,0.3,0c0.1,0,0.1,0,0.1,0c0,0,0-0.1-0.1-0.1
		c0,0-0.1-0.1-0.1-0.1C27.1,47.2,27.1,47.2,27.2,47.2"/>
	<path style="clip-path:url(#SVGID_00000150069659634940257260000005899744795592954814_);fill:#ED8200;" d="M18.6,16.9
		c-0.1,0.1-0.1,0.1-0.1,0.1c0,0,0,0,0,0c0,0,0.1,0,0.1,0c0,0,0.1,0,0.2,0c0.2,0,0.5,0,1,0c0.6,0,0.6,0,0.6,0c0,0,0-0.1-0.1-0.1
		c0,0-0.1,0-0.1-0.1c-0.1-0.1-0.1-0.1-0.2-0.1c-0.1,0-0.2-0.1-0.2-0.1c-0.1-0.1-0.1-0.1-0.1-0.1c0,0,0,0-0.1,0
		c-0.1,0-0.2-0.1-0.3-0.1c-0.1,0-0.2-0.1-0.3-0.1c-0.1,0-0.1,0-0.2,0c-0.1,0-0.1,0-0.3-0.2c0,0-0.1-0.1-0.1-0.1
		c-0.1-0.1-0.1-0.1-0.2-0.1c-0.1,0-0.1,0-0.3,0c-0.4,0-0.4-0.1-0.4-0.1c0,0,0,0,0,0l0.1,0L17,15.5l0,0l-0.6,0.1
		c-0.1,0-0.6,0.1-0.7,0.2l0,0c-0.1,0.1-0.1,0.1-0.3,0.2c-0.1,0-0.1,0-0.1,0.1c0,0.1,0.1,0.1,0.2,0.1l0,0c0.1,0,0.2,0,0.4-0.2
		c0.1-0.1,0.1-0.1,0.2-0.1c0,0,0.1,0,0.3,0c0.2,0,0.2-0.1,0.2-0.1c0,0,0,0,0.1,0c0.1,0,0.2,0,0.2,0.1c0,0,0,0,0,0
		c-0.1,0-0.1,0-0.1,0.1c0,0,0,0.1,0.2,0.1c0.1,0,0.1,0,0.2,0c0.1,0,0.1,0,0.1,0c0,0,0,0,0.1,0c0.1,0,0.1,0,0.2,0
		c0,0,0.1,0.1,0.2,0.1c0.1,0,0.1,0,0.1,0c0.1,0,0.1,0.1,0.4,0c0.1,0,0.2,0,0.2,0c0,0,0,0,0,0c0,0,0,0.1,0,0.1
		c0.1,0.2,0.1,0.2,0.5,0.3c0.1,0,0.1,0,0.1,0C18.8,16.8,18.7,16.9,18.6,16.9"/>
	<path style="clip-path:url(#SVGID_00000150069659634940257260000005899744795592954814_);fill:#ED8200;" d="M24.4,18
		C24.4,18,24.4,18,24.4,18C24.3,18,24.3,18,24.3,18c0,0-0.1,0-0.1,0c-0.1,0-0.2,0-0.2,0c0,0,0,0-0.1,0c-0.1,0-0.2,0.1-0.2,0.1
		c0,0,0,0.1,0,0.2c0,0.1,0.1,0.1,0.2,0.1c0.1,0,0.1,0,0.2,0c0,0,0.1,0.1,0.1,0.1c0.1,0,0.1,0.1,0.1,0.1c0,0,0,0,0,0c0,0,0,0,0-0.1
		c0,0,0-0.1,0-0.1c0,0,0.1,0,0.1,0c0.2-0.1,0.2-0.1,0.2-0.1l0,0l0,0c0,0,0,0-0.1,0C24.6,18.1,24.5,18.1,24.4,18"/>
	<path style="clip-path:url(#SVGID_00000150069659634940257260000005899744795592954814_);fill:#ED8200;" d="M18.7,15.1
		c0,0.1,0,0.1,0.1,0.1c0,0,0,0,0,0c0.1,0,0.1,0,0.1-0.1c0,0,0.1-0.1,0-0.2c0-0.2-0.1-0.4-0.2-0.5c0,0-0.1,0-0.1,0
		c-0.1,0-0.1,0-0.2,0c-0.1,0-0.1,0-0.2,0c0,0,0,0.1,0.1,0.3C18.7,15,18.7,15.1,18.7,15.1"/>
	<path style="clip-path:url(#SVGID_00000150069659634940257260000005899744795592954814_);fill:#ED8200;" d="M20.1,2.1L20.1,2.1
		C20.2,2.1,20.2,2.1,20.1,2.1c0.1,0,0.1,0,0.2,0c0,0,0.1,0,0.1,0c0,0,0-0.1,0-0.1l-0.1,0h0c0,0.3,0.1,0.3,0.1,0.3c0,0,0,0,0,0h0.3h0
		h0l0,0.1c0,0,0-0.1,0-0.2c0,0,0,0,0,0l0.3,0l-0.1,0.2l0,0c0,0,0.1,0,0.1,0c0,0,0.1,0,0.1,0c0.1-0.1,0-0.1,0-0.2l0.1,0L21.3,2
		c0,0,0,0,0-0.1c0,0,0-0.1,0-0.1c0,0-0.1,0-0.1,0l0,0c0,0,0,0,0,0c0,0-0.1-0.1-0.1-0.1c-0.2-0.1-0.3-0.1-0.4,0.1c-0.2,0-0.3,0-0.3,0
		C20.1,2,20.1,2,20.1,2.1C20.1,2,20.1,2.1,20.1,2.1"/>
	<polygon style="clip-path:url(#SVGID_00000150069659634940257260000005899744795592954814_);fill:#ED8200;" points="28.9,5.7 
		28.9,5.7 28.9,5.7 	"/>
	<path style="clip-path:url(#SVGID_00000150069659634940257260000005899744795592954814_);fill:#ED8200;" d="M30.1,2.6
		C30.1,2.6,30.1,2.6,30.1,2.6C30.1,2.6,30.1,2.6,30.1,2.6L30.1,2.6c0,0,0.1,0,0.2,0c0,0,0.1,0,0.2,0c0,0-0.1,0-0.2,0
		C30.2,2.6,30.1,2.6,30.1,2.6"/>
	<path style="clip-path:url(#SVGID_00000150069659634940257260000005899744795592954814_);fill:#ED8200;" d="M33,2
		c0,0,0.4,0,0.8,0.1c0.2,0,0.3,0,0.3,0.1c0.1,0,0.1,0,0.2,0c0,0,0.1,0,0.1,0l0,0l0,0c0,0-0.8-0.4-0.9-0.5c-0.2,0-0.5,0-0.5,0l0,0
		L33,2L33,2z"/>
	<path style="clip-path:url(#SVGID_00000150069659634940257260000005899744795592954814_);fill:#ED8200;" d="M38.2,4.5L38.2,4.5
		L38.2,4.5C38.2,4.5,38.2,4.5,38.2,4.5"/>
	<path style="clip-path:url(#SVGID_00000150069659634940257260000005899744795592954814_);fill:#ED8200;" d="M38.9,5.4L38.9,5.4
		c0.1,0,0.3,0,0.4,0c0,0,0,0,0,0c0-0.1,0.1-0.2,0-0.3c-0.1-0.1-0.3-0.2-0.6-0.4c-0.2-0.1-0.4-0.2-0.4-0.2c-0.1,0-0.1,0.1-0.1,0.1
		c0,0,0,0,0,0l0.2,0.5L38.9,5.4z"/>
	<path style="clip-path:url(#SVGID_00000150069659634940257260000005899744795592954814_);fill:#ED8200;" d="M42,18.4
		c-0.1-0.1-0.2,0-0.2,0l0,0l0,0c0,0.1,0,0.1,0,0.1c0,0,0,0.1,0.1,0.1c0,0,0.1,0,0.1,0c0,0,0.1,0,0.1,0C42,18.6,42.1,18.4,42,18.4"/>
	<path style="clip-path:url(#SVGID_00000150069659634940257260000005899744795592954814_);fill:#ED8200;" d="M42.4,18.6l-0.2-0.1
		l0,0c-0.1,0-0.1,0.1-0.1,0.1c0,0,0,0.1,0,0.1c0,0,0.1,0.1,0.1,0.1l0,0L42.4,18.6z"/>
	<path style="clip-path:url(#SVGID_00000150069659634940257260000005899744795592954814_);fill:#ED8200;" d="M42.5,18.6l0.1,0
		l-0.1-0.2l0,0c-0.1,0.1-0.1,0.1-0.1,0.1l0,0L42.5,18.6z"/>
	<path style="clip-path:url(#SVGID_00000150069659634940257260000005899744795592954814_);fill:#ED8200;" d="M42.6,18.6
		c-0.1,0.1-0.1,0.1-0.1,0.1v0l0.2,0.1l0.1-0.1L42.6,18.6L42.6,18.6z"/>
	<path style="clip-path:url(#SVGID_00000150069659634940257260000005899744795592954814_);fill:#ED8200;" d="M42.5,19
		C42.5,19,42.5,19,42.5,19C42.5,19,42.5,19,42.5,19c0,0.1,0,0.1,0,0.1c0,0,0,0,0,0.1c0,0,0,0,0.1,0.1c0,0,0,0,0,0c0,0,0,0,0.1,0
		l0.1-0.1L42.5,19L42.5,19z"/>
	<path style="clip-path:url(#SVGID_00000150069659634940257260000005899744795592954814_);fill:#ED8200;" d="M42.4,19.1L42.4,19.1
		L42.4,19.1c0,0-0.1,0-0.2,0l0,0l0,0c0,0.1,0.1,0.1,0.1,0.1c0,0,0,0,0.1,0c0,0,0.1,0,0.1,0l0,0l0,0C42.5,19.2,42.4,19.1,42.4,19.1"
		/>
</g>
<polygon class="st2" points="41.9,19.2 42.1,19.3 42.2,19.2 42,19 "/>
<g>
	<defs>
		<rect id="SVGID_00000125597374615351084830000012125091695941442961_" x="0.3" width="49.3" height="50"/>
	</defs>
	<clipPath id="SVGID_00000158737828931961775710000015715935698224667284_">
		<use xlink:href="#SVGID_00000125597374615351084830000012125091695941442961_"  style="overflow:visible;"/>
	</clipPath>
	<path style="clip-path:url(#SVGID_00000158737828931961775710000015715935698224667284_);fill:#ED8200;" d="M33,47.5
		c0-0.1,0-0.1-0.1-0.1c-0.2,0-0.4,0-0.4,0l0,0l0,0c0,0-0.1,0-0.1,0.1c0,0.1,0,0.1,0,0.1l0,0l0.2,0.1c0,0,0.2,0.1,0.3,0.1
		c0,0,0,0,0.1,0c0,0,0.1,0,0.1,0c0,0,0.1,0,0.1,0c0,0,0-0.1-0.1-0.1C33,47.6,33,47.6,33,47.5"/>
	<path style="clip-path:url(#SVGID_00000158737828931961775710000015715935698224667284_);fill:#ED8200;" d="M21.5,18.4
		C21.5,18.4,21.6,18.4,21.5,18.4C21.6,18.4,21.6,18.4,21.5,18.4c0.1,0,0.2-0.1,0.3-0.2c0-0.1,0.1-0.1,0.2-0.2c0.1,0,0.1,0,0.1,0
		c0.1,0,0.1,0.1,0.3,0c0.1,0,0.1,0,0.1-0.1c0,0,0,0,0,0c0,0,0,0,0,0c0,0,0.1,0.1,0.2,0.1c0.2,0.1,0.3,0.1,0.3,0.1
		c0,0,0.1-0.1,0.1-0.1c0,0,0-0.1,0-0.1c0,0,0-0.1,0-0.1c0-0.1-0.2-0.2-0.4-0.3c-0.1,0-0.2-0.1-0.3-0.1c0,0-0.1-0.1-0.1-0.1
		c-0.2-0.1-0.2-0.1-0.7-0.2c-0.3,0-0.3,0-0.4,0c0,0,0,0-0.1,0l0,0c-0.2-0.1-0.3-0.1-0.5,0c0,0-0.1,0-0.1,0c-0.1,0-0.1,0.1-0.1,0.1
		c0,0.1,0.2,0.1,0.3,0.1c0.1,0,0.1,0,0.1,0c0,0,0,0,0,0.1c0,0,0,0.1,0,0.1c0,0.1,0,0.1-0.1,0.1c0,0-0.1,0-0.1,0c0,0-0.1,0-0.1,0
		c-0.1,0-0.3,0.1-0.6,0.1c-0.1,0-0.2,0-0.2,0.1c0,0.1,0.1,0.1,0.2,0.2c0,0,0.3,0.1,0.7,0.1c0.2,0,0.2,0,0.3,0c0.1,0,0.1,0,0.3,0l0,0
		c0.1,0,0.1,0.1,0.1,0.1C21.6,18.3,21.6,18.3,21.5,18.4C21.5,18.3,21.5,18.4,21.5,18.4"/>
	<path style="clip-path:url(#SVGID_00000158737828931961775710000015715935698224667284_);fill:#ED8200;" d="M47.8,20.6
		C47.8,20.6,47.8,20.6,47.8,20.6C47.8,20.5,47.8,20.5,47.8,20.6c0-0.2-0.1-0.4-0.1-0.6c0,0,0,0,0-0.1c0.1,0.1,0.1,0.2,0.1,0.3l0,0.1
		c0,0.1,0,0.1,0,0.2C47.8,20.5,47.8,20.5,47.8,20.6 M49.2,21L49.2,21c0-0.2-0.1-0.4-0.1-0.5c-0.4-2.1-1-4.2-1.9-6.2
		c-0.5-1.1-1.1-2.2-1.8-3.3L45,10.6l0,0c-0.1,0-0.2-0.1-0.2-0.1c-0.2-0.1-0.3-0.2-0.5,0c-0.2,0.1-0.3,0.2-0.3,0.3
		c-0.1,0-0.1,0-0.2,0c0,0-0.1,0-0.1,0c0,0-0.1-0.1-0.1-0.2c0,0,0-0.1-0.1-0.1c0,0,0,0,0,0c0,0,0,0.1,0.1,0.1c0,0,0,0,0,0
		c0,0,0-0.1,0.1-0.2c0-0.1,0-0.2,0.1-0.3c0-0.1,0-0.1-0.1-0.2c-0.1-0.1-0.1-0.2-0.1-0.2c-0.1-0.1-0.1-0.2-0.2-0.3
		c0,0-0.1-0.1-0.1-0.1c-0.1-0.1-0.2-0.2-0.2-0.3c0-0.3,0-0.3,0-0.4c0-0.2-1.8-1.9-2.2-2.2l0,0h0c-0.2,0-0.4-0.1-0.5-0.2
		c-0.1,0-0.1-0.1-0.1,0c0,0,0,0,0.2,0.2C41,6.8,41,6.8,41.1,6.8l0.4,0.4c0.3,0.2,0.7,0.6,0.7,0.7c0,0,0,0,0,0c-0.1,0-0.2,0-0.4,0
		c-0.2,0-0.3-0.1-0.4,0c0,0,0,0,0,0.1c0,0.1,0.2,0.2,0.3,0.3c0.2,0.2,0.5,0.4,0.5,0.6c0,0.3,0.2,0.7,0.2,0.7c0,0,0.1,0.2,0.2,0.3
		c0,0,0.1,0.1,0.1,0.1c0.2,0.2,0.5,0.5,0.7,0.5c0,0,0,0.1,0,0.1c0,0.1,0.1,0.2,0.1,0.3c0,0.1,0.1,0.3,0.1,0.4c0,0.2,0,0.3-0.1,0.4
		l0,0.1c0,0.2,0.2,0.8,0.2,0.9l0,0.1l0.1,0c0,0,0.2,0.1,0.1,0.3c0,0.1-0.1,0.2-0.1,0.3c0,0.1,0,0.1-0.1,0.2c0,0,0,0,0,0
		c-0.1,0-0.1,0.1-0.2,0.2l0,0.1l0.1,0c0.3,0,0.7,0.1,0.8,0.1c0,0,0.1,0.1,0.3,0.3c0,0.1-0.1,0.2-0.1,0.3c0,0.1,0,0.1,0,0.1
		c0,0-0.1-0.1-0.1-0.1c-0.2-0.1-0.3-0.2-0.4-0.1c-0.1,0.1,0,0.2,0,0.3c0,0.1,0.1,0.2,0.2,0.3c0.1,0.2,0.1,0.2,0.1,0.2c0,0,0,0,0,0
		c0,0,0,0,0,0c-0.1,0-0.1,0-0.2,0c-0.1,0.1-0.1,0.1,0,0.3c0,0.1,0.1,0.3,0.2,0.4c0.1,0.1,0.1,0.3,0.1,0.3c-0.1,0-0.2,0-0.3,0
		c-0.2,0-0.4-0.1-0.6-0.1l-0.2,0l0.1,0.1c0.1,0.3,0.2,0.4,0.3,0.6c0,0,0,0,0,0.1c0,0.1,0,0.2,0.1,0.4C44,17.7,44,18,44,18.2l0,0
		c0,0.1,0,0.2,0.1,0.4c0,0,0,0.1,0,0.1c0,0.1,0,0.2,0,0.3c0,0,0,0.1-0.1,0.2c0,0.1,0,0.1,0.1,0.2c0,0,0.1,0.1,0.1,0.2
		c0.1,0.1,0.1,0.2,0.2,0.2c0,0,0,0,0,0c0,0,0,0,0,0.1c-0.1,0.3,0,0.5,0.2,0.7c0.1,0.1,0.1,0.1,0.2,0.1c0,0,0,0,0,0.1
		c0,0.1,0.1,0.3,0.2,0.4c0,0,0.1,0.1,0.1,0.1l0,0c0,0,0,0,0,0c0.3,0.3,0.3,0.4,0.3,0.5c0,0.3,0.2,0.8,0.6,1.3l0,0
		c0.2,0.2,0.3,0.4,0.4,0.6c0.1,0.2,0.2,0.4,0.4,0.4c0,0,0,0,0,0c0.1,0,0.2-0.1,0.2-0.1c0.2-0.2,0.4-0.3,0.5-0.4c0.1,0,0.1,0,0.1-0.1
		c0,0,0.1-0.1,0.1-0.1c0,0,0-0.1,0.1-0.1c0.1,0,0.2,0,0.3-0.1c0.1-0.1,0-0.1,0-0.2c0-0.1,0.1-0.2,0.1-0.3l0,0c0,0,0,0,0,0
		c0,0,0,0.1,0,0.2c0,0.1,0,0.2,0,0.3c0,0.1,0,0.2,0.1,0.2c0,0,0.1,0,0.1,0c0,0,0,0,0.1,0c0,0,0.1,0,0.1,0c0,0,0,0.1,0,0.2l0,0.2h0.1
		c0,0,0.1,0,0.1-0.2l0,0c0,0,0,0,0,0C49,23.7,49.1,22.9,49.2,21L49.2,21z"/>
	<path style="clip-path:url(#SVGID_00000158737828931961775710000015715935698224667284_);fill:#ED8200;" d="M36.1,31.6
		C36.1,31.6,36.1,31.6,36.1,31.6c0,0-0.1,0-0.1,0.1C36,31.6,36.1,31.6,36.1,31.6c0-0.1,0-0.1,0-0.1C36.1,31.5,36.1,31.6,36.1,31.6
		 M29.7,38.9C29.7,38.9,29.7,38.9,29.7,38.9C29.7,38.9,29.7,38.9,29.7,38.9 M27.6,27.6c0,0,0,0.1,0,0.1c0,0,0,0,0,0
		c0,0-0.1-0.1-0.1-0.1c0,0,0,0,0,0c0,0,0,0,0,0C27.4,27.5,27.5,27.6,27.6,27.6C27.6,27.6,27.6,27.6,27.6,27.6 M22.6,34.6
		C22.6,34.6,22.6,34.6,22.6,34.6C22.6,34.6,22.5,34.6,22.6,34.6c-0.1-0.1,0-0.1-0.1-0.2c0,0,0,0,0,0l0.1-0.1c0,0,0,0,0,0l0,0
		c0,0,0,0.1,0.1,0.1L22.6,34.6z M22.3,34.6L22.3,34.6L22.3,34.6C22.3,34.6,22.3,34.6,22.3,34.6C22.3,34.6,22.3,34.6,22.3,34.6
		 M21.5,22.4L21.5,22.4c-0.1,0-0.1,0-0.1,0c0,0,0-0.1-0.1-0.1c0,0,0-0.1-0.1-0.1c0,0,0,0,0,0c0,0,0.1-0.1,0.1-0.1l0,0
		c0,0,0.1,0,0.1-0.1c0,0,0,0,0,0C21.5,22.1,21.6,22.2,21.5,22.4C21.6,22.4,21.6,22.4,21.5,22.4C21.6,22.4,21.6,22.4,21.5,22.4
		 M14.7,21.1C14.7,21.1,14.6,21.1,14.7,21.1C14.6,21.1,14.6,21.1,14.7,21.1C14.7,21.1,14.7,21.1,14.7,21.1
		C14.7,21.1,14.7,21.1,14.7,21.1 M15.2,4.3C15.2,4.3,15.2,4.3,15.2,4.3C15.2,4.3,15.2,4.3,15.2,4.3L15.2,4.3c0.1,0,0.1,0.1,0,0.2
		c0,0,0,0,0,0C15.2,4.5,15.2,4.4,15.2,4.3C15.2,4.4,15.2,4.3,15.2,4.3 M15.3,3.4c0-0.1,0-0.1,0-0.1c0,0,0,0,0,0L15.3,3.4
		C15.4,3.4,15.3,3.4,15.3,3.4C15.3,3.4,15.3,3.4,15.3,3.4 M16.6,5.9l0.8-0.2c0.1,0,0.2-0.1,0.3-0.1c0,0,0,0,0,0
		c0.1,0.1,0.1,0.2,0.1,0.2c0,0,0,0,0.1,0.1c0,0.1,0.1,0.2,0.1,0.2c0,0,0,0,0,0c0,0,0,0,0,0C17.8,6.1,17.7,6,17.6,6
		c-0.1,0-0.3,0.1-0.3,0.1c0,0,0,0-0.1,0c0,0,0,0-0.1,0c0,0,0,0,0,0C17.1,6,17,6,16.9,6c-0.3,0-0.5,0.1-0.6,0.1l-0.3,0l0,0
		c0,0,0,0-0.1,0L16.6,5.9z M17.2,5.1c0,0,0,0.1,0.1,0.1c0,0-0.1,0-0.1,0c0,0,0,0,0,0C17.1,5.2,17.1,5.1,17.2,5.1 M17.7,2.6l0.1-0.1
		c0.1,0,0.1-0.1,0.2-0.1c0.2-0.1,0.2-0.1,0.5-0.2c0.2,0,0.3-0.1,0.4-0.1C19,2,19,2,19.1,2c0.1,0,0.3,0,0.4,0c0.2,0,0.3,0.1,0.4-0.1
		c0-0.1,0.1-0.1,0.2-0.1c0.1,0,0.1-0.1,0.2-0.1c0.2-0.1,0.2-0.1,0.2-0.2l0,0c0,0,0.1,0,0.1,0c0.1,0,0.2,0,0.3,0c0.1,0,0.1,0,0.2-0.1
		c0.1,0,0.3-0.1,0.4-0.1c0.1,0,0.2-0.1,0.2-0.2c0-0.1,0-0.1-0.1-0.2c0,0,0,0,0,0c0.1,0,0.2,0.1,0.2,0.1c0.2,0.1,0.3,0.1,0.4,0.1
		c0,0,0.1,0,0.1,0c0,0,0,0,0,0c-0.1,0-0.1,0.1-0.1,0.1c0,0,0,0.1,0.1,0.1c-0.2,0-0.4,0.1-0.5,0.1c-0.1,0-0.1,0.1-0.1,0.2
		c0,0.1,0.3,0.2,0.5,0.2c0.1,0,0.2,0,0.3,0c0.1,0,0.2,0,0.3,0c0.1,0,0.1,0,0.1,0c0,0,0.1,0.1,0.2,0.1c0.1,0,0.1,0.1,0.1,0.1
		c0.1,0,0.1,0.1,0.2,0c0,0,0.1,0,0.1,0c0,0-0.1,0-0.1,0.1c0,0-0.1,0.1-0.1,0.1c0,0,0,0,0,0c0,0,0,0,0,0c0-0.1-0.1-0.2-0.2-0.2
		C23.1,2,23,2,22.9,2c-0.1-0.1-0.2-0.1-0.3-0.1c0,0,0,0-0.1,0c-0.2,0-0.3,0-0.4,0c-0.1,0-0.2,0-0.3,0c-0.1,0-0.2,0-0.3,0.1
		c0,0.1,0,0.1,0,0.2c0,0,0,0,0,0c0,0-0.1,0.1-0.1,0.1c0,0.1,0,0.2,0,0.2c0,0,0,0,0,0c0,0-0.2,0-0.3,0.1c-0.1,0-0.2,0-0.2,0.1
		c0,0.1,0.1,0.1,0.2,0.2c0.1,0,0.2,0.1,0.3,0.2c0.1,0,0.1,0.1,0.1,0.1c0,0,0,0,0,0c-0.1,0-0.1,0.1-0.2,0.2c-0.1,0.1-0.3,0.2-0.6,0.2
		l-0.1,0c-0.2,0-0.3,0-0.4,0.1c0,0.1,0.1,0.2,0.2,0.2c0,0.1,0,0.2-0.1,0.3l-0.1,0.5c-0.1,0.1-0.2,0.2-0.2,0.2H20
		c0,0-0.1-0.1-0.1-0.2l0,0c0-0.1-0.1-0.2-0.2-0.4c0-0.1,0-0.2,0-0.3c0-0.1,0.1-0.2,0.2-0.3c0,0,0.1-0.1,0-0.2c-0.1-0.1-0.2,0-0.3,0
		c0,0-0.1,0-0.1,0c-0.1,0-0.2,0-0.3,0l-0.1,0c-0.1,0-0.1,0-0.2-0.1c0,0-0.1-0.1-0.2-0.1c-0.1-0.1-0.2-0.1-0.3-0.1
		c-0.1,0-0.1,0-0.2-0.1c-0.2-0.2-0.5-0.1-0.7,0c0,0,0,0,0,0c0,0,0-0.1,0-0.1c0-0.2,0-0.2-0.1-0.3C17.5,2.7,17.6,2.6,17.7,2.6
		 M22,4.9c0,0,0,0.1,0,0.1c0,0,0-0.1-0.1-0.1L22,4.9L22,4.9C22,4.8,22,4.8,22,4.9C22,4.8,22,4.9,22,4.9 M20.4,7.2c0,0-0.2,0-0.3,0
		L20.5,7l0,0C20.5,7.1,20.4,7.2,20.4,7.2 M18.8,6.7C18.7,6.8,18.6,7,18.6,7c0,0.1-0.1,0.2-0.1,0.2c0,0,0,0-0.1,0
		c0-0.2,0-0.2-0.1-0.3c0,0,0,0,0,0c0,0,0-0.1,0-0.1c0-0.1,0-0.2,0-0.3c0,0-0.1-0.1-0.1-0.1c0,0,0.1,0,0.2,0c0.2,0,0.4,0,0.5-0.1
		c0.1,0,0.1,0,0.2,0c0.1,0.1,0.2,0.1,0.2,0.1c0,0,0,0,0,0c0,0,0,0.1,0,0.1C19.1,6.6,18.9,6.6,18.8,6.7 M18.4,7.9
		c-0.1,0.1-0.2,0.1-0.2,0.1c0,0,0,0,0,0l0,0c0,0-0.1-0.1,0-0.2c0,0,0,0,0,0c0,0,0,0,0.1,0.1c0,0,0.1,0,0.1,0c0,0,0.2,0,0.3,0h0
		C18.6,7.7,18.5,7.8,18.4,7.9 M17.3,6.7c-0.1,0-0.4,0.1-0.4,0.4c0,0.1,0,0.2,0,0.2c0,0.1,0,0.1,0,0.1c-0.1,0.1-0.2,0.3-0.2,0.3
		c0,0,0,0-0.1,0c0-0.1,0-0.4,0.1-0.6l0.2-0.4l0.4-0.2c0.1,0,0.2-0.1,0.3-0.1l0.1,0C17.5,6.6,17.3,6.7,17.3,6.7 M27,0.8
		c0,0,0,0,0.1,0c0,0,0,0,0.1,0C27.2,0.8,27.2,0.8,27,0.8C27.1,0.8,27.1,0.8,27,0.8C27,0.8,27,0.8,27,0.8 M29.9,2.4
		C29.9,2.4,30,2.4,29.9,2.4C30,2.4,29.9,2.4,29.9,2.4c-0.1,0-0.2-0.1-0.3-0.1C29.7,2.3,29.8,2.4,29.9,2.4 M27.4,3.9
		C27.4,3.9,27.4,3.9,27.4,3.9L27.4,3.9L27.4,3.9z M39.7,29.5c0-0.4-0.4-0.4-0.6-0.4l0,0c-0.3,0-0.3,0-0.7-0.4
		c-0.5-0.4-0.8-0.5-1.1-0.5c0,0-0.1,0-0.1,0c-0.1,0-0.3,0-0.4,0c0-0.1-0.1-0.1-0.1-0.1c-0.1,0-0.2,0-0.2,0.1c0,0-0.1,0-0.1-0.1
		c0,0-0.1-0.1-0.2-0.1c-0.3-0.1-0.4-0.1-0.5,0c0,0,0,0.1-0.1,0.1c0,0-0.1,0.1-0.1,0.1c0,0,0-0.1,0-0.1c0.1-0.2,0-0.3-0.1-0.4l0,0
		c-0.1-0.1-0.3-0.1-0.4-0.1c0,0,0-0.1-0.1-0.2c-0.1-0.1-0.2-0.1-0.3-0.1c-0.1,0-0.3-0.1-0.4-0.1c-0.3-0.1-0.4-0.1-0.6,0
		c0-0.1,0-0.1,0-0.2c0-0.1-0.1,0-0.2,0c0,0-0.1,0-0.1,0c-0.1,0-0.3-0.1-0.5-0.2c0,0-0.1-0.1-0.1-0.1c0,0,0,0-0.1,0c0,0,0,0,0,0
		c0.1-0.2,0.2-0.3,0.2-0.4c0-0.1,0-0.1-0.1-0.1c-0.1,0-0.1,0-0.2,0c0,0,0,0,0,0c0,0-0.1-0.1-0.3-0.4c0-0.1-0.1-0.2-0.1-0.2
		c-0.1-0.2-0.1-0.5-0.4-0.5c0,0-0.1,0-0.1,0c0,0-0.1,0-0.1,0c0,0,0,0,0-0.1c0,0,0-0.1-0.1-0.1c0,0-0.1-0.1-0.1-0.1l0,0
		c0,0,0-0.1-0.1-0.1c-0.1-0.2-0.2-0.2-0.3-0.2c0,0,0,0-0.1,0c-0.1,0-0.1,0-0.2-0.1l0,0l-0.1,0c-0.1,0-0.1-0.1-0.2-0.1
		c-0.1-0.1-0.3-0.1-0.4-0.1c0,0,0,0-0.1,0c-0.1,0-0.4,0-0.5,0.1c0,0,0,0,0,0c0,0,0,0,0,0c-0.1,0-0.2-0.1-0.4-0.1c-0.1,0-0.2,0-0.2,0
		c0,0,0,0,0,0c0,0,0-0.1-0.1-0.1c-0.1-0.2-0.4-0.3-0.7-0.3c0,0,0-0.1,0-0.1c0-0.1,0-0.2-0.1-0.2c0,0,0,0-0.1-0.1
		C28,23.1,27.9,23,27.8,23c0,0-0.1,0-0.1,0c0,0-0.1,0-0.1-0.1c-0.1-0.1-0.2-0.1-0.3-0.1c0,0,0,0,0-0.1c0,0,0-0.1,0-0.1l0-0.1
		c-0.1-0.2-0.3-0.3-0.4-0.3l-0.1,0c0,0,0,0-0.1,0l-0.1,0c-0.1,0-0.3-0.1-0.4-0.1c0,0,0-0.1,0-0.1c0-0.1,0-0.1-0.1-0.2
		c-0.1-0.2-0.2-0.1-0.3-0.1c-0.1,0-0.2,0-0.3,0c-0.3,0-0.4,0-0.4,0c0,0,0,0.1,0,0.1c0,0,0,0,0,0c0,0,0,0,0,0c0,0-0.1,0-0.1,0.1l0,0
		c-0.1,0.1-0.1,0.1-0.3,0l-0.1,0c-0.1,0-0.3-0.2-0.4-0.3c0,0-0.1-0.1-0.1-0.1c-0.1-0.1-0.3,0-0.3,0c0,0-0.1,0-0.1,0.1
		c-0.1,0.1-0.2,0.1-0.4,0c0,0,0,0,0,0c0,0,0,0,0,0c0,0,0-0.1,0-0.2c0-0.3-0.2-0.3-0.6-0.4l-0.2,0c-0.3,0-0.4,0-0.6,0.1
		c0,0-0.1,0.1-0.2,0.1c-0.1,0-0.1,0-0.1,0c-0.1,0-0.1,0-0.1,0c0,0,0,0,0,0c0,0,0,0-0.1-0.1c0,0,0.1,0,0.1,0c0.2-0.1,0.2-0.1,0.2-0.2
		c0,0,0-0.1,0-0.1c0-0.1,0-0.2,0-0.2c-0.1-0.1-0.3-0.1-0.5,0c-0.1,0-0.2,0.1-0.2,0.2c-0.1,0-0.1,0-0.2,0c-0.1,0-0.1,0.1-0.1,0.2
		c0,0,0,0.1,0,0.1c0,0-0.1,0-0.1,0c-0.1-0.1-0.3-0.1-0.4,0c0,0,0,0,0,0.1c0,0,0,0,0,0c-0.1,0-0.2,0-0.3,0c0,0-0.1,0-0.1,0.1
		c-0.3,0.1-0.3,0.5-0.3,0.8c-0.1,0-0.2,0-0.3,0.2c0,0.1-0.1,0.1-0.1,0.1c-0.1,0-0.2,0.1-0.2,0.2c0,0-0.1-0.1-0.1-0.1
		c-0.1-0.1-0.1-0.1-0.1-0.1c-0.1,0-0.1-0.1-0.2-0.2c-0.2-0.2-0.5-0.2-0.8-0.1c-0.1,0-0.2,0-0.2,0c-0.2,0-0.3,0.1-0.5,0.1
		c-0.1,0-0.1,0.1-0.2,0.1c-0.1,0-0.1,0-0.2-0.1l0,0c0,0-0.1-0.2-0.2-0.1c0,0,0,0,0,0c0,0,0,0,0-0.1C16.1,22,16,22,16,22l0,0
		c0,0,0,0,0,0c-0.1,0-0.1-0.1-0.1-0.1l0-0.1c0-0.1-0.1-0.1-0.1-0.2c0-0.2-0.1-0.2-0.1-0.2c0,0-0.1-0.1-0.1-0.2c0,0,0,0,0,0
		c0,0,0,0,0,0l0,0c0,0,0.1-0.1,0.1-0.1c0-0.1,0-0.1,0-0.1c0,0,0,0,0-0.1c0,0,0,0,0,0c0,0,0.1,0,0.1-0.1c0.2-0.1,0.1-0.3,0.1-0.4
		c0,0,0-0.1,0-0.1c0,0,0-0.1,0-0.1c0,0,0-0.1,0.1-0.1c0-0.1,0.1-0.1,0.1-0.2c0,0,0-0.1,0.1-0.1c0.1-0.1,0.1-0.2,0-0.3
		c0,0,0,0-0.1-0.1c0,0,0,0,0,0c0,0,0.1-0.1,0.1-0.2c0-0.1-0.1-0.1-0.2-0.1c0,0-0.1,0-0.2-0.1L15.6,19c-0.1-0.1-0.2-0.1-0.3-0.1
		c0,0-0.1,0-0.1,0c-0.1-0.1-0.2-0.1-0.3,0c0,0-0.1,0-0.1,0c-0.1-0.1-0.2,0-0.3,0c0,0-0.1,0-0.1,0.1c-0.1,0-0.3,0-0.5-0.1
		c-0.1,0-0.2,0-0.3,0c0,0-0.1-0.1-0.2,0c0,0,0,0,0,0c0,0,0.1-0.1,0.1-0.1c0.2-0.1,0.2-0.3,0.2-0.5c0,0,0-0.1,0-0.1
		c0-0.1,0-0.1,0.1-0.1c0,0,0,0,0.1,0c0.1,0,0.1-0.1,0.1-0.2c0,0,0-0.1,0.1-0.3c0.2-0.3,0.2-0.3,0.2-0.4c0-0.1,0-0.2,0.1-0.2
		c0,0,0.1-0.1,0.1-0.2c0.1-0.1,0.2-0.2,0.2-0.3c0,0,0.1-0.2,0.1-0.3c-0.1-0.1-0.2-0.1-0.3-0.1c-0.1,0-0.2,0-0.2,0c0,0,0,0-0.1,0
		c-0.1-0.1-0.4-0.1-0.7,0c-0.1,0-0.1,0-0.2,0c-0.3,0-0.4,0.2-0.5,0.5c-0.1,0.3-0.2,0.5-0.3,0.6c-0.1,0.1-0.1,0.1-0.5,0.2
		c-0.2,0-0.3,0-0.3,0.1l0,0c0,0,0,0,0,0c-0.2,0-0.2,0-0.4,0.1l-0.1,0.1c-0.1,0-0.1,0-0.1,0c0,0,0-0.1-0.1-0.1c0,0,0-0.1,0-0.1
		c-0.1-0.1-0.2-0.1-0.3-0.1c-0.1,0-0.1,0-0.1,0c-0.1-0.1,0-0.1,0-0.2c0,0,0-0.1,0-0.1c0-0.1-0.1-0.2-0.1-0.2c0-0.1-0.1-0.1-0.1-0.2
		c0-0.1,0-0.2,0-0.3c0-0.1,0-0.2,0-0.5c0-0.3,0-0.3,0.1-0.4c0-0.1,0.1-0.1,0.1-0.2c0.1-0.2,0.1-0.3,0.1-0.4c0,0,0,0,0-0.1
		c0.1-0.1,0.1-0.1,0.1-0.2c0-0.1,0-0.2,0-0.3l0-0.1c0,0,0,0,0-0.1c0,0,0,0,0-0.1c0.1-0.1,0.1-0.2,0.1-0.3c0-0.1,0-0.1,0.1-0.1
		l0.1-0.1c0,0,0.1-0.1,0.1-0.1c0,0,0.1-0.1,0.1-0.1c0,0,0.1,0,0.1,0c0.1,0,0.2,0,0.2-0.1l0,0c0,0,0.1,0,0.1,0c0.1,0,0.2,0,0.2-0.2
		c0,0,0,0,0,0c0,0,0-0.1,0-0.1c0,0,0,0,0,0c0.1,0,0.2,0,0.3,0c0.1,0,0.1,0,0.1-0.1c0,0,0,0,0,0c0,0,0.1,0,0.1,0.1
		c0.2,0.1,0.2,0.1,0.3,0c0,0,0,0,0.1,0c0,0.1,0.1,0.1,0.1,0.1l0,0c0.1,0,0.1,0,0.2,0.1c0.2,0.1,0.3,0,0.3-0.1c0,0,0,0,0,0
		c0.1,0.1,0.2,0,0.2,0c0.1-0.1,0-0.3-0.1-0.4c0,0,0,0,0,0c0,0,0-0.1,0.1-0.1c0,0,0.1,0,0.1,0c0.1,0,0.2,0,0.2,0c0,0,0,0,0.1,0.1
		c0.1,0,0.1,0,0.2,0c0,0,0.1,0,0.2-0.1c0.1,0,0.1,0,0.2,0c0,0,0,0,0.2,0.1c0.1,0,0.1,0,0.1,0c0,0.2,0.1,0.2,0.2,0.3
		c0.2,0.1,0.3,0,0.4-0.1c0,0,0,0,0.1,0c0.1,0,0.1,0,0.2,0.1c0,0,0,0,0,0.1c0.1,0.1,0.1,0.1,0.2,0.2c0.1,0,0.1,0,0.1,0.1
		c0,0.1,0,0.1,0,0.1c0,0-0.1,0.1-0.1,0.2c0,0.1,0,0.4,0.1,0.5c0,0,0,0,0.1,0c0,0,0,0.1,0,0.1c0,0,0,0.1,0.1,0.1
		c0.2,0.3,0.3,0.4,0.4,0.4c0.1,0,0.3,0.1,0.5-0.1c0.2-0.3,0.2-0.7,0.1-0.9c0-0.1,0-0.1,0-0.1c0,0,0-0.1,0-0.1c0-0.1,0-0.2-0.1-0.3
		c0,0,0-0.1-0.1-0.1c-0.1-0.2-0.1-0.3-0.1-0.4l0-0.1c0-0.1,0-0.1,0-0.1c0,0,0,0,0,0c0,0,0,0,0-0.1c0-0.1,0.1-0.1,0.1-0.2
		c0.1-0.1,0.1-0.2,0.2-0.3c0.1-0.1,0.1-0.1,0.2-0.1c0.1,0,0.1-0.1,0.3-0.2c0.2-0.1,0.3-0.2,0.4-0.3c0,0,0.1-0.1,0.1-0.1
		c0.1-0.1,0.2-0.1,0.2-0.1c0.1,0,0.2,0,0.2-0.1c0,0,0,0,0.1,0c0,0,0.1,0,0.2-0.1c0.2-0.1,0.2-0.1,0.3-0.1c0,0,0.1,0,0.1-0.1
		c0.2-0.1,0.3-0.2,0.3-0.3c0,0,0-0.1,0-0.1c0,0,0.1,0,0.1,0c0.1,0,0.2,0,0.2-0.1c0-0.1-0.1-0.1-0.2-0.2c0,0-0.1,0-0.1-0.1
		c0,0,0,0,0-0.2c0,0,0-0.1,0-0.1c0-0.1,0-0.1,0-0.2c0,0,0,0,0,0c0,0,0,0,0.1,0c0.1,0,0.1,0.1,0.2,0c0.1,0,0.1-0.1,0.1-0.1l0,0
		c0,0,0-0.1,0-0.1c0,0,0,0,0-0.1c0,0,0,0,0,0c0,0,0.1,0.1,0.2,0c0.1,0,0.1-0.1,0.1-0.1c0,0,0-0.1,0.1-0.1c0.1-0.1,0.1-0.1,0.2-0.2
		c0,0,0,0,0-0.1l0,0c0.1,0,0.1,0,0.2-0.1c0,0,0-0.1,0-0.1c0,0,0,0,0,0c0,0,0,0,0,0c0,0,0.1,0,0.3,0c0.3,0,0.3,0,0.4-0.1
		c0,0,0.1,0,0.1,0.1c0.1,0.1,0.2,0,0.3-0.1c0.1-0.1,0.1-0.2,0-0.3c0,0,0,0-0.1,0c0,0-0.1,0,0-0.1c0-0.1,0-0.1,0.3-0.3
		c0.1-0.1,0.2-0.1,0.2-0.1c0.1,0,0.1,0,0.2-0.1l0.1,0c0,0,0,0,0,0c0,0,0,0,0,0l0,0c0.1,0,0.2,0,0.2,0c0,0,0,0,0.1,0
		c0.1,0,0.1,0,0.1,0c0,0,0.1,0,0.2,0c0.1,0,0.2,0,0.2-0.1c0-0.1,0-0.1,0-0.2c0,0,0.1,0,0.1,0c0,0,0,0,0.1,0l0,0c0,0,0,0.1-0.1,0.2
		l0,0c0,0.1-0.1,0.1-0.1,0.2c0,0.1,0,0.1,0,0.2c0.1,0.1,0.1,0.1,0.2,0.1c0.1,0,0.2,0,0.4-0.1c0.1,0,0.2-0.1,0.2-0.1c0,0,0,0,0.1,0
		c0,0,0,0,0.1,0h0c0,0,0.1-0.1,0.2-0.1c0,0,0,0,0,0c0,0,0,0,0.1,0l0,0c0.1,0,0.2,0,0.3-0.1c0,0,0,0,0,0c0,0,0,0,0,0c0,0,0.1,0,0.2,0
		c0.1,0,0.2,0,0.2-0.1c0-0.1,0-0.1,0-0.2c0,0,0,0,0,0c0,0,0,0,0,0c0,0,0,0,0.1,0l0,0l0,0c0,0,0,0,0,0c0,0,0,0,0-0.1
		c0,0,0.1,0.1,0.1,0.1c0,0,0,0,0.1,0c0,0,0,0,0.1,0c0.1,0,0.1-0.1,0.2-0.1c0,0,0,0,0,0c0,0,0,0,0,0c0,0,0,0-0.1,0c0,0-0.1,0-0.1,0
		c0,0,0,0,0-0.1c0,0,0-0.1,0-0.2c0-0.1,0-0.2-0.1-0.2c0,0,0,0-0.1,0.1l-0.2,0.2l0,0c0,0,0,0.1-0.1,0.2c0,0,0,0-0.1,0c0,0,0,0,0,0
		l-0.2,0.1c0,0,0-0.1,0-0.1c0,0,0,0,0,0c0,0-0.1,0-0.2,0c-0.2,0-0.2,0-0.2,0c0-0.1-0.1-0.2-0.3-0.2c0,0,0,0,0,0c0,0,0-0.1,0-0.1
		c0-0.1,0-0.1-0.1-0.2c0,0,0,0,0,0c0,0,0,0,0.1-0.1c0,0,0-0.1,0-0.1c0,0,0.1,0,0.1,0c0.1,0,0.2-0.1,0.2-0.2c0-0.1-0.1-0.2-0.1-0.2
		c0,0,0,0-0.1,0c-0.1,0-0.2-0.1-0.4-0.1c-0.1,0-0.3,0-0.5,0.1c0,0,0,0,0-0.1c0-0.1,0.1-0.1,0.1-0.1c0,0,0.1,0,0.2,0
		c0.1,0,0.4,0,0.5,0c0,0,0.4,0,1,0.1c0.4,0,0.5,0,0.5-0.1c0,0,0.1-0.1,0.2-0.1C26.9,4.8,27,4.8,27,4.8c0.1,0,0.1,0,0.3,0
		c0.1,0,0.1,0,0.1,0c0,0.1-0.1,0.2-0.1,0.2l-0.2,0.3L27,5.5l0,0c0,0,0,0,0,0c0,0-0.1,0-0.2,0c-0.1,0-0.1,0-0.1,0c0,0,0,0,0.1,0
		c0,0,0.1,0,0.1,0c0,0,0,0,0,0c0,0,0,0-0.1,0c-0.1,0-0.1,0.1-0.2,0.1c-0.1,0-0.1,0.1-0.1,0.1c0,0,0,0,0.1,0c0.2,0,0.8,0,0.8,0l0.2,0
		l0.2,0.2l0,0c0,0,0.1,0,0.2,0c0,0,0,0-0.1,0c0,0-0.1,0-0.1,0c0,0-0.1,0-0.1,0c0,0,0,0,0,0.1c0,0,0,0,0.1,0c0,0,0.1,0.1,0.1,0.1
		c0,0,0.1,0,0.1-0.1c0.1,0,0.1-0.1,0.2-0.2c0.1,0,0.1,0,0.2,0c0,0,0,0,0-0.1c0,0,0,0,0,0c0,0,0,0,0,0c0,0,0,0.1,0,0.1
		c0,0.1,0,0.1,0,0.2c0,0,0,0,0,0c0,0,0,0,0.1,0c0,0,0,0,0.1,0c0,0,0,0,0,0c0,0.1,0,0.2,0.1,0.2l0,0l0.2-0.1l0.1-0.2l0-0.1
		c0,0,0-0.1-0.1-0.2c0,0,0,0-0.1,0c-0.1,0-0.1,0-0.1,0.1c0,0,0,0-0.1,0c0,0,0,0,0,0c0-0.1,0-0.2,0-0.2c0,0,0,0,0,0c0,0,0.1,0,0.1,0
		v0c0,0-0.1,0-0.1,0c0,0-0.1,0-0.1-0.1c0,0-0.1-0.1-0.2-0.1c0,0-0.1,0-0.1,0c0,0,0,0,0,0c0-0.1,0.1-0.1,0.2-0.1c0,0,0.1,0,0.1,0
		c0,0,0-0.1-0.2-0.1l-0.1,0c-0.3-0.1-0.3-0.1-0.4-0.1c-0.1,0-0.1,0-0.1,0.1c0,0-0.1,0-0.2,0c-0.1,0-0.1,0-0.2-0.1
		c-0.1,0-0.1,0-0.2-0.1c0,0,0,0,0-0.1c0,0,0,0,0.1-0.1c0.2-0.2,0.2-0.3,0.2-0.3c0-0.1-0.1-0.1-0.1-0.1c0,0,0,0,0,0
		c0,0,0.1-0.1,0.1-0.2c0-0.1-0.1-0.1-0.1-0.1c0-0.2-0.1-0.2-0.2-0.3c0,0,0,0-0.1,0c-0.1,0-0.1-0.1-0.1-0.1c0-0.1-0.1-0.1-0.2-0.1
		c0,0,0,0,0,0c0-0.1,0-0.1-0.1-0.1l0,0l0,0c0,0-0.1-0.1-0.2-0.1c-0.1,0-0.1-0.1-0.1-0.1h0c0,0,0,0,0,0c0,0,0-0.1-0.1-0.1
		c-0.1,0-0.1,0-0.1,0c0,0,0,0-0.1,0c0,0-0.1,0-0.1,0c0,0,0,0,0,0c0-0.1,0-0.1-0.1-0.1c-0.1-0.1-0.2,0-0.3,0c0,0,0,0-0.1,0
		c0,0,0,0,0,0l0,0c0-0.1,0.1-0.1,0-0.2c0,0,0-0.1-0.1-0.1c0-0.1-0.1-0.2-0.2-0.2c0,0-0.1,0-0.2-0.1c-0.2-0.1-0.3-0.2-0.5-0.4
		c-0.1-0.1,0-0.2-0.1-0.1c-0.1,0,0.1,0.1,0.1,0.2v0c0,0.1-0.3,0.2-0.3,0.2c0,0-0.1,0-0.1,0c-0.1,0-0.2,0-0.3,0.1c0,0-0.1,0-0.1,0
		c0,0-0.2-0.1-0.3-0.2c0,0,0,0,0,0c0,0-0.1-0.1-0.1-0.1c0,0,0,0,0,0c0,0,0.1-0.1,0.1-0.2c0-0.1,0-0.2-0.1-0.2c0,0,0,0,0,0l0.6,0.1
		c0.1,0,0.3,0,0.5-0.1c0.1,0,0.1-0.1,0.1-0.1c0,0,0.2-0.1,0.2-0.2c0-0.1,0-0.1,0-0.1c0,0,0.1,0,0.1-0.1c0.2-0.1,0.3-0.2,0.3-0.2
		l0.1-0.1l0-0.1c0-0.1,0-0.1-0.7-0.2l-0.4,0l-0.1,0c0.1-0.1,0.1-0.1,0.1-0.2c0-0.1-0.1-0.1-0.3-0.1l-0.3,0l-0.4,0l-0.1-0.1l0,0
		c0,0,0.2-0.1,0.3-0.1l0.2-0.1c0.1,0,0.2,0,0.2,0c0.5,0.1,0.6,0.1,0.6,0c0,0,0.1,0,0.4,0c0.6,0.1,0.8,0,0.8,0l0.5,0.2
		c0.1,0,0.2,0.1,0.2,0.1c0,0,0,0,0.1,0c0.1,0,0.1,0,0.2,0c0,0,0,0,0,0c0,0-0.1,0-0.2,0c-0.1,0-0.1,0-0.1,0.1c0,0,0,0.1,0.2,0.1
		c0,0,0.1,0,0.2,0c0.2,0,0.2,0,0.3,0c0,0,0,0,0,0.1c0,0,0,0,0,0c0,0,0,0-0.1,0.1c0,0-0.1,0.1,0,0.1c0,0,0,0,0,0c0,0,0.1,0,0.1,0.1
		c0.1,0.1,0.2,0.2,0.3,0.2c0.1,0,0.1,0.1,0.2,0.1c0.1,0.1,0.9,0.5,0.9,0.5l0.6,0.1c0,0,0.3,0,0.5,0.1C30,2.5,30,2.5,30,2.5
		c0,0,0,0,0,0c0,0,0,0,0,0c0,0,0,0,0,0c0.1,0,0.4,0,0.5,0c0,0,0,0,0,0h0c0,0-0.1,0-0.1,0c0.1,0,0.1,0,0.1,0c0,0,0,0,0.1,0
		c0,0,0-0.1-0.1-0.3c0-0.1-0.1-0.1-0.1-0.2c-0.1-0.1,0-0.1,0-0.1l0,0l0-0.1c0-0.1-0.1-0.2,0-0.3c0,0,0.1,0,0.2,0c0.1,0,0.2,0,0.4,0
		c0.2,0,0.2,0,0.3,0c0,0,0,0-0.1-0.1c0,0-0.1-0.1-0.1-0.1c0,0,0,0,0-0.1c0,0,0,0,0,0c0,0,0.1,0,0.1,0c0,0,0.1,0,0.1,0c0,0,0,0,0.1,0
		c0,0,0.1,0,0.2,0c0.1,0,0.1,0,0.2,0c0,0,0.1,0,0.1,0c0,0,0-0.1-0.1-0.1c-0.1-0.1-0.3-0.1-0.9-0.2c-0.4-0.1-1-0.2-1.8-0.3
		c-0.8-0.2-1.9-0.4-3-0.3c0,0,0,0-0.1,0c-0.1,0-0.4,0-0.6,0l0,0c0,0-0.1,0-0.1,0c-0.1,0-0.3,0-0.6,0c-0.1,0-0.2,0-0.3,0
		c-0.1,0-0.1,0-0.2,0c-0.1,0-0.1,0-0.2,0l-0.3,0c-0.4,0-0.6,0.1-0.7,0.1c0,0-0.1,0-0.1,0c-0.1,0-0.1,0-0.2,0.1c-0.1,0-0.1,0-0.2,0.1
		c0,0-0.1,0-0.2,0c0,0-0.1,0-0.2,0c-0.1,0-0.1,0-0.2,0c-0.1,0-0.2,0-0.4,0c-0.1,0-0.1,0-0.2,0.1c-0.1,0-0.1,0-0.2,0c0,0-0.1,0-0.2,0
		c-0.2,0-0.3,0.2-0.3,0.3c0,0.1,0.1,0.2,0.2,0.2l0,0c0,0,0,0,0,0c0,0-0.1,0-0.1,0c0,0-0.1,0-0.1,0v0C20.8,1,20.6,1,20.5,1
		c-0.1,0-0.2,0-0.3,0.1c0,0,0,0,0,0c0,0,0,0,0,0c0.1-0.1,0.1-0.2,0-0.2c-0.1-0.1-0.4,0-0.6,0c-0.2,0.1-0.4,0.2-0.5,0.4
		c0,0-0.1,0-0.2,0l-0.1,0c-0.1,0-0.2,0-0.3,0c0.1,0,0.1-0.1,0.1-0.1c0-0.1-0.1-0.1-0.4-0.1c0,0-0.1,0-0.2,0c-0.2,0-0.5,0.1-0.8,0.2
		c-0.1,0-0.1,0-0.2,0.1c-0.1,0-0.1,0.1-0.2,0.1c0,0.1,0,0.1,0,0.2c0,0,0,0,0,0c0,0,0,0.1-0.3,0c-0.1,0-0.2,0-0.3,0
		c0,0-0.1,0-0.1,0.1c0,0,0,0-0.1,0c0,0,0,0,0,0l0-0.1l-0.1,0c-0.8,0.3-1.5,0.6-2.2,1c-0.7,0.4-1.6,0.9-2.2,1.3
		c-0.3,0.2-0.5,0.3-0.8,0.5c-0.5,0.4-0.9,0.7-1.2,1C9.7,5.5,9.6,5.6,9.6,5.6C9.4,5.7,9.4,5.8,9.4,5.9c0,0,0,0,0,0.1
		C9.2,6,9.2,6.1,9.2,6.2c0,0.1,0,0.1,0,0.1c0,0-0.1,0.1-0.1,0.1C9,6.5,9,6.5,9,6.6C8.9,6.7,8.9,6.8,8.8,6.8C8.7,6.9,8.7,7,8.6,7.1
		C8.5,7.2,8.4,7.4,8.2,7.5C7.8,7.8,7.6,8.1,7.3,8.6C7.1,9.1,7,9.2,6.8,9.3c0,0-0.1,0-0.1,0.1C6.5,9.6,6.5,9.7,6.5,9.9
		c0,0.2-0.1,0.3-0.1,0.4c-0.1,0.1-0.1,0.2-0.1,0.2c0,0,0,0.1-0.1,0.2c-0.1,0.3-0.1,0.4,0.1,0.6l0,0c0,0,0,0,0,0c0,0,0,0,0,0
		c0,0,0,0.1,0,0.1c0,0.1,0,0.2,0,0.3c0,0,0,0.1,0,0.1c0,0.1,0,0.1,0,0.2c-0.1,0.2-0.1,0.3-0.1,0.5c0,0.1,0,0.3-0.1,0.3
		c-0.1,0.2,0,0.3,0,0.3c0,0,0.1,0.1,0.1,0.2c0,0.2-0.1,0.2-0.2,0.2C6,13.7,6,13.8,6,13.8c-0.1,0.1,0,0.3,0.2,0.5
		c0.1,0.1,0.1,0.1,0.1,0.1c0.1,0.1,0.1,0.1,0,0.2c-0.1,0.3-0.1,0.6,0.1,0.9c0.1,0.1,0.1,0.2,0.1,0.2c0,0.1,0,0.1,0.1,0.1
		c0.1,0,0.1-0.1,0.1-0.1c0,0,0,0,0-0.1C6.9,15.7,7,15.6,7,15.4c0-0.1,0-0.3-0.2-0.3c0,0,0,0,0,0c0-0.1,0-0.1,0-0.2
		c0-0.1,0-0.1,0-0.2c0,0,0,0,0-0.1c0-0.2,0.1-0.4-0.1-0.7c0,0-0.1-0.1,0-0.1c0,0,0.1-0.1,0.1-0.3c0-0.1,0-0.2,0-0.2
		c0-0.1,0-0.2,0-0.4c0-0.1,0-0.3,0.2-0.5c0,0,0,0.1,0.1,0.1c0,0,0,0.1,0,0.1c0,0,0,0.1-0.1,0.1c0,0.1,0,0.1,0,0.2c0,0.1,0,0.1,0,0.1
		c-0.1,0.1,0,0.2,0,0.3c0,0,0,0.1,0,0.1c0,0.2,0,0.2,0.1,0.3c0,0,0,0,0,0c0,0,0,0,0,0c0,0,0,0,0,0c0,0,0,0.1,0,0.1
		c0,0.1,0,0.2,0.1,0.2c0,0,0,0,0,0c-0.1,0.2,0,0.5,0.1,0.7c0.1,0.1,0.1,0.2,0.1,0.3c0,0.1,0,0.2,0.1,0.3c0.1,0.1,0.1,0.2,0.1,0.4
		c0,0.3,0.1,0.4,0.2,0.5c0,0,0,0,0,0c0,0.1,0,0.2-0.1,0.3c-0.1,0.2-0.2,0.3-0.1,0.5c0,0.2,0.2,0.3,0.3,0.4c0,0,0.1,0.1,0.1,0.1
		c0,0.2,0.2,0.4,0.5,0.4c0,0,0.1,0,0.1,0c0,0,0,0.1,0.1,0.1c0.1,0.2,0.3,0.3,0.4,0.4c0.1,0,0.1,0.1,0.2,0.1c0.1,0,0.2,0.1,0.4,0.1
		c0.1,0,0.1,0,0.1,0.1l0,0l0,0C9.7,19,9.8,19,9.8,19c0.1,0,0.1,0,0.2,0.1l0.2,0.1c0.2,0.1,0.3,0.1,0.4,0c0,0,0,0,0.1-0.1
		c0.1,0,0.1-0.1,0.2-0.1c0.1-0.1,0.2-0.2,0.3-0.1c0,0,0.1,0,0.1,0c0,0.1,0.1,0.1,0.2,0.1l0,0c0,0,0,0,0,0.1c0.1,0.1,0.3,0.3,0.4,0.6
		c0,0.1,0.1,0.1,0.1,0.2c0.2,0.3,0.4,0.3,0.6,0.2c0,0,0.1,0,0.2,0c0,0,0,0,0,0c0,0,0,0,0,0.1c0,0.2,0.1,0.2,0.2,0.3
		c0,0,0.1,0,0.1,0.1c0.2,0.1,0.3,0.1,0.4,0c0,0.1,0,0.2,0.1,0.3c0,0,0.1,0,0.1,0.1c0.1,0,0.1,0.1,0.1,0.2c0.1,0.1,0.2,0.3,0.4,0.3
		c0,0,0,0,0,0c0,0,0,0,0,0c-0.2,0.1-0.1,0.3-0.1,0.3c0,0,0,0.1,0,0.1c0,0.1,0,0.2,0.1,0.3c0.1,0.1,0.2,0.1,0.3,0.1
		c0.1,0,0.2,0,0.2,0.1l0,0l0.2,0.2c0,0.1,0.1,0.2,0.1,0.2c0,0.1,0,0.2,0.2,0.3c0.2,0.1,0.3,0.1,0.4,0c0.1,0,0.4,0.1,0.5,0.1
		c0,0,0,0,0,0c0,0,0,0,0,0c0,0,0.1,0,0.1,0.1c0,0,0.1,0,0.1,0c0,0,0,0,0,0c0,0,0,0.1,0,0.2c0,0,0,0.1,0.1,0.2c0.1,0,0.1,0,0.2-0.1
		c0,0,0.1-0.1,0.1-0.1c0.2-0.1,0.2-0.2,0.3-0.2l0,0L17.1,23l-0.1-0.1c0.1,0,0.1,0,0.1,0c0.1,0,0.1-0.1,0.2-0.2c0,0,0.1-0.1,0.1-0.1
		c0,0,0.1,0,0.3,0.1c0.1,0,0.1,0.1,0.1,0.1c0,0.1,0,0.1,0,0.1c0,0.1,0,0.2,0,0.3c0,0.1,0.1,0.2,0.1,0.2c0,0,0.1,0.1,0.1,0.1
		c0,0,0,0.1,0.1,0.2c0,0,0,0.1,0.1,0.1c0,0.1,0,0.2,0,0.2c0,0,0,0,0,0c-0.1,0.1-0.1,0.2-0.1,0.4c0,0.1,0,0.2,0,0.3
		c-0.1,0.2,0,0.3,0,0.4c0,0.1,0,0.1,0,0.1c0,0.1-0.2,0.3-0.2,0.3c0,0,0,0,0,0c-0.1,0-0.4,0.1-0.5,0.3c0,0.1,0,0.1-0.1,0.1h-0.1l0,0
		c0,0-0.1,0.1,0,0.2c0,0,0,0.1-0.1,0.1c0,0,0,0,0,0c0,0,0,0-0.1,0c-0.1,0-0.1,0-0.3,0c-0.2,0-0.2,0-0.3,0.1c0,0.1,0,0.1,0.1,0.2
		c0,0,0.1,0.1,0.1,0.1c0,0,0,0-0.1,0c-0.1,0.1-0.1,0.1-0.1,0.2c0,0,0,0.1-0.1,0.1c0,0,0,0,0,0c-0.1,0-0.1,0.1-0.1,0.2l0,0
		c0,0.1,0,0.2,0,0.4c-0.1,0.1-0.1,0.2,0,0.3c0,0,0,0,0,0c0.1,0.1,0.1,0.1,0.2,0.1c0,0,0.1,0,0.2,0.1c0,0,0,0,0.1,0c0,0-0.1,0-0.1,0
		c-0.1,0-0.2,0-0.2,0.1c0,0,0,0,0,0c-0.1,0.1-0.1,0.1-0.2,0.2c0,0-0.1,0.1-0.2,0.2c-0.1,0.1-0.2,0.2-0.1,0.3c0,0.1,0.1,0.1,0.1,0.1
		c0,0,0.1,0,0.2,0.1c0.1,0.1,0.1,0.1,0.1,0.1c0,0-0.1,0-0.1,0c-0.1,0-0.1,0.1-0.1,0.1c0,0.1,0.1,0.1,0.2,0.2
		c0.1,0.1,0.3,0.1,0.4,0.3l0.1,0.1c0,0,0,0,0,0c0,0,0,0.1,0,0.1c0.1,0.1,0.1,0.2,0.2,0.2c0,0,0.1,0.1,0.1,0.1
		c0.1,0.1,0.2,0.4,0.3,0.6c0.1,0.2,0.2,0.4,0.2,0.4c0.2,0.2,0.2,0.3,0.2,0.4l0,0c0,0.2,0,0.2,0.2,0.2c0,0,0.1,0.1,0.2,0.2
		c0.1,0.1,0.1,0.2,0.2,0.3c0.2,0.2,0.2,0.2,0.2,0.3c0,0,0,0.1,0,0.1c0,0.1,0,0.1,0,0.2c0,0.1,0.2,0.2,0.4,0.4
		c0.1,0.1,0.2,0.1,0.3,0.2l0.1,0.1c0.3,0.2,0.5,0.4,1.2,0.6c0.1,0.1,0.2,0.1,0.3,0.1c0,0.1,0.1,0.1,0.2,0.2c0,0,0,0,0,0c0,0,0,0,0,0
		c0,0,0,0.1,0,0.1c0.1,0.1,0.1,0.1,0.2,0.1c0.1,0,0.2,0,0.2,0.1l0,0c0,0,0.1,0,0.1,0.1c0,0,0,0,0,0l0,0c0,0,0,0.1,0,0.1
		c0,0.1,0,0.2,0.1,0.4c0,0.2,0,0.2,0,0.3c0,0,0,0.1,0,0.2c0,0.2,0,0.2,0,0.2c0,0,0,0.1-0.1,0.3c0,0.1,0,0.2,0,0.2
		c0,0.2,0,0.2-0.1,0.3c-0.1,0-0.1,0.1-0.1,0.2c0,0.1,0.1,0.1,0.1,0.2c0,0,0,0,0,0.1c0,0.1,0,0.1,0,0.3c0.1,0.3,0.1,0.3,0,0.4
		c0,0.1,0,0.2,0,0.2c0,0,0,0.1,0,0.1c-0.1,0.2-0.1,0.2-0.1,0.3c0,0,0,0,0,0.1c0,0.1,0,0.2-0.2,0.4c-0.1,0.2-0.1,0.3,0,0.4
		c0,0.1,0,0.1,0,0.2c0,0.1,0,0.1-0.1,0.2c0,0.1-0.1,0.1-0.1,0.3c0,0.1,0,0.1,0,0.2c0,0.1,0.1,0.2,0.1,0.3c0,0.1,0,0.1,0,0.2
		c0,0,0,0.1,0,0.1c0,0.1-0.1,0.5-0.2,0.6c0,0,0,0.1,0,0.1c0,0.1,0,0.1-0.1,0.3c0,0.1,0,0.1,0,0.1c-0.1,0,0,0.1,0,0.2v0
		c0,0-0.1,0-0.2,0c-0.1,0.1-0.2,0.1-0.1,0.3c0,0,0,0,0,0.1l0,0.1c0,0.1,0.1,0.2,0.1,0.3c0,0.1,0,0.1,0,0.1c0,0,0,0.1-0.1,0.1
		c0,0.1,0,0.1-0.1,0.1l0,0.1c-0.1,0.1-0.1,0.3,0,0.4l0,0c0,0,0,0,0,0c0,0,0,0.1,0,0.1c0,0.1,0,0.1,0,0.1c0,0,0,0,0,0.1
		c0,0.1,0,0.1-0.1,0.1l0,0c0,0-0.1,0.1-0.1,0.2l0,0.1l0,0c0.1,0.1,0.2,0.1,0.2,0.1c0,0,0.1,0,0.1,0c0.1,0,0.1,0,0.2-0.1
		c0,0,0,0,0-0.1c0,0,0-0.1,0.1-0.2c0,0,0-0.1,0.1-0.2l0,0.1c0,0-0.1,0.1-0.1,0.2c0,0.1-0.1,0.1,0,0.2c0,0,0,0,0,0.1
		c0,0.1,0,0.1,0,0.2c0,0,0,0.1,0,0.1c0,0,0,0,0,0c0,0,0-0.1,0-0.1c0,0,0-0.1-0.1-0.1c-0.1,0-0.1,0.1-0.1,0.1c0,0,0,0,0,0.1
		c0,0,0,0,0,0c0,0-0.1,0.1-0.1,0.2c0,0-0.1,0-0.1,0c-0.1,0-0.1,0-0.2,0c-0.1,0-0.1,0-0.3,0c-0.1,0-0.2,0-0.2,0.1
		c0,0.1,0.1,0.1,0.2,0.1c0.1,0,0.2,0,0.2,0c0.2,0.1,0.4,0,0.5,0c0,0,0,0,0,0c0,0,0,0,0,0c0,0,0,0,0,0.1c0,0,0,0.1,0,0.1
		c-0.1,0-0.2,0.1-0.3,0.1l0,0l0,0.1c0,0,0,0.1,0.1,0.2l0.1,0.1l0.1,0c0,0,0,0,0,0c0,0,0,0,0,0c0,0,0,0.1,0,0.1l0,0c0,0,0,0,0,0
		c-0.1,0-0.1,0-0.1,0c0,0,0,0-0.1,0l0,0v0.1v0.1v0.1l0.2,0.1l0.1,0l0,0c0,0,0,0,0,0c0,0,0.1,0.1,0.2,0c0,0,0.1,0,0.1,0c0,0,0,0,0,0
		c0,0,0,0.1,0,0.1c-0.1,0.1,0,0.2,0,0.2l0,0l0.3,0.1l0.3,0.1l0.2,0l0.1,0c0,0,0,0,0,0c0,0.1,0,0.1,0.4,0.2c0.1,0,0.2,0,0.2,0
		c0,0,0,0,0.1,0c0,0,0.1,0,0.1,0c0.1,0,0.1,0,0.2,0c0.1,0,0.4,0,0.4,0l0.4,0c0,0,0.1,0,0.2-0.1l0.1-0.1l0-0.1c0-0.1-0.1-0.1-0.2-0.1
		c0,0-0.1,0-0.1,0c-0.1,0-0.2-0.1-0.3-0.1c-0.1,0-0.1,0-0.1,0c0,0,0,0,0-0.1c0,0,0-0.1-0.1-0.1c0,0-0.1-0.2-0.2-0.3
		c0,0-0.1-0.1-0.1-0.1c0,0,0,0,0,0c0,0,0,0,0.2,0c0.1,0,0.2,0,0.2-0.1c0,0,0-0.1,0-0.1c0,0,0,0,0-0.1c0,0,0-0.1,0-0.1
		c0,0,0.1,0,0.2-0.1l0.1,0c0.2-0.1,0.2-0.1,0.4-0.4c0.1-0.1,0.2-0.2,0.1-0.3c-0.1-0.1-0.2,0-0.3,0.1c0,0-0.1,0.1-0.3-0.1
		c0,0,0,0,0,0c0,0,0.1-0.1,0.1-0.1c0.1-0.1,0.2-0.1,0.4-0.1c0.1,0,0.2,0,0.2-0.1c0,0,0-0.1,0-0.1l0,0c0.1,0,0.1-0.1,0.1-0.1
		c0,0,0,0,0-0.1c0,0,0-0.1,0-0.1c0,0,0,0,0,0c0,0,0,0,0.1-0.1c0,0,0.1,0,0.1-0.1c0-0.1-0.1-0.2-0.1-0.2c0,0,0,0,0,0
		c0,0,0-0.1-0.1-0.1c0,0,0,0,0-0.1c0-0.1,0-0.2-0.1-0.2c0,0,0,0,0,0c0,0,0,0,0,0c0,0,0.1,0,0.1,0c0.1,0.1,0.3,0.1,0.6,0.1
		c0.3,0,0.5,0,0.5-0.1c0-0.1,0-0.1,0-0.2c-0.1-0.1-0.1-0.1-0.1-0.1c0.2-0.1,0.1-0.2,0.1-0.3c0,0,0,0,0-0.1c0.1,0,0.1,0.1,0.2,0.1
		c0.3,0,0.6,0.1,1.4-0.2c0.8-0.3,0.8-0.6,0.8-0.7c0-0.1-0.1-0.2-0.1-0.2c0.1-0.1,0-0.2-0.1-0.3c0,0,0,0,0,0c0,0-0.1-0.1-0.2-0.1
		c0.1,0,0.2,0.1,0.3,0.1l0,0c0,0,0.4,0.1,0.7,0.1c0.3,0,0.4,0,0.6-0.2l0,0c0.1-0.1,0.2-0.2,0.3-0.3l0,0c0.2-0.2,0.3-0.3,0.5-0.5
		c0.1-0.1,0.2-0.1,0.2-0.2l0,0l0,0l0.1-0.1c0,0,0.1,0,0.2-0.1c0.3-0.1,0.4-0.3,0.4-0.4c0-0.1,0.1-0.1,0.1-0.2
		c0.2-0.2,0.3-0.3,0.6-0.4c0.3-0.1,0.3-0.2,0.3-0.4c0-0.1,0-0.1,0-0.2c0-0.1,0-0.1,0-0.2c0-0.2,0-0.2,0.2-0.4
		c0.1-0.1,0.1-0.2,0.2-0.2c0.1,0,0.1-0.1,0.3-0.1c0.1-0.1,0.2-0.1,0.3-0.2c0.1-0.1,0.2-0.2,0.4-0.3c0.1-0.1,0.2-0.1,0.3-0.2
		c0.1-0.1,0.1-0.1,0.2-0.1c0.2,0,0.2,0,0.3-0.1c0,0,0-0.1,0.1-0.1c0.1-0.1,0.2-0.1,0.5-0.1c0.1,0,0.2,0,0.2,0c0.2,0,0.3,0,0.3-0.1
		c0.1-0.1,0-0.1,0-0.2c0,0,0,0,0,0c0.2-0.1,0.3-0.2,0.3-0.4c0-0.2,0.1-0.2,0.3-0.3c0.2-0.1,0.2-0.2,0.3-0.4c0-0.1,0.1-0.1,0.1-0.1
		c0.1-0.1,0.1-0.1,0.2-0.3c0-0.1,0.1-0.2,0.1-0.2c0,0,0,0,0-0.1c0,0,0,0,0,0c0.1,0,0.1-0.1,0.1-0.2c0-0.1,0.1-0.2,0.2-0.4
		c0.2-0.2,0.2-0.4,0.2-0.6c0-0.1,0-0.2,0-0.2c0-0.1,0.1-0.3,0.1-0.5c0-0.2,0.1-0.4,0.1-0.5c0,0,0,0,0,0c0,0.1,0.1,0.1,0.1,0.1
		c0.1,0,0.1-0.1,0.2-0.2c0.1-0.1,0.1-0.3,0.2-0.4c0.2-0.3,0.3-0.4,0.4-0.6l0.1-0.1c0,0,0.1-0.1,0.1-0.1c0.1-0.1,0.2-0.2,0.3-0.3
		c0.1-0.1,0.1-0.2,0.2-0.4c0.1-0.1,0.1-0.3,0.3-0.5c0.2-0.3,0.2-0.7,0.1-1C39.7,29.6,39.7,29.5,39.7,29.5"/>
</g>
</svg>
