<?xml version="1.0" encoding="utf-8"?>
<!-- Generator: Adobe Illustrator 25.4.1, SVG Export Plug-In . SVG Version: 6.00 Build 0)  -->
<svg version="1.1" id="Layer_1" xmlns="http://www.w3.org/2000/svg" xmlns:xlink="http://www.w3.org/1999/xlink" x="0px" y="0px"
	 viewBox="0 0 50 50" style="enable-background:new 0 0 50 50;" xml:space="preserve">
<style type="text/css">
	.st0{clip-path:url(#SVGID_00000171691760462190863800000014940996514699259567_);fill:#F5F5F5;}
	.st1{clip-path:url(#SVGID_00000171691760462190863800000014940996514699259567_);fill:#ED8200;}
</style>
<g>
	<defs>
		<rect id="SVGID_1_" x="0.3" width="49.5" height="50"/>
	</defs>
	<clipPath id="SVGID_00000022525799100578944680000000520460548182710919_">
		<use xlink:href="#SVGID_1_"  style="overflow:visible;"/>
	</clipPath>
	<path style="clip-path:url(#SVGID_00000022525799100578944680000000520460548182710919_);fill:#F5F5F5;" d="M49.7,25
		c0,13.8-11.1,25-24.7,25C11.4,50,0.3,38.8,0.3,25S11.4,0,25,0C38.7,0,49.7,11.2,49.7,25"/>
	<path style="clip-path:url(#SVGID_00000022525799100578944680000000520460548182710919_);fill:#ED8200;" d="M36.3,47.3
		c0.1,0,0.1-0.1,0.2-0.1c-0.7,0.3-1.4,0.7-2.1,0.9C35.1,47.9,35.7,47.6,36.3,47.3"/>
	<path style="clip-path:url(#SVGID_00000022525799100578944680000000520460548182710919_);fill:#ED8200;" d="M14.9,46.1
		c-0.3-0.3-0.6-0.5-0.7-0.9c-0.1-0.4,0-0.6,0.2-0.9c0.1-0.2,0.3-0.3,0.2-0.5c-0.1-0.2-0.3-0.2-0.4-0.3c-0.3-0.1-0.6-0.2-0.9-0.4
		c-0.3-0.3-0.6-0.8-1-0.9c-0.2-0.1-0.4,0.1-0.6,0.1c-0.2,0-0.3-0.1-0.4-0.3c-0.4-0.3-0.8-0.5-1.3-0.3c-0.1,0-0.2-0.1-0.2-0.2
		c0.1-0.4-0.3-0.8-0.6-1c-0.3-0.2-0.7-0.5-1-0.7c-0.3,0.1-0.7,0-0.9-0.2c-0.2-0.1-0.4-0.3-0.5-0.5c0,0,0.1,0,0.1,0.1
		c0,0,0.1,0,0-0.1c-0.1,0-0.2-0.1-0.2-0.1c-0.1-0.1-0.1-0.2-0.1-0.3c0,0,0-0.1-0.1-0.1c0,0,0.1,0,0.1,0c0,0,0.1,0,0-0.1
		c-0.1,0-0.1-0.1-0.2-0.1c-0.1-0.1-0.1-0.3-0.2-0.3C6.2,38,6,38,5.9,38.1c-0.1,0-0.1-0.1-0.2-0.1c0,0-0.1,0,0,0c0,0,0,0.1,0.1,0.1
		c0,0-0.1,0-0.1,0c-0.2,0-0.3-0.1-0.4-0.2c-0.1-0.1-0.1-0.1-0.2-0.2c-0.1-0.1-0.6-0.4-0.6-0.1c0.3,0.5,0.6,0.9,0.9,1.4
		c2.2,3.3,5.2,6.1,8.7,8.1c0-0.2,0-0.4-0.1-0.5c0-0.1,0-0.2,0.1-0.2c0.3,0,0.6,0.1,0.9,0.1c0.1,0,0.2,0,0.3,0
		C15.2,46.4,15,46.2,14.9,46.1"/>
	<path style="clip-path:url(#SVGID_00000022525799100578944680000000520460548182710919_);fill:#ED8200;" d="M12.6,11.1
		c0.1,0.1,0.2-0.1,0.3-0.1c0.1,0,0.1,0,0.2,0c-0.1-0.1-0.1-0.2-0.2-0.2C12.7,10.7,12.4,11,12.6,11.1"/>
	<path style="clip-path:url(#SVGID_00000022525799100578944680000000520460548182710919_);fill:#ED8200;" d="M3.1,26.5
		c0.1-0.1,0.2-0.1,0.2,0c0.2,0.5,0.8,0.5,1,0.1c-0.2-0.2-0.4-0.5-0.5-0.7c-0.1-0.1-0.2-0.3-0.3-0.4c-0.1-0.1-0.3-0.3-0.5-0.2
		c-0.1,0.1-0.2,0-0.2,0C2.3,24.6,4,24.1,4.4,24c0.1,0,0.2,0.1,0.2,0.2c-0.1,0.3-0.2,0.8,0.1,1.1c0.2,0.2,0.6,0.2,0.7,0
		c-0.2-0.1-0.3-0.3-0.3-0.5c0-0.2,0.1-0.4,0.1-0.6c0-0.3-0.3-0.3-0.4-0.5c-0.2-0.2-0.1-0.5,0.1-0.7c0.1-0.2,0.2-0.3,0.2-0.5
		c0.1-0.3-0.2-0.5-0.5-0.3c-0.1,0.1-0.3,0-0.2-0.1l0.3-0.7c-0.3,0-0.7,0-1,0c-0.1,0-0.2-0.1-0.1-0.2c0.2-0.5,0.3-1.1,0.2-1.6
		c-0.2,0.2-0.4,0.3-0.5,0.5C3.1,20.1,3,20.1,3,20c-0.1-0.3,0-0.7-0.1-1c-0.1-0.3-0.5-0.1-0.6,0.1c-0.1,0.1-0.1,0.3-0.2,0.4
		c-0.1,0.3,0,0.6,0.1,0.9c0.1,0.3,0.3,0.5,0.3,0.8c0,0.3-0.2,0.5-0.3,0.7c-0.1,0.3,0,0.7,0,1c0,0.4-0.2,0.8-0.6,0.9
		c-0.1,0-0.1-0.1-0.1-0.2c0.1-0.7,0-1.4-0.4-1.9c0,0,0,0,0,0c-0.2,1.8-0.3,3.5-0.1,5.3c0.2,2.7,1,5.4,2.1,7.9c0-0.1,0.2-0.1,0.2,0
		c0.1,0.4,0.5,0.6,0.9,0.6c-0.6-0.5-1.1-1-1.2-1.8c0-0.2,0-0.5-0.2-0.7c-0.1-0.2-0.3-0.3-0.4-0.5c-0.1-0.3,0-0.6,0-0.9
		c0.1-0.2,0.1-0.4,0.1-0.6c0-0.2-0.1-0.4-0.2-0.6c-0.2-0.4-0.2-0.8-0.1-1.2C2.4,28.3,2.6,27.3,3.1,26.5"/>
	<path style="clip-path:url(#SVGID_00000022525799100578944680000000520460548182710919_);fill:#ED8200;" d="M3,17.6
		c0.1-0.1,0.2,0,0.2,0.1c0,0.1,0.2,0.7,0.5,0.6c0.1,0,0-0.2,0-0.2c0-0.1,0-0.1-0.1-0.2c0-0.3,0.1-0.4,0.4-0.4c0.1,0,0.2,0.2,0.4,0
		c0.1-0.1-0.1-0.3-0.1-0.4c-0.1-0.1-0.1-0.3-0.1-0.4c0-0.1,0-0.2,0.1-0.3c0.2-0.1,0.3,0,0.5-0.2c0.4-0.3,0.1-0.8-0.1-1.2
		c-0.1-0.3-0.2-0.6-0.1-1c0.1-0.2,0.2-0.4,0.2-0.6c0-0.3-0.3-0.3-0.5-0.3c-0.1,0-0.2-0.1-0.2-0.2c0-0.1,0-0.3,0-0.4
		c-0.3,0.6-0.6,1.2-0.9,1.8C3,14.5,3,14.7,2.9,14.8c0,0,0,0.1,0.1,0c0.1,0,0.1,0,0.2,0c0.1,0,0.1-0.1,0.2-0.2c0.1-0.1,0.2,0,0.2,0.1
		c0,0.3,0,0.6-0.1,0.9c0,0.1-0.1,0.2-0.2,0.4c0,0-0.4,0.5-0.1,0.6c0.1,0,0.2,0.1,0.1,0.2C3.1,16.9,3,17,2.8,17.2
		c-0.1,0.1-0.2,0.1-0.2,0.2C2.6,17.6,2.8,17.7,3,17.6"/>
	<path style="clip-path:url(#SVGID_00000022525799100578944680000000520460548182710919_);fill:#ED8200;" d="M15.7,3.9
		c-0.1,0.1-0.2,0.2-0.4,0.2C15,4,15.1,3.8,15.2,3.6c0,0,0.1,0,0.1,0c0,0,0-0.1,0-0.1c0,0,0,0,0,0c0,0-0.1,0-0.2,0c0,0,0,0,0,0
		c0-0.1-0.1-0.1-0.2-0.1c0,0,0,0,0,0c0,0,0,0,0,0c-0.1,0-0.2,0-0.3,0c-0.2,0-0.3,0-0.4-0.1c-0.3-0.1-0.6-0.1-0.9,0.1
		c-0.1,0.1-0.2,0.3-0.3,0.4c0,0.1-0.1,0.2-0.1,0.2c-0.2,0.2-0.7-0.2-0.7,0.3c0,0.1,0,0.1-0.1,0.1c-0.3,0.1-0.8,0.2-0.8,0.6
		c0,0.1,0,0.1-0.1,0.1c-0.3,0.1-0.6,0-0.8-0.3C9.1,6,7.9,7.2,6.9,8.4c0.2,0.2,0.1,0.7,0,0.9C6.7,9.5,6.3,9.9,6.6,10
		c0.2,0.1,0.3-0.1,0.5-0.1c0.4,0,0.4,0.4,0.3,0.7c-0.1,0.5-0.2,1-0.4,1.5c0.2,0,0.5,0,0.6,0.2c0.1,0.2,0.1,0.4-0.1,0.6
		c-0.1,0.1-0.3,0.1-0.4,0c-0.1,0-0.2-0.1-0.3-0.1c-0.2,0-0.1,0.1,0,0.1c0.2,0.1,0.4,0.1,0.5,0.4c0,0.4-0.4,0.5-0.6,0.7
		c-0.2,0.2-0.1,0.5-0.1,0.7c0,0.3,0,0.5,0,0.8c0,0.5,0,0.9,0.1,1.4c0,0.2,0.1,0.5,0.2,0.7c0,0.1,0.1,0.3,0.3,0.3
		c0.1,0,0.3-0.1,0.3-0.2c0,0,0,0,0,0c0,0,0,0,0-0.1c0,0,0.1,0,0.1,0c0,0,0,0,0,0c0.1,0,0.1,0.1,0.1,0.1c0,0,0,0.1,0,0.1
		c0.1,0.1,0.2,0.2,0.3,0.3c0.1-0.3,0.1-0.6,0.1-0.9c0.1-0.2,0.2-0.4,0.3-0.6c0.1-0.2,0.3-0.4,0.4-0.6c0.1-0.3,0.1-0.5,0.2-0.8
		c0.1-0.5,0.6-0.5,0.9-0.8c0.4-0.4,0.5-0.9,0.7-1.4c0-0.1,0.1-0.1,0.1-0.1c0-0.1,0-0.1,0.1-0.1c0.6,0.2,1.2-0.2,1.5-0.6
		c0.3-0.3,0.6-0.7,0.9-1c-0.2,0-0.3,0-0.5,0c-0.1,0.1-0.3,0.2-0.4,0.2c-0.2,0-0.3-0.1-0.3-0.3c0-0.2,0.2-0.5,0.3-0.6
		c0.2-0.1,0.4,0,0.5,0.2c0.1,0.2,0.4,0.3,0.6,0.1c0.2-0.2,0-0.5-0.2-0.6c-0.2-0.1-0.5-0.1-0.6-0.4c-0.2-0.3,0.3-0.8,0.5-0.4
		c0,0,0,0,0,0.1c0.1,0.1,0.3,0.2,0.4,0.1c0.2-0.1,0.1-0.2,0-0.3c-0.1-0.1-0.2-0.2-0.1-0.3c0-0.1,0.2-0.2,0.3-0.2
		c0.1,0,0.3,0,0.3-0.2c0-0.1-0.1-0.2-0.1-0.3c-0.1-0.1,0-0.2,0.1-0.2c0.1,0,0.6,0,0.3-0.2c0,0-0.1,0-0.1-0.1c-0.1,0-0.1-0.1-0.1-0.2
		c0-0.1,0-0.2,0-0.3c0-0.2-0.1-0.3-0.1-0.4c0-0.2,0.3-0.3,0.4-0.3c0.1,0,0.5,0.3,0.6,0c0-0.2-0.3-0.3-0.5-0.4
		c-0.2,0-0.1-0.3,0.1-0.2c0,0,0,0,0,0c0-0.5,0.3-0.8,0.7-1.1c0.2-0.2,0.4-0.3,0.6-0.5c0.1-0.1,0.5-0.5,0.4-0.8
		C16.3,3.2,15.8,3.8,15.7,3.9"/>
	<path style="clip-path:url(#SVGID_00000022525799100578944680000000520460548182710919_);fill:#ED8200;" d="M14.8,13
		c0,0-0.1,0.2-0.1,0.2c-0.1,0-0.2-0.1-0.2-0.1c-0.1,0-0.2-0.1-0.4,0c-0.1,0-0.2,0.1-0.3,0.2c-0.1,0.1-0.1,0.1-0.2,0.2
		c-0.1,0.1-0.2,0-0.4,0c-0.3,0-0.6,0.1-0.6,0.4c0,0.1,0.1,0.2,0.2,0.3c0.1,0,0.1,0,0.2,0c0.1,0,0.2,0,0.2,0
		c-0.1,0.1-0.2,0.1-0.3,0.2c-0.1,0.1,0,0.3,0.1,0.2c0.2-0.1,0.3,0.1,0.4,0.3c0.1,0.1,0.2,0.2,0.4,0.2c0.3,0.1,0.6,0.1,0.9-0.1
		c0.4-0.1,0.7-0.4,0.9-0.7c0.2-0.2,0.4-0.5,0.3-0.9C16,12.9,15.2,12.4,14.8,13"/>
	<path style="clip-path:url(#SVGID_00000022525799100578944680000000520460548182710919_);fill:#ED8200;" d="M23.5,3.7
		c0.3-0.1,0.5-0.6,0.6-0.8c0,0,0-0.1,0-0.1c-0.2-0.2-0.6-0.3-0.9-0.1c-0.1,0-0.1,0.1-0.2,0.2c-0.1,0-0.1-0.1-0.2-0.1
		c-0.1-0.1-0.2-0.1-0.3-0.1c0,0,0,0,0,0.1c-0.1,0-0.1,0-0.2,0c-0.1,0.1-0.1,0.2-0.1,0.3c0,0.2,0.1,0.3,0.2,0.4c-0.1,0-0.2,0-0.3,0
		C22,3.4,22,3.3,22,3.2c-0.1,0-0.1-0.1-0.2-0.1c-0.2,0-0.3,0.1-0.4,0.2c-0.1,0.1-0.1,0.2-0.2,0.2c-0.1,0-0.2,0-0.3,0
		c-0.2,0-0.3,0.1-0.3,0.3c-0.1,0.4,0.4,0.6,0.7,0.7c-0.1,0.3-0.2,0.6,0.2,0.7c0.1,0,0.2,0,0.3-0.1C21.9,5.1,22,5,22.1,5.1
		c0,0.1,0.1,0.1,0.1,0.2c0.1,0.1,0.1,0.1,0.2,0.2c0.2,0.2,0.5,0.2,0.6-0.1c0.1-0.2,0-0.4-0.1-0.5c-0.1-0.3-0.1-0.7,0-1c0,0,0,0,0,0
		c0,0,0,0,0-0.1c0-0.1,0-0.2-0.1-0.2c0.1,0,0.2,0.1,0.3,0.1C23.3,3.8,23.4,3.8,23.5,3.7"/>
	<path style="clip-path:url(#SVGID_00000022525799100578944680000000520460548182710919_);fill:#ED8200;" d="M31.5,5.1
		c0,0.1,0,0.1,0.1,0.1c0.2,0,0.3,0.3,0.3,0.5C32,6,32,6.2,32.1,6.4c0.1,0.3,0.1,0.5,0.4,0.5c0.4,0,0.6,0.3,0.9,0.4
		c0.4,0.1,0.7-0.2,1-0.3c0.1-0.1,0.1-0.2,0-0.2c-0.4-0.3-0.8-0.6-1.2-1.1c-0.2-0.3-0.5-0.5-0.3-0.9c0.1-0.2,0.3-0.5,0.6-0.6
		c0.1,0,0.1-0.2,0-0.2c0.2-0.3,0.2-0.6-0.1-0.8c-0.1,0-0.2,0-0.3,0c-0.1,0-0.1,0.1-0.1,0.2c-0.1,0.1-0.2,0.1-0.3,0.1
		c-0.4,0-0.8,0.1-0.9,0.5c-0.1,0.2,0.1,0.4,0.1,0.6C31.7,4.8,31.5,4.9,31.5,5.1"/>
	<path style="clip-path:url(#SVGID_00000022525799100578944680000000520460548182710919_);fill:#ED8200;" d="M17.6,21
		c0,0,0.1,0,0.1,0c0,0.1,0.1,0.1,0.1,0c0.1-0.5,0.9-0.3,1.2-0.6c0,0,0,0,0,0c0.1,0.1,0.1,0.2,0.1,0.2c0,0,0,0,0,0
		c-0.2,0.3-0.2,0.7,0.2,0.7c0.5,0,0.6-0.6,1-0.8c0.2-0.1,0.5,0,0.7-0.1c0.2-0.1,0.3-0.2,0.3-0.4c0.1-0.3,0-0.6-0.3-0.8
		c0-0.1,0-0.1-0.1-0.2c0-0.1-0.1-0.1-0.1-0.1c-0.1-0.1-0.2-0.1-0.2-0.2c0-0.2,0-0.3-0.1-0.4c-0.1-0.1-0.3-0.2-0.4-0.3
		c-0.1,0-0.2-0.1-0.3-0.1c-0.1-0.1-0.1-0.1,0-0.2c0.1-0.1,0.1-0.2,0.1-0.3c0-0.2-0.2-0.3-0.4-0.3c0-0.2,0.1-0.6-0.1-0.6
		c-0.2-0.1-0.6,0.3-0.7,0.4c-0.4,0.4-0.5,1.1,0.1,1.3c0.1,0,0.1,0,0.2,0.1c0.1,0.1,0.1,0.1,0.1,0.2c0.1,0.1,0.3,0.1,0.3,0.3
		c0,0.1,0,0.2,0.1,0.3c0.1,0.1,0.3,0.1,0.1,0.4c0,0.1-0.2,0.1-0.2,0.2c0,0,0,0,0,0c0-0.1-0.1-0.2-0.1-0.3c-0.1-0.2,0-0.4,0-0.6
		c0-0.3-0.2-0.5-0.5-0.6c-0.7-0.2-1.2,0.5-1.1,1.1c0,0.1,0.1,0.2,0,0.3c0,0-0.1,0.1-0.1,0.1c-0.1,0.1-0.1,0.2-0.2,0.4
		C17.3,20.6,17.3,20.9,17.6,21"/>
	<path style="clip-path:url(#SVGID_00000022525799100578944680000000520460548182710919_);fill:#ED8200;" d="M24.7,23.8
		C24.7,23.8,24.6,23.8,24.7,23.8c-0.2,0-0.3,0.3-0.3,0.5c0.1,0.2,0.3,0.3,0.5,0.2c0.2-0.1,0.3-0.3,0.2-0.5
		C25,23.8,24.8,23.7,24.7,23.8"/>
	<path style="clip-path:url(#SVGID_00000022525799100578944680000000520460548182710919_);fill:#ED8200;" d="M24.7,24.7
		C24.7,24.7,24.7,24.7,24.7,24.7c-0.1,0-0.2,0.1-0.2,0.2c0.1,0.2,0.1,0.5,0.2,0.7c0.1,0.2,0.4,0.2,0.6,0.1c0.2-0.2,0.2-0.4,0.1-0.6
		C25.3,24.8,25,24.7,24.7,24.7"/>
	<path style="clip-path:url(#SVGID_00000022525799100578944680000000520460548182710919_);fill:#ED8200;" d="M27.2,25.8
		c-0.1-0.2-0.3-0.3-0.5-0.2c-0.2,0.1-0.2,0.3-0.1,0.5c0.1,0.1,0.2,0.1,0.2,0.2c0,0,0.1,0,0.2,0.1c0,0,0,0,0,0c0.1,0,0.1,0,0.2,0
		c0.1,0,0.1-0.1,0-0.1c0,0,0,0,0,0C27.2,26,27.2,25.9,27.2,25.8"/>
	<path style="clip-path:url(#SVGID_00000022525799100578944680000000520460548182710919_);fill:#ED8200;" d="M40.7,40.5
		c0.1,0,0-0.2-0.1-0.1c-0.4,0.1-0.8,0.3-1.1,0.5c-0.1,0.1-0.3,0.2-0.3,0.4c-0.1,0.2-0.1,0.5-0.2,0.7c-0.2,0.4-0.5,0.8-0.7,1.3
		c-0.1,0.3-0.1,0.7,0.2,0.9c0.8,0.4,1.4-0.6,1.6-1.1c0.2-0.5,0.3-1,0.5-1.5C40.8,41.2,40.9,40.9,40.7,40.5
		C40.7,40.5,40.7,40.5,40.7,40.5"/>
	<path style="clip-path:url(#SVGID_00000022525799100578944680000000520460548182710919_);fill:#ED8200;" d="M40.1,24.1
		c-0.4,0.2-1,0.1-1.3-0.3c-0.4-0.4-0.2-0.9-0.4-1.4c-0.2-0.4-0.6-0.7-0.9-1.1c-0.3-0.3-0.4-0.7-0.3-1.1c0.1-0.5,0.5-0.9,0.9-1.2
		c0.3-0.2,0.8-0.2,1,0.2c0.1,0.2,0.1,0.4,0,0.6c0,0.1-0.1,0.2-0.1,0.2c0,0-0.1,0.1-0.1,0.1c0,0-0.1,0.1-0.1,0.1c0,0.1,0,0.2,0,0.3
		c0,0,0,0,0,0c0.1,0,0.1,0,0.1,0.1c0.2,0.1,0.4,0.1,0.6,0.2c0.2,0.1,0.3,0.4,0.3,0.6c0,0.2-0.1,0.3,0,0.5c0,0.2,0.2,0.3,0.3,0.4
		c0.2,0.2,0.4,0.3,0.4,0.6C40.7,23.4,40.6,23.9,40.1,24.1 M49.7,27.7c0-0.1-0.1-0.2-0.1-0.3c0-0.1,0-0.2,0-0.3c0,0,0,0,0,0
		c0,0,0.1,0,0.1-0.1c0,0,0,0,0,0c0-0.5,0.1-1,0.1-1.4c0.1-4.8-1.1-9.6-3.6-13.8c-1.5-2.5-3.4-4.7-5.7-6.5c-0.8-0.6-1.5-1.2-2.4-1.7
		c0,0,0,0,0,0.1c0,0-0.1,0.1-0.1,0.1c-0.2,0.1-0.3,0.1-0.3,0.4c0,0.2,0.1,0.4,0.3,0.5c0.1,0,0.1,0.1,0.1,0.2c-0.4,0.4,0.1,0.8,0.4,1
		c0.1,0.1,0.1,0.3-0.1,0.2c-0.1,0-0.3,0-0.4,0c0,0.3,0.1,0.7,0.3,1c0.2,0.3,0.4,0.5,0.6,0.8c0.2,0.4,0.1,0.9-0.4,1
		c-0.1,0-0.1-0.1-0.1-0.1c0-0.7-0.5-1.2-0.9-1.6c-0.2-0.2-0.5-0.5-0.7-0.7c-0.1-0.1-0.2-0.2-0.3-0.4c-0.1-0.1-0.1-0.2-0.2-0.2
		c-0.1,0-0.2-0.1-0.2-0.1c0.1,0.4,0.3,0.8,0.6,1.1c0.2,0.2,0.4,0.3,0.6,0.4c0.1,0.1,0.3,0.1,0.4,0.3c0.2,0.2,0.1,0.5-0.1,0.6
		c-0.3,0.1-0.6,0-0.9-0.1c-0.2-0.1-0.4-0.2-0.5-0.4C35.7,7.4,35.5,7,35.3,7c-0.2,0-0.3,0.2-0.2,0.3c0,0.1,0.1,0.2,0.2,0.3
		c0.1,0.1,0.4,0.1,0.5,0.3c0.1,0.2-0.2,0.5-0.4,0.5c-0.2,0-0.3,0-0.4-0.1c-0.1-0.1-0.3-0.2-0.4-0.1c-0.1,0-0.3,0.2-0.4,0.2
		c-0.1,0.1-0.2,0-0.2-0.1c0-0.1-0.2-0.2-0.3-0.2c-0.2,0-0.2,0.1-0.3,0.2c-0.1,0.2-0.2,0.4-0.3,0.6c-0.2,0.3-0.5,0.6-0.9,0.4
		c-0.1,0-0.1-0.1-0.1-0.1c0-0.2,0-0.4,0-0.6c-0.1-0.2-0.4-0.3-0.5-0.1c-0.1,0.2,0.2,0.5,0.3,0.7c0.1,0.2,0.2,0.4,0.3,0.6
		c0.1,0.1-0.1,0.2-0.2,0.2c-0.2-0.1-0.5,0-0.6,0.3c-0.1,0.2-0.1,0.4-0.1,0.6c0,0.1-0.2,0.2-0.2,0.1c0-0.1-0.4,0.4-0.4,0.4
		c-0.1,0.1-0.2,0.1-0.3,0c-0.2-0.1-0.4-0.3-0.5-0.5c-0.2-0.2-0.3-0.3-0.5-0.5c-0.1,0-0.2,0-0.3,0c-0.2,0-0.2-0.3,0-0.3
		c0,0,0.1,0,0.1,0c0,0,0.1,0,0.1,0c0,0,0,0,0,0c0.2,0,0.5,0,0.7,0c0.2,0,0.8,0,0.8-0.3c0.1-0.3-0.6-0.5-0.8-0.6
		c-0.3-0.1-0.6-0.3-0.9-0.4c-0.3-0.1-0.6-0.2-0.9-0.2c-0.2,0-0.5,0-0.7-0.1c-0.2-0.1-0.2-0.2-0.3-0.3c-0.1-0.2-0.1-0.4-0.4-0.2
		c-0.1,0.1-0.2,0.2-0.3,0.3c-0.4,0.4-0.7,0.2-1.2,0.2c-0.5,0-0.7,0.5-1,0.8c-0.1,0.2-0.3,0.3-0.5,0.3c-0.3,0.2-0.3,0.4-0.4,0.7
		c-0.1,0.6-0.2,1.2-0.3,1.8c-0.1,0.5-0.3,0.9-0.6,1.2c-0.4,0.4-0.8,0.8-1.2,1.2c0.4,0.4,0.3,1,0.1,1.6c0.1,0,0.2-0.1,0.2-0.1
		c0.1,0,0.2,0,0.2,0.1c0.1,0.3,0.4,0.3,0.7,0.2c0.3-0.2,0.4-0.5,0.4-0.8c0-0.1,0.1-0.1,0.2-0.1c0.9,0.2,0.8,1.2,1.3,1.7
		c0.1,0.1,0.4,0.2,0.6,0.1c0.2-0.1,0.2-0.4,0.3-0.6c0.1-0.2,0.2-0.3,0.3-0.4c0.1-0.2,0-0.5-0.2-0.6c-0.1,0-0.1-0.1,0-0.2
		c0.2-0.3,0.3-0.6,0.5-0.9c-0.2,0-0.3,0-0.5,0c-0.1,0-0.2-0.1-0.1-0.2c0.1-0.3,0-0.5-0.3-0.6c0,0-0.1-0.1-0.1-0.1
		c0.2-0.7,0.5-1.4,0.7-2.1c0.1-0.3,0.4-0.7,0.8-0.6c0.4,0.1,0.5,0.6,0.4,0.9c-0.1,0.5-0.3,0.9-0.7,1.1c0.2,0.5,0.4,1.1,1,1.2
		c0.5,0.1,0.8-0.5,1.2-0.6c0.3-0.1,0.6,0.1,0.7,0.3c0.1,0.4-0.3,0.5-0.6,0.6c-0.3,0.1-0.5,0.2-0.8,0.3c-0.1,0-0.3,0.1-0.4,0.2
		c-0.3,0.3,0.1,0.2,0.2,0.2c0.3,0,0.6,0.1,0.7,0.4c0.2,0.6-0.5,0.9-0.9,0.6c-0.1,0.5,0.1,1.3-0.6,1.4c-0.1,0-0.2,0-0.3-0.1
		c-0.2-0.1-0.3-0.1-0.5,0.1c-0.1,0.1-0.1,0.1-0.2,0.2c-0.2,0.2-0.5,0.3-0.8,0.3c-0.3,0-0.7,0-1-0.2c-0.1-0.1-0.2-0.1-0.2-0.3
		c0-0.2,0-0.4,0-0.6c0-0.2-0.2-0.6-0.5-0.4c-0.1,0.1-0.2,0.3-0.2,0.5c0,0.3,0.1,0.6,0.1,1c-0.1,0.3-0.2,0.5-0.5,0.6
		c-0.4,0.2-0.5,0.4-0.6,0.8c-0.2,0.6-0.6,1.2-1.1,1.6c-0.1,0.1-0.2,0.2-0.3,0.2c-0.2,0-0.3,0-0.5,0.1c-0.2,0.1-0.8,0.5-0.6,0.8
		c0.1,0.1,0.4,0.1,0.5,0.1c0.1,0,0.2,0.1,0.2,0.2c0.2,0.2,0.3,0.4,0.3,0.6c0,0.2,0,0.4,0,0.6c0,0.1,0,0.4-0.1,0.5
		c-0.2,0.2-0.7,0.1-0.9,0.1c-0.4,0-0.8-0.1-1.2,0.2c-0.1,0.1-0.2,0.3-0.2,0.5c0,0.2,0.1,0.3,0.2,0.4c0.1,0.6-0.6,1.2-0.1,1.7
		c0.3,0.2,0.6,0.4,0.9,0.5c0.2,0.1,0.5,0.2,0.7,0.1c0.2-0.1,0.3-0.2,0.5-0.3c0.3-0.2,0.7-0.4,1-0.7c0.1-0.1,0.2-0.3,0.2-0.5
		c0-0.2-0.1-0.3-0.1-0.5c0-0.2,0.2-0.3,0.3-0.4c0.2-0.1,0.3-0.2,0.3-0.4c0-0.1,0-0.2,0-0.4c0-0.2,0-0.4,0.2-0.6
		c0.2-0.2,0.5-0.1,0.7-0.1c0.6,0,0.5-1,1.1-0.9c0.3,0,0.5,0.3,0.8,0.5c0.2,0.2,0.4,0.4,0.7,0.6c0.3,0.2,0.6,0.3,0.9,0.4
		c0.2,0,0.5,0.1,0.6,0.3c0.2,0.3,0,0.6,0,0.9c0,0.2,0.2,0.4,0.2,0.2c0-0.2,0-0.4,0-0.6c0-0.3,0.3-0.9,0.7-0.7c0-0.3-0.7-0.4-0.9-0.4
		c-0.3-0.1-0.5-0.2-0.7-0.4c-0.4-0.3-0.8-0.8-1-1.3c0,0,0-0.1,0-0.1c0,0,0-0.1,0-0.1c0.9-0.4,1.4,0.7,2,1c0.3,0.2,0.7,0.3,0.9,0.6
		c0.1,0.2,0.1,0.3,0.1,0.5c0,0.1,0,0.3,0.1,0.4c0.1,0.1,0.3,0.3,0.4,0.2c0.1-0.1,0.2,0,0.2,0.1c0,0.3,0.2,0.6,0.4,0.7
		c0-0.1,0-0.3,0-0.4c0-0.1,0.1-0.1,0.1-0.1c0.2-0.1,0.2-0.2,0.1-0.3c0-0.1-0.1-0.1-0.2-0.2c0-0.1-0.1-0.1-0.1-0.2
		C30,24.6,30,24.4,30,24.3c0-0.2,0.2-0.4,0.4-0.5c0.3-0.1,0.7-0.1,0.9-0.4c0.3-0.3,0.3-0.8,0-1.1c-0.1-0.1,0-0.2,0.1-0.2
		c0.4-0.1,0.6-0.4,0.6-0.8c0-0.2-0.1-0.4,0-0.6c0.2-0.2,0.6-0.2,0.8,0c0.1,0.1,0,0.2,0.1,0.3c0.1,0.3,0.3,0.1,0.4-0.1
		c0.1-0.1,0.2-0.3,0.3-0.3c0.2-0.1,0.5,0.1,0.7,0.2c0.2,0.1,0.5,0.2,0.7,0.3c0.4,0.2,0.7,0.5,0.8,0.9c0,0.3-0.1,0.7-0.4,0.8
		c-0.3,0.1-0.6,0-0.9-0.1c-0.3-0.1-0.7-0.3-1-0.2c-0.2,0.1-0.2,0.3-0.4,0.5c-0.2,0.2-0.4,0.2-0.6,0.3c-0.3,0.2-0.5,0.4-0.7,0.7
		c-0.2,0.2-0.3,0.4-0.5,0.5c0.3,0.1,0.6,0.2,0.7,0.5c0,0.2-0.1,0.6,0.3,0.6c0.3,0,0.5-0.3,0.7-0.4c0.2-0.1,0.4-0.1,0.6-0.1
		c0.2,0,0.4,0.4,0.6,0.3c0.2-0.1,0.2-0.4,0.5-0.5c0.2-0.1,0.3-0.1,0.4,0.1c0,0,0,0,0,0c0.2,0,0.3,0.2,0.4,0.3
		c0.2,0.4-0.1,0.9-0.4,1.3c-0.6,0.8-1.6,1.2-2.5,1c-0.3-0.1-0.7-0.3-1-0.1c-0.2,0.1-0.3,0.1-0.5,0.1c-0.3,0-1-0.6-1.1,0
		c-0.1,0.3,0,0.7-0.1,1c-0.2,0.3-0.5,0.4-0.8,0.2c-0.2-0.1-0.4-0.3-0.7-0.4c-0.2-0.1-0.5-0.2-0.7-0.3C27.1,28.1,26.5,28,26,28
		c-0.1,0-0.1,0-0.1-0.1c0-0.4,0.1-0.8,0.1-1.2c-0.5,0.1-1,0.1-1.5,0.2C24,27,23.5,27,23,27.2c-0.2,0.1-0.4,0.2-0.6,0.4
		c-0.2,0.1-0.3,0.1-0.5,0.2c-0.1,0-0.3,0-0.4,0.1c-0.1,0.1-0.1,0.2-0.2,0.3c-0.1,0.1-0.2,0.1-0.3,0.2c-0.2,0-0.4-0.1-0.5-0.1
		c-0.3,0-0.4,0.2-0.5,0.5c-0.2,0.3-0.4,0.6-0.6,0.8c-0.2,0.2-0.1,0.4-0.1,0.7c0,0.1,0,0.3-0.1,0.4c-0.1,0.2-0.4,0.1-0.4,0.4
		c-0.1,0.2,0.1,0.5,0.2,0.7c0.1,0.1-0.1,0.2-0.2,0.1c-1,0.7-1.5,1.9-1.3,3.1c0.1,0.3,0.2,0.6,0.3,0.9c0.1,0.3-0.1,0.6-0.1,0.9
		c0,0.4,0.4,0.4,0.6,0.7c0.2,0.3,0.1,0.7,0.3,0.9c0.4,0.5,1,0.8,1.6,1c0.2,0.1,0.5,0.1,0.7,0.2c0.3,0.2,0.3,0.5,0.6,0.6
		c0.6,0.2,1.1-0.3,1.6-0.5c0.2-0.1,0.5-0.2,0.8-0.3c0.3,0,0.7,0.1,0.9-0.1c0.4-0.2,0.6-0.7,1-0.4c0.2,0.1,0.3,0.3,0.5,0.4
		c0.3,0.2,0.4-0.1,0.6-0.2c0.4-0.2,0.8,0.3,0.9,0.6c0.1,0.2,0.1,0.5,0.1,0.8c-0.1,0.2-0.4,0.6-0.1,0.7c0.2,0.1,0.5,0.1,0.7,0.2
		c0.2,0.1,0.3,0.2,0.4,0.4c0.1,0.3,0.1,0.6,0.2,0.8c0.1,0.2,0.4,0.3,0.5,0.5c0.2,0.5-0.1,1-0.2,1.4c-0.1,0.2-0.1,0.5,0.1,0.6
		c0.1,0.1,0.3,0.2,0.4,0.2c0.2,0.1,0.4,0.2,0.5,0.4c0.3,0.5,0.2,1.1,0.6,1.5c0.4,0.4,1.1,0.5,1.7,0.4c0.7-0.1,1.3-0.5,1.9-0.8
		c0.6-0.3,1.2-0.8,1.2-1.6c0,0,0,0,0-0.1c-0.1-0.1,0-0.2,0.1-0.1c0.3,0.2,0.5-0.3,0.5-0.5c0-0.2-0.1-0.4-0.1-0.7
		c0-0.3,0.2-0.6,0.5-0.8c0.3-0.2,0.7-0.3,1-0.6c0.3-0.4,0.4-1,0.4-1.5c0-0.5-0.1-0.9-0.1-1.4c0-0.3,0.1-0.6,0.3-0.8
		c0.2-0.3,0.5-0.5,0.7-0.7c0.3-0.3,0.2-0.7,0.4-1c0.2-0.3,0.5-0.6,0.8-0.8c0.3-0.3,0.5-0.7,0.7-1.1c0.2-0.4,0.3-0.8,0.4-1.2
		c0-0.1,0-0.2,0-0.3c0,0,0-0.1,0-0.2c-0.1,0-0.2-0.1-0.2-0.1c0,0,0,0-0.1,0c-0.1,0.1-0.3,0.3-0.4,0.4c-0.2,0.3-0.5,0.5-0.8,0.5
		c-0.3,0.1-0.7-0.1-0.9-0.3c-0.7-0.5-0.8-1.3-1.3-2c-0.8-1.3-2.2-2.1-3.1-3.4c-0.1-0.1,0-0.2,0.1-0.2c0.2,0,0.3,0,0.3-0.2
		c0-0.1,0.1-0.2,0.2-0.1c0.7,0.8,1.5,1.7,2.2,2.5c0.3,0.3,0.6,0.6,0.8,1c0.2,0.4,0.1,0.9,0.4,1.2c0.7,0.7,1.9-0.3,2.4-0.7
		c0.4-0.3,0.6-0.7,0.9-1.1c0.3-0.4,0.6-0.8,0.8-1.2c0.1-0.2,0.3-0.5,0.2-0.7c-0.1-0.2-0.3-0.2-0.4-0.4c-0.2-0.2-0.4-0.4-0.5-0.6
		c-0.2,0.3-0.4,0.5-0.8,0.5c-0.2,0-0.3,0-0.5-0.1c-0.1-0.1-0.3-0.5-0.5-0.4c-0.1,0-0.1,0-0.1-0.1c-0.2-0.3-0.5-0.6-0.7-1
		c-0.1-0.2-0.3-0.4-0.1-0.6c0.4-0.4,1.1,0,1.4,0.2c0.3,0.2,0.5,0.5,0.9,0.7c0.4,0.2,0.8,0.2,1.2,0.2c0.8,0,1.6,0,2.4,0
		c0.1,0,0.1,0.1,0.1,0.2c0,0.2-0.1,0.3,0,0.5c0.1,0.2,0.2,0.2,0.4,0.1c0.1-0.1,0.1-0.2,0.2-0.3c0.3-0.1,0.5,0.2,0.5,0.4
		c0,0.2,0,0.3,0,0.5c0,0.3,0,0.5,0,0.8c0,0.5,0.1,1,0.2,1.5c0,0.1,0,0.1,0,0.2c0.1,0,0.1,0,0.2,0.1c0.1,0,0.1-0.3,0.2-0.4
		c0.1-0.2,0.1-0.4,0.2-0.6c0.1-0.4,0.3-0.9,0.4-1.3c0.3-0.8,0.7-1.7,1.2-2.5c0,0,0.1-0.1,0.1-0.1c0,0.1,0.1,0.2,0.1,0.3
		c0,0.3,0.1,0.7,0.1,1c0,0-0.1,0-0.1-0.1c0,0,0,0,0,0c0.1,0.1,0.1,0.2,0.2,0.3c0,0,0,0,0,0c0,0,0,0,0,0c0,0.1,0,0.1,0.1,0.2
		c0,0,0,0,0,0c0,0,0,0,0,0c0,0,0,0,0,0c0-0.1,0-0.1,0-0.2c0,0,0,0,0.1,0c0,0,0,0,0,0c0-0.1,0-0.2,0-0.3c0,0,0.1,0,0.1,0.1
		c0,0,0.1,0,0,0c0-0.1-0.1-0.2-0.1-0.3c0-0.1,0-0.1,0-0.2C49.5,27.7,49.6,27.7,49.7,27.7C49.6,27.7,49.6,27.7,49.7,27.7
		C49.6,27.7,49.6,27.7,49.7,27.7C49.6,27.8,49.7,27.7,49.7,27.7"/>
</g>
</svg>
