<?xml version="1.0" encoding="utf-8"?>
<!-- Generator: Adobe Illustrator 25.4.1, SVG Export Plug-In . SVG Version: 6.00 Build 0)  -->
<svg version="1.1" id="Layer_1" xmlns="http://www.w3.org/2000/svg" xmlns:xlink="http://www.w3.org/1999/xlink" x="0px" y="0px"
	 viewBox="0 0 50 50" style="enable-background:new 0 0 50 50;" xml:space="preserve">
<style type="text/css">
	.st0{clip-path:url(#SVGID_00000081635832619742495600000001530107934490178208_);fill:#F5F5F5;}
	.st1{clip-path:url(#SVGID_00000081635832619742495600000001530107934490178208_);fill:#ED8200;}
</style>
<g>
	<defs>
		<rect id="SVGID_1_" y="0" width="50" height="50"/>
	</defs>
	<clipPath id="SVGID_00000181805549867366387620000010700275131383382660_">
		<use xlink:href="#SVGID_1_"  style="overflow:visible;"/>
	</clipPath>
	<path style="clip-path:url(#SVGID_00000181805549867366387620000010700275131383382660_);fill:#F5F5F5;" d="M50,25
		C50,11.2,38.8,0,25,0C11.2,0,0,11.2,0,25s11.2,25,25,25C38.8,50,50,38.8,50,25"/>
	<path style="clip-path:url(#SVGID_00000181805549867366387620000010700275131383382660_);fill:#ED8200;" d="M24.2,35.4
		c0.1-0.1,0.3-0.2,0.3-0.1C24.5,35.4,24.3,35.4,24.2,35.4 M19.5,7.3c-0.1,0-0.2,0.1-0.4,0.3c-0.2,0.2-0.3,0.2-0.5,0.2
		c-0.2,0-0.2,0-0.7,0.2c-0.4,0.1-0.3,0.1-0.5-0.1s-0.3-0.2-0.3-0.2c0-0.1,0.4,0,0.5-0.1c0.1-0.1,0.3-0.3,0.3-0.3S17.9,7,18.1,6.9
		c0.1,0,0.1,0.1,0.2,0.3c0.1,0.2,0.2,0.3,0.4,0.2C19,7.4,19,7.3,19.5,7.3C19.9,7.2,19.7,7.3,19.5,7.3 M17.1,5.9c0,0,0.1,0,0.5-0.1
		c0.4-0.1,0.1-0.1-0.2-0.1c-0.2-0.1-0.2,0-0.6-0.1c-0.5-0.1,0.3-0.1,0.8-0.1c0.5,0,0.1,0,0.6,0.1c0.2,0,0,0.2,0.2,0.3
		c0.3,0.1,0,0.1,0,0.2c0,0.1-0.1,0.2-0.3,0c-0.2-0.1-0.2,0-0.2,0.1c-0.1,0.1-0.4,0.3-0.4,0.3S17.2,6.3,17,6.1
		C16.8,6,17.1,5.9,17.1,5.9 M14.7,17.7c-0.2,0.3-0.2,0.2-0.5,0.2c-0.3,0,0-0.2,0-0.6c0-0.5,0-0.3,0.4-0.3
		C14.9,16.9,14.9,17.4,14.7,17.7 M20.9,9.8c0-0.3,0-0.3,0.3-0.2c0.1,0,0.2,0.1,0.1,0.4c-0.1,0.3-0.2,0.1-0.4,0.3
		C20.5,10.5,20.8,10.1,20.9,9.8 M21.7,11.8c0,0,0.2,0.3,0.1,0.4c-0.1,0.1-0.1,0.2,0.1,0.3c0.2,0.1,0.2,0.1,0.2,0.2
		C21.9,13,22,13,22.1,13.3c0.1,0.3-0.3,0.1-0.3-0.1c0-0.3-0.1-0.2-0.3-0.3c-0.2-0.1-0.2-0.2-0.1-0.4c0-0.1,0.1-0.2-0.2-0.4
		C21,11.8,21.2,11.8,21.7,11.8 M22.3,11.8c0.2,0,0-0.2,0.1-0.4c0-0.2,0.2-0.1,0.6-0.1c0,0,0.1,0.1-0.1,0.2c-0.2,0-0.1,0.1-0.1,0.2
		c0,0.1,0,0.1-0.1,0.4c0,0.2,0,0.3,0.1,0.5c0.2,0.2,0.1,0.2,0.1,0.6c0.1,0.4-0.2,0.2-0.4,0.3c-0.2,0.1,0,0,0-0.2s0.1-0.3-0.1-0.6
		c-0.1-0.3-0.2-0.1-0.2-0.3c0-0.2,0.1-0.2-0.1-0.4C21.9,11.8,22.1,11.8,22.3,11.8 M24.8,14.5c0.7-0.2,0.5-0.4,0.9-0.1
		c0.4,0.3,0.6,0.1,0.7,0.4c0.1,0.3,0.5,0.6,0.5,0.6l0.6,0.1l1,0.2c0,0,0.3,0.1,0.4,0.3c0.1,0.2,0.3,0.3-0.1,0.3
		c-0.4,0-0.9-0.2-0.9-0.2s-0.1,0.1-0.1,0.5c0,0.4,0.2,0.3-0.1,0.5c-0.3,0.2-0.9,0.4-0.4,0.4c0.5,0,0.8-0.3,1.1-0.1
		c0.2,0.1,0.4-0.2,0.6-0.2c0.2,0,0-0.2,0.2-0.4c0.3-0.2,0.3-0.3,0.7-0.3c0.4,0,0.3-0.1,0.7-0.1c0.4,0,0.7,0.3,0.2,0.4
		c-0.5,0.1-0.6,0-1,0.1c-0.4,0.2-0.4-0.1-0.5,0.3c-0.1,0.4,0.2,0.3-0.2,0.5c-0.5,0.2-0.2,0-0.8,0.1c-0.5,0.1-0.4,0.1-0.9,0.1
		c-0.4,0-0.8,0-0.6-0.4c0.2-0.3,0.8-0.2,0.6-0.6c-0.1-0.4-0.3-0.3-0.5-0.2c-0.2,0.1,0.1-0.3,0.1-0.5c0-0.1-0.1-0.3-0.4-0.4
		c-0.3-0.1-0.3-0.3-0.5,0.1c-0.2,0.4-0.2,0.1-0.3,0.3c-0.1,0.2-0.1,0-0.1,0.6c0,0.6,0.1,1-0.4,1.1c-0.5,0.1-0.6-0.8-0.4-1.1
		c0.2-0.4,0.4-0.6,0.2-0.6c-0.3,0,0-0.5,0.3-0.6c0.3-0.1,0.5,0,0.7-0.1c0.3,0,0.5,0,0.5-0.1c0-0.1-0.3-0.4-0.6-0.4
		c-0.3,0.1-0.1,0.1-0.5,0.1c-0.4,0-0.8,0-0.7-0.1c0.1-0.1,0.2-0.1-0.1-0.2C24.5,15,24.8,14.5,24.8,14.5 M33.6,10.5
		c0.1,0,0.2,0.1,0.3,0.1c0.1,0.1,0.2,0.1,0.4,0c0.2-0.1,0.3,0,0.5,0c0.2,0.1,0,0.2-0.3,0.2c-0.2,0.1,0,0.1-0.2,0.1
		c-0.2,0-0.1,0.1-0.1,0.2c-0.1,0.1-0.2-0.2-0.5-0.4C33.4,10.7,33.4,10.6,33.6,10.5 M46.1,37c0,0-0.6,0.1-0.7,0.1
		c-0.1,0-0.4,0.1-0.5,0.2c-0.1,0.1-0.1,0-0.5,0.1c-0.4,0.1-0.5,0-0.2-0.4c0.2-0.4,0.1-0.5,0-0.8c0-0.3,0.4-0.5-0.3-0.5
		c-0.7,0-0.7-0.2-1.2,0.1c-0.5,0.3-0.9,0.6-0.9,0.6l-0.5-0.3c0,0-0.6-0.6-0.7-0.6c-0.1,0-0.5,0-0.5,0s-0.1-0.4,0-0.7
		c0.1-0.3,0-0.4-0.2-0.3c-0.2,0.1-0.6,0.3-0.6,0.3s-0.6,0.1-1,0.3c-0.4,0.2-0.4,0.4-1.1,0.3c-0.6-0.1-0.7,0.5-1.2,0.2
		c-0.5-0.3-0.7-0.4-1-0.7c-0.2-0.2-0.4-0.1-0.3,0.3c0.1,0.4,0.5,0.3,0.1,0.5c-0.5,0.2-0.7-0.1-0.6,0.5c0.1,0.5,0.1,0.9-0.1,0.9
		c-0.2,0-0.5-0.4-0.2-0.8c0.3-0.4,0-0.5,0-0.5s0.1-0.3,0.3-0.3c0.2,0,0.3-0.4,0-0.4c-0.3,0.1-0.3-0.1-0.4,0.2
		c-0.1,0.3-0.2,0.4-0.5,0.5c-0.3,0.1-0.4,0-0.6,0.2c-0.2,0.2,0,0.2-0.4,0.2c-0.4,0-0.5,0.1-0.5,0.4c0,0.3-0.1,0.3-0.3,0.5
		c-0.2,0.2-0.2,0.2-0.3,0.4C31,37.5,31,37.5,31,37.6c0,0.1-0.2,0.1-0.2,0.1c-0.1,0-0.2-0.2-0.5-0.4c-0.3-0.2-0.5-0.3-0.9-0.3
		c-0.4,0-0.7,0.8-1.2,0.5c-0.5-0.2-0.5-0.3-0.8-0.5c-0.3-0.2-0.2-0.2-0.3-0.5c-0.1-0.3-0.2-0.3,0-0.5c0.1-0.2,0.2-0.4,0.1-0.8
		c0-0.4,0.3-1,0-1.2c-0.3-0.2,0.4-0.2-0.6-0.2c-1,0-0.8-0.2-1.5-0.1c-0.7,0.1-1,0.2-1.2,0.2c-0.2,0-0.5-0.1-0.1-0.4
		c0.4-0.3,0.5-0.1,0.5-0.5c0-0.4-0.2-0.7,0.1-0.6c0.2,0.1,0.4-0.1,0.5-0.2c0.1-0.2-0.2-0.5,0.1-0.8c0.4-0.3,0.7-0.5,0.1-0.5
		c-0.6,0-0.1-0.3-0.8-0.2c-0.7,0.1-0.7,0-0.8,0.3c0,0.2-0.6-0.2-0.3,0.4c0.2,0.6,0.3,0.8,0,0.9c-0.2,0-0.1,0-0.6,0.1
		c-0.5,0.1-0.9,0.5-1,0.2C21.4,32,21.6,32,21.2,32s-0.5,0.2-0.6-0.4c-0.1-0.5-0.7-1-0.5-1c0.3,0,0.2-0.3,0.1-0.6
		c-0.1-0.3-0.1-0.7-0.1-1s0-0.9,0.2-0.7c0.2,0.2,0.2,0.1,0.2-0.3s-0.3-0.6-0.1-0.9c0.2-0.3,0-0.3,0.4-0.5c0.5-0.2,0.3-0.2,0.8-0.2
		c0.5,0,0.4,0.1,0.6-0.1c0.2-0.2,0-0.6,0.2-0.4c0.2,0.2,0.1,0.1,0.6,0.1c0.5,0,0.7,0.2,0.8-0.2c0.1-0.4-0.1-0.4,0.4-0.4
		c0.6,0,0.8-0.1,1.1-0.1c0.2,0,0.3-0.2,0.3,0.1c0.1,0.3,0.3,0.2,0.5,0.1c0.2,0,0.2-0.3,0.4-0.1c0.2,0.2,0.6,0.4,0.7,0.6
		c0.1,0.2,0.2,0.3,0.1,0.6c-0.1,0.3-0.3,0.5-0.1,0.6c0.2,0.2,0.3,0.1,0.3,0.4c0,0.3,0.2,0.5,0.2,0.6c0,0.1,0.3,0.2,0.4,0.2
		c0.1,0,0.5-0.3,0.2-1.3c-0.3-0.9-0.1-1-0.2-1.5c-0.1-0.5-0.2-0.6,0.1-1c0.3-0.5,0.4-0.6,0.8-0.8c0.4-0.2,0.5-0.3,0.8-0.7
		c0.3-0.4,0.5-0.6,0.9-0.7c0.4-0.2,0.1-0.2,0.1-0.4c0-0.2,0.2-0.1,0.4-0.2c0.1-0.1,0.3-0.1,0.2-0.3c-0.1-0.1-0.3,0-0.3-0.1
		c0-0.1,0.4-0.3,0.3-0.4c-0.1-0.1-0.2-0.1-0.4-0.1c-0.2,0.1-0.4,0-0.3-0.1c0.1-0.1,0.2,0.1,0.2-0.3c0-0.4-0.3-0.8-0.2-1
		c0.1-0.2,0.1-0.4,0.2,0.2c0,0.5-0.1,1.1,0.2,0.9c0.2-0.2,0.5-0.3,0.3-0.6c-0.1-0.3-0.3-0.5-0.1-0.4c0.2,0.1,0.2,0.5,0.4,0.2
		c0.2-0.2,0.4-0.4,0.3-0.6c-0.2-0.2,0-0.4,0-0.5c0-0.1-0.2-0.3,0.1-0.3c0.3,0,0.6,0.2,0.7-0.1c0.1-0.2,0.2-0.3,0.1-0.3
		c-0.2,0-0.4,0.2-0.5,0.2c-0.1,0,0.2-0.2,0.5-0.3c0.3-0.1,0-0.1,0.3-0.1c0.3,0,0.6,0.1,0.6-0.1s-0.3-0.4-0.4-0.3
		c-0.1,0.1-0.2,0-0.2-0.2c0-0.2,0.2-0.3,0.3-0.5c0.1-0.2,0.4-0.5,0.5-0.6c0.1-0.1,0.4,0.1,0.5-0.1c0.1-0.3,0.1-0.4,0.1-0.4
		c0,0,0.2,0.1,0.3-0.1c0.1-0.2,0.2-0.5,0.2-0.3c0,0.2-0.1,0.3,0.2,0.1c0.2-0.2,0.3-0.4,0.3-0.3c0,0.2,0.1,0.3,0.2,0.2
		c0.1-0.1,0.1,0.2,0,0.2c-0.1,0-0.4-0.3-0.4,0c0,0.3-0.1,0.1-0.1,0.3c0,0.2,0,0.8,0.3,0.5c0.3-0.3,0.3-0.4,0.5-0.6
		c0.2-0.2,0.6-0.3,0.6-0.3l0.3-0.4c0,0,0.2-0.2,0-0.2c-0.3,0-0.2,0-0.4,0c-0.2,0.1-0.3,0.1-0.4-0.1c-0.1-0.1-0.1-0.1-0.3-0.1
		c-0.2,0-0.3,0.1-0.4-0.3c-0.1-0.4,0.3-0.4-0.1-0.4c-0.4,0-0.4,0-0.6,0.1c-0.2,0.1-0.3,0-0.2-0.1c0.1-0.1,0.3-0.1,0.5-0.2
		c0.2-0.1,0.5-0.1,0.3-0.3c-0.2-0.2-0.5-0.3-0.5-0.3l-0.8,0.3l-0.5,0.4c0,0-0.3,0.3-0.4,0.5C33.1,15,32.8,15.2,33,15
		c0.1-0.2,0.3-0.6,0.5-0.9c0.2-0.2,0.3-0.3,0.5-0.5c0.2-0.2,0.2-0.6,0.4-0.6c0.3,0,0.5,0,1-0.1c0.5-0.1,1-0.1,1.2-0.2
		c0.2-0.1,0.2-0.2,0.3-0.4c0.1-0.2,0.1-0.1,0.3-0.2c0.3-0.1,0.3-0.4,0.3-0.5c0-0.2-0.3-0.2-0.3-0.4c0-0.2,0-0.4-0.1-0.3
		c-0.1,0.1-0.1,0.4-0.2,0.3c-0.1-0.1,0.1-0.4-0.2-0.3c-0.3,0.1-0.2,0-0.4,0.3c-0.3,0.3-0.5,0.3-0.3,0c0.2-0.3,0.5-0.4,0.7-0.5
		c0.1-0.1-0.2-0.1-0.6-0.2c-0.4-0.1-0.6-0.2-0.7-0.3c-0.1-0.1-0.2-0.1-0.3-0.1c0,0-0.1-0.1-0.5-0.5c-0.4-0.3-0.8-0.8-1.1-1
		c-0.2-0.3-0.3-0.6-0.3-0.3c-0.1,0.4,0.1,0.5-0.1,0.7c-0.2,0.1-0.1,0.2-0.4,0.3c-0.2,0.1-0.1,0-0.3,0C32.2,9.2,32,9.4,32,9.2
		c0-0.2,0.4,0.1,0-0.3c-0.4-0.3-0.2-0.2-0.1-0.4c0-0.3-0.5-0.3-0.8-0.4c-0.3-0.1-0.1-0.2-0.5-0.2c-0.4,0-0.7-0.1-0.8-0.1
		c-0.1,0-0.8-0.2-0.8-0.2s-0.3-0.3-0.3,0.1c0,0.4,0,0.4,0,0.6s0.2,0.4,0.2,0.4s0.2-0.2,0.3,0c0.1,0.1-0.4,0.2-0.5,0.3
		c-0.1,0.1-0.2,0,0.1,0.2c0.3,0.2,0.5,0.3,0.6,0.4c0.1,0.1,0.2,0.4,0.2,0.4s0.3,0.2,0.1,0.2c-0.1,0-0.1,0.1-0.3,0.3
		c-0.2,0.3-0.5,0.4-0.7,0.5c-0.2,0.1-0.2,0.1-0.1,0.3c0.1,0.2,0.3,0.2,0.3,0.4c0,0.2-0.1,0.1,0.1,0.4l0.2,0.3c0,0-0.2-0.2-0.1,0.1
		c0.1,0.2,0.1,0.4-0.1,0.2c-0.1-0.2-0.1-0.3-0.2-0.2c-0.1,0.1-0.1,0.1,0,0.3c0.1,0.2,0.2,0.5,0.1,0.3c-0.1-0.2-0.1-0.4-0.3-0.3
		c-0.2,0.1-0.3,0.2-0.4,0.2c-0.1,0,0-0.2,0-0.2l0.2-0.3L28,12.4c0,0-0.4,0.1-0.3-0.1c0.1-0.2-0.1-0.2-0.2-0.2
		c-0.1,0-0.3-0.2-0.1-0.2c0.2,0,0.2,0,0.3-0.1c0.1-0.1-0.1-0.3-0.1-0.4c-0.1-0.1,0.1-0.4-0.2-0.4c-0.3,0-0.7,0.1-0.8,0
		c-0.1-0.1-0.2-0.2-0.4-0.3c-0.2-0.1-0.5,0-0.6,0c-0.1,0,0-0.1-0.1-0.2c-0.1-0.1-0.3-0.2-0.4-0.2c-0.1,0-0.2,0-0.2,0
		s-0.2-0.1-0.2-0.3c0-0.2-0.1-0.4-0.3-0.3c-0.1,0.1-0.2,0.3-0.2,0.3S24,9.6,24,9.4c0-0.2,0.2-0.1,0.2-0.3c0-0.2,0,0,0.2-0.3
		c0.1-0.2,0.2-0.5,0.4-0.4c0.3,0,0.4,0.1,0.4-0.3c0-0.3,0.1-0.7,0.3-0.9c0.2-0.1,0,0,0.3-0.2C26,7,26.2,6.9,26.1,6.8
		c-0.2-0.1-0.3,0.1-0.4-0.1c-0.1-0.1-0.4-0.2-0.1-0.2c0.3,0,0.4,0.2,0.6,0.2c0.1,0,0.3-0.2,0.4-0.3c0-0.1,0.1,0,0.2-0.1
		c0.1-0.1,0-0.2,0.2-0.1c0.2,0.1,0.3,0.1,0.3,0c0-0.2,0.2-0.2,0.2-0.4c0-0.1-0.2,0-0.2-0.3c-0.1-0.2-0.1-0.4-0.2-0.5
		C26.8,5,26.7,4.9,26.6,5s-0.2,0.1-0.2,0.3c0,0.1,0,0.3,0,0.3s-0.1,0-0.2,0.2c-0.2,0.2-0.1,0.5-0.3,0.1c-0.1-0.4-0.1-0.5-0.2-0.6
		c-0.1,0-0.1,0-0.3,0c-0.1,0-0.1,0-0.3,0c-0.2,0-0.3-0.1-0.3,0c0,0.1,0,0.3,0.1,0.3c0.1,0,0,0.1-0.2,0.2c-0.2,0.1-0.3,0.2-0.3,0.2
		s0.2,0.1,0.1,0.2c-0.1,0.1-0.1,0.1-0.2,0.1c-0.1,0-0.2-0.1-0.2-0.3c0.1-0.1,0-0.1,0.1-0.2c0.1-0.2,0.2-0.2,0.2-0.3
		c0,0-0.1-0.2-0.3-0.3c-0.2-0.1-0.3-0.3-0.4-0.1c-0.1,0.1-0.3,0.2-0.3,0.3c0,0.1,0.2,0,0.3,0.1c0.1,0,0.1,0.2,0.1,0.2s0,0.1-0.1,0.1
		c-0.1,0-0.2,0.1-0.2,0.1s0.2,0.2-0.2,0c-0.4-0.2-0.6-0.3-1-0.5c-0.4-0.2-0.4-0.4-0.5-0.2c-0.1,0.2,0.1,0.2-0.2,0.3
		c-0.3,0-0.3,0-0.4,0.1C21,5.6,21,5.8,21,5.8l0,0.2c0,0-0.1,0.2-0.1,0.2c0,0-0.1,0-0.2-0.1c0,0,0.1-0.2,0.1-0.3c0,0-0.1-0.3-0.1-0.3
		s-0.1-0.2-0.3-0.2c-0.2,0-0.4,0.1-0.4,0.1s-0.4-0.1-0.4-0.2c0-0.1,0.3-0.1,0.2-0.1c0,0,0.1-0.1-0.2-0.1c-0.3,0-0.7-0.1-0.7-0.4
		c0-0.2-0.2-0.2-0.4-0.2c-0.2,0,0-0.2-0.3-0.1c-0.3,0.1-0.4,0-0.4,0s0.1-0.1-0.3-0.1c-0.4,0-0.3,0-0.5,0.1c-0.2,0.1-0.2,0-0.2-0.1
		C16.6,4,16.4,4,16.3,4C16.1,4,16,4.1,16,4.1s0-0.1-0.1-0.4c-0.1-0.2,0-0.2-0.2-0.2c-0.3-0.1-0.5-0.2-0.4-0.3
		c0.2-0.1,0.5-0.3,0.3-0.4c-0.2-0.1-0.2-0.2-0.5-0.1c-0.4,0.1-0.5-0.1-0.6,0.1c-0.1,0.2,0,0.2-0.4,0.3c-0.4,0.1-0.3,0.1-0.5,0.3
		c-0.2,0.2-0.2,0.3-0.2,0.2c-0.1-0.1,0-0.4,0.2-0.6c0.1-0.1,0.2-0.3,0.3-0.4c-0.3,0.2-0.7,0.3-1,0.5c-0.1,0.1-0.1,0.2-0.2,0.3
		c0,0.3,0.2,0.5-0.1,0.5c-0.3,0.1-0.3,0.2-0.5,0.3c-0.1,0,0-0.1-0.4-0.1c-0.2,0-0.3,0-0.4,0C11,4.3,10.5,4.7,10,5
		c0.3,0.3,0.2,0.6,0.2,0.6L9.6,6L8.7,6.3c0,0,0.3,0.3,0.8,0.1c0.5-0.1,0.8-0.7,0.8-0.5c0,0.2-0.3,0.4-0.5,0.5
		c-0.2,0.2,0.5-0.1,0.7-0.2c0.1-0.2,0.3-0.8,0.5-0.7c0.2,0.1,0.2,0.4,0.2,0.4L11,6.2l0.4,0.2l0.7,0.3c0,0,0,0,0,0.2
		c0,0.2-0.2,0.2-0.1,0.3C12,7.3,12,7.3,11.9,7.5c-0.1,0.2-0.2,0.4-0.3,0.5c0,0.1,0.1,0.1,0.2,0c0-0.1,0.1-0.3,0.1-0.3
		s0.2-0.4,0.3-0.4c0.1,0,0.1,0.2,0.1,0.2l-0.2,0.4c0,0,0,0.1,0,0.2c0,0.1,0,0.1,0,0.2c-0.1,0-0.2-0.2-0.1,0c0.1,0.2,0.1,0.2,0,0.3
		c-0.1,0.1-0.2,0.1-0.1,0.2C12,9,12.2,8.7,12.2,8.8c0.1,0.1,0.1,0,0.1,0.2c0,0.1,0.1,0.2,0,0.3c-0.1,0.1-0.3-0.1-0.4-0.1
		c-0.1,0-0.1,0-0.1,0.1c0,0.1-0.1,0.1,0,0.2c0.1,0.1,0,0.2,0,0.2c0,0.1,0.6-0.2,0.4,0c-0.2,0.2-0.3,0.2-0.4,0.4
		c-0.1,0.2-0.2,0.4,0,0.4c0.2,0,0.3-0.2,0.4-0.2c0.1,0,0,0.1-0.1,0.2c-0.1,0.1-0.3,0-0.4,0.1c-0.1,0.2-0.1,0.2-0.2,0.3
		c-0.1,0.1-0.1,0.1,0,0.2c0.1,0.1,0.5,0,0.4,0c0,0-0.1,0-0.2,0.1c-0.1,0.1-0.1,0.2,0,0.2c0.1,0,0.2,0,0.3-0.1c0.1-0.1,0.2-0.2,0.1,0
		c-0.1,0.1-0.2,0.1-0.2,0.2c0,0.1,0.1,0,0,0.1c0,0.1,0,0.2,0,0.2c0,0,0.2,0,0.2-0.1c0,0,0.1-0.1,0.1,0c-0.1,0.1-0.2,0.2-0.1,0.3
		c0.1,0.1,0.1,0.2,0.1,0.2l-0.1,0.2l0,0.3c0,0-0.1,0.3-0.2,0.5c-0.1,0.2-0.2,0.5-0.2,0.5h-0.2l0-0.6c0,0-0.1-0.4-0.1-0.4
		c0,0-0.1-0.1-0.2,0c-0.1,0.1-0.1,0.3-0.1,0.3s0,0.1,0,0.2c-0.1,0.1-0.1,0.3-0.1,0.3s-0.2,0.1-0.4,0.5c-0.1,0.4-0.2,0.4-0.3,0.7
		c-0.1,0.3,0,0.5-0.2,0.7c-0.3,0.2-0.3,0.1-0.4,0.4c-0.1,0.3,0,0.4-0.1,0.6c-0.2,0.3-0.2,0.3-0.3,0.5c0,0.2-0.1,0.5-0.1,0.7
		c0,0.2-0.2,0.4,0,0.5c0.2,0.1,0.1,0.1,0.2,0.1c0.1,0,0.1-0.1,0.2,0c0.2,0.1,0.3,0,0.2,0.1c-0.1,0.1-0.2,0.2-0.2,0.2
		s-0.1-0.1-0.1,0.1c0,0.2-0.2,0.2-0.2,0.2c0,0.1,0.2,0.2,0.2,0.2s-0.3,0-0.1,0.3c0.1,0.3,0.1,0.2,0.1,0.4s0.1,0.4,0.1,0.4l0.2,0.3
		l0.2,0.2c0,0-0.2,0,0.1,0.2c0.3,0.2,0.2-0.2,0.3,0.2c0.1,0.4,0,0.6,0,0.6l0.2,0.2c0,0,0.1,0.1,0.1,0.4c0,0.3,0,0.1,0,0.5
		c0,0.4,0,0.4,0.1,0.7c0.1,0.2,0.5,0.4,0.5,0.5c0.1,0.1,0.1,0.4,0.1,0.4s0,0.1,0,0.3c0,0.2,0,0.1-0.2,0c-0.2-0.2-0.3,0-0.3,0
		s0,0.1,0.1,0.3c0.2,0.2,0.4,0.4,0.4,0.4s0.1-0.1,0.2,0.2c0.1,0.3,0.1,0.2,0.1,0.5c0,0.2-0.1,0.6,0.3,0.9c0.4,0.3,0.2,0.2,0.4,0.6
		c0.2,0.4,0.4,0.6,0.5,0.7c0.2,0.1,0.7,0.6,0.4,0c-0.3-0.6-0.5-0.6-0.6-0.8c-0.1-0.2,0-0.5-0.2-1c-0.2-0.6-0.5-1.2-0.6-1.6
		c-0.1-0.4,0-0.8-0.4-1.5c-0.3-0.7-0.5-1.1-0.2-0.9c0.3,0.2,0.6-0.1,0.7,0.3s0,1,0,1s0,0.1,0.3,0.7c0.3,0.6,0.4,0.6,0.5,0.8
		c0.1,0.1,0.2,0.5,0.2,0.5s0.5,0.2,0.5,0.4s-0.2,0.1,0,0.5C14,27,13.7,26.7,14,27c0.3,0.3,0.5,0.7,0.5,0.7l0.7,0.9
		c0,0,0,0.2,0.1,0.5c0.1,0.3,0.4,0.2,0.2,0.4c-0.2,0.2-0.4,0.2-0.3,0.3c0.1,0.1,0.1,0.1,0.1,0.2c-0.1,0.1,0.2,0.4,0.3,0.7
		c0.1,0.4,0.3,0.4,0.5,0.6c0.2,0.2,0.2,0.2,0.4,0.5c0.1,0.2,0,0.1,0.4,0.2c0.5,0.2,0.6,0.4,0.8,0.5c0.1,0.1,0.3,0.1,1.1,0.5
		c0.8,0.4,1,0.6,1.3,0.7c0.4,0.1,0.4,0.3,0.7,0.2c0.3-0.1,0.4-0.2,0.6-0.1c0.2,0.1,0.1,0.3,0.3,0.2c0.2-0.1,0.3-0.1,0.4,0
		c0.1,0.2,0.5,0.5,0.5,0.5s-0.4,0.2,0.2,0.5c0.5,0.3,1,0.6,1.2,0.5c0,0,0.1,0.1,0.2,0.2c0.5,0.3,0.7,0.5,0.8,0.7
		c0.1,0.2,0.2,0.5,0.2,0.6c0,0.1,0,0.2,0.2,0.3c0.2,0.1,0.5,0,0.7,0.2c0.2,0.1-0.1,0.2,0.3,0.4c0.4,0.2,0.6,0.2,0.6,0.2l0.2-0.1
		L28,38c0,0,0.2,0.1,0.3,0.2c0,0.1-0.1,0.2,0.1,0.3c0.2,0.1,0.4,0,0.4,0s0.5-0.1,0.4-0.3C29,38,28.6,38,28.9,37.9
		c0.3-0.2,0.4-0.2,0.5-0.3c0.1-0.1,0.2-0.1,0.4,0.1c0.2,0.2,0.3,0,0.2,0.2c-0.1,0.2-0.1,0.3,0,0.3c0.2,0,0.3,0.1,0.3,0.1
		s0.2,0.1,0.2,0.2c0,0.1-0.2,0.1-0.2,0.2c0,0.2-0.2,0.1-0.1,0.3c0.1,0.2-0.1,0.2,0,0.4c0.1,0.2-0.2,0.2,0,0.4s0.1,0.5-0.3,0.6
		c-0.4,0.1-0.2-0.2-0.4,0.2c-0.2,0.4-0.1,0.4-0.3,0.4c-0.2,0-0.4,0.2-0.6,0.3c-0.3,0.1-0.2-0.1-0.4,0.3c-0.1,0.4,0,0.4-0.3,0.6
		c-0.3,0.2-0.2,0.5-0.2,0.5s1.1-0.1,0.6,0.1c-0.4,0.3-0.4,0.3-0.5,0.4c-0.1,0.1-0.2,0.2-0.2,0.2l-0.2,0.3l0,0.4c0,0,0.1-0.1,0.4,0.1
		c0.3,0.2,0.4,0.2,0.4,0.3c0,0.1,0.2,0.4,0.6,0.8c0.4,0.4,0.5,0.5,0.7,0.6c0.2,0.1,0.3,0.1,0.3,0.3c0,0.2,0,0.1,0.4,0.2
		c0.4,0.1,0.7,0.2,1,0.2c0.3,0,0.9,0.1,1.1,0.1c0.2,0,0.3,0,0.2,0.1c-0.1,0.1-0.4,0.7-0.7,1c-0.3,0.3-0.4,0.5-0.8,0.6
		c-0.4,0.1-0.7,0.3-0.9,0.4c-0.3,0.1-0.4,0.5-0.4,0.5c7.7-1.4,14.2-6.4,17.7-13.2l-0.5,0.1L46.1,37z"/>
	<path style="clip-path:url(#SVGID_00000181805549867366387620000010700275131383382660_);fill:#ED8200;" d="M26.7,6.8
		c-0.2-0.1-0.2-0.3-0.2-0.1c0,0.2-0.2,0.2,0,0.4c0.2,0.2,0.2,0.2,0,0.2c-0.1,0-0.2,0.1-0.1,0.2c0.1,0.2,0,0.3,0.2,0.2
		c0.2-0.1,0.4-0.2,0.5-0.3c0.1-0.1,0.1-0.2,0.2-0.1s0.3,0.1,0.5,0.1c0.2-0.1,0.3-0.2,0-0.2c-0.3,0-0.4,0-0.4-0.1
		c0-0.1,0.1-0.2-0.2-0.2C26.9,6.9,26.7,6.8,26.7,6.8"/>
	<path style="clip-path:url(#SVGID_00000181805549867366387620000010700275131383382660_);fill:#ED8200;" d="M27.4,7.7
		c-0.3,0-0.4-0.1-0.5,0.1C26.8,8,26.8,8.2,27,8.1C27.3,8,27.3,8,27.4,7.9C27.5,7.8,27.6,7.7,27.4,7.7"/>
	<path style="clip-path:url(#SVGID_00000181805549867366387620000010700275131383382660_);fill:#ED8200;" d="M28.4,7.7
		c-0.4,0-0.5,0.1-0.3,0.2C28.2,8,28.3,8.2,28.4,8C28.4,7.8,28.5,7.7,28.4,7.7"/>
	<path style="clip-path:url(#SVGID_00000181805549867366387620000010700275131383382660_);fill:#ED8200;" d="M28.5,10
		c-0.1,0-0.1,0.1-0.2,0.2c0,0.1,0,0.1-0.1,0.2c-0.1,0.1,0,0.1,0.1,0.2c0.1,0.1,0.3,0.1,0.3-0.1c0-0.2-0.1-0.2,0.1-0.3
		C28.7,10.1,28.6,10,28.5,10"/>
	<path style="clip-path:url(#SVGID_00000181805549867366387620000010700275131383382660_);fill:#ED8200;" d="M36.2,13.3
		c-0.6,0-1.2-0.3-0.9,0c0.4,0.3,0.5,0.4,0.8,0.4C36.3,13.6,36.2,13.3,36.2,13.3"/>
	<path style="clip-path:url(#SVGID_00000181805549867366387620000010700275131383382660_);fill:#ED8200;" d="M37.2,14.2
		c-0.2,0,0,0-0.2,0.3c-0.1,0.2-0.3,0.4-0.3,0.5c0,0,0.1,0,0.1,0c0.1,0,0.1-0.1,0.2-0.2C37.1,14.7,37.1,14.6,37.2,14.2"/>
	<path style="clip-path:url(#SVGID_00000181805549867366387620000010700275131383382660_);fill:#ED8200;" d="M37.5,14.8
		c0.1,0.1,0.2,0.1,0.1,0.2c-0.1,0.1,0,0-0.1,0.2c-0.1,0.1-0.1,0.3-0.2,0.2c-0.1-0.2,0-0.4,0.1-0.4C37.4,14.8,37.5,14.8,37.5,14.8"/>
	<path style="clip-path:url(#SVGID_00000181805549867366387620000010700275131383382660_);fill:#ED8200;" d="M37.8,12.1
		c-0.1,0.1-0.2,0.1-0.2,0.3c0,0.1-0.1,0.3-0.1,0.3l-0.1,0.2c0,0,0.1,0.1,0,0.2c0,0.1,0,0.3,0,0.3s-0.1,0-0.2,0.1
		c0,0.1-0.3-0.1-0.1,0.1c0.2,0.2,0.2,0.2,0.1,0.3c0,0.1,0,0.3,0.2,0.2c0.1,0-0.1-0.1,0.4-0.1c0.5,0,0.6-0.2,0.6-0.1
		c0,0.1,0.1,0.1,0.1,0c0.1-0.1,0.3-0.2,0.2,0c-0.1,0.2-0.4,0.4-0.2,0.4c0.2,0,0.5-0.1,0.4-0.3c-0.1-0.2,0-0.4,0.1-0.2
		c0.1,0.2,0,0.4,0.2,0.4c0.2,0,0.2,0,0.3,0.1c0.1,0.1,0.3,0.1,0.2-0.2c-0.1-0.3,0-0.6-0.2-0.4c-0.1,0.1-0.3,0.2-0.4,0
		c-0.1-0.2-0.1-0.2-0.2-0.4c-0.1-0.1,0.1-0.3-0.2-0.4c-0.3,0-0.3,0.2-0.5,0.1c-0.2-0.1-0.2-0.3-0.3-0.2c-0.1,0.1-0.2,0.3-0.3,0.2
		s-0.2-0.1-0.1-0.3C37.8,12.6,37.9,12,37.8,12.1"/>
	<path style="clip-path:url(#SVGID_00000181805549867366387620000010700275131383382660_);fill:#ED8200;" d="M19.1,4.1
		c-0.3-0.2-0.9-0.1-0.3-0.4c0.6-0.3,0.6-0.2,0.8-0.4C19.8,3.2,20,3.2,20,3.2s0.6,0,0.7,0.1c0.1,0.1,0.4,0.2,0.1,0.2
		c-0.3,0-0.6,0.2-0.6,0.2L20,3.8l-0.4,0.3L19.1,4.1z"/>
	<path style="clip-path:url(#SVGID_00000181805549867366387620000010700275131383382660_);fill:#ED8200;" d="M21.1,3.9
		c0-0.1,0-0.2-0.2-0.1c-0.2,0.1-0.4,0-0.5,0.1c-0.2,0,0,0-0.2,0.1C20,4,19.8,4.1,19.8,4.1l0.3,0.1c0,0,0.3,0.1,0.1,0.1
		s-0.9,0-0.6,0.1c0.3,0.1,0.6,0,0.8,0.1s0.2,0.1-0.1,0.1c-0.3,0-0.8-0.2-0.5,0c0.3,0.2,0.5,0.1,0.4,0.2c-0.1,0.2-0.1,0.2,0.2,0.2
		c0.4,0,0.2,0.1,0.6,0c0.3,0,0.6-0.2,0.6-0.2s0.2-0.2,0.4-0.1c0.3,0.2,0.6,0.5,0.8,0.5c0.2,0,0.2-0.1,0.1-0.2
		C22.7,5,22.8,5,22.9,4.9c0.2,0,0.4-0.1,0.1-0.2c-0.2-0.1-0.2-0.3-0.2-0.4c0-0.2-0.1-0.3-0.1-0.4c-0.1-0.1,0.2-0.3-0.1,0
		c-0.3,0.3-0.4,0.6-0.4,0.4c-0.1-0.1,0-0.4,0-0.4s0-0.2-0.1-0.2c-0.2,0-0.1,0-0.3,0.1C21.6,4,21.5,4.1,21.5,4c0-0.1,0.1-0.2,0-0.2
		c-0.2,0-0.2,0-0.3,0.1C21.2,3.9,21.1,4,21.1,3.9"/>
	<path style="clip-path:url(#SVGID_00000181805549867366387620000010700275131383382660_);fill:#ED8200;" d="M24,4
		c0.2,0.1,0.3,0.3,0.3,0.3s0.3,0,0.1,0.2c-0.2,0.2-0.2,0.2-0.4,0.3c-0.1,0.1-0.1,0.3-0.2,0.1c-0.1-0.2-0.1-0.2-0.2-0.3
		c-0.1-0.1-0.3-0.2,0-0.2c0.2,0,0.3,0,0.3-0.2C23.9,4,24,4,24,4"/>
	<path style="clip-path:url(#SVGID_00000181805549867366387620000010700275131383382660_);fill:#ED8200;" d="M24.8,4.6
		c-0.2,0.1-0.5,0.1-0.5,0.3s0.1,0.4,0.1,0.4s0.2,0,0.3-0.1c0.1,0,0.2-0.1,0.3-0.1c0.2,0,0.3,0,0.2-0.2C25.1,4.7,24.8,4.6,24.8,4.6"
		/>
	<path style="clip-path:url(#SVGID_00000181805549867366387620000010700275131383382660_);fill:#ED8200;" d="M24.7,4
		c-0.1,0.1-0.1,0.1-0.1,0.2c0,0.1-0.1,0.3,0,0.2c0.1,0,0.1-0.1,0.2-0.1c0.1,0-0.2,0.1,0.1,0c0.3-0.1,0.4-0.2,0.4-0.3
		c0.1-0.1,0.3-0.2,0-0.1C25.1,4,24.7,4,24.7,4"/>
	<path style="clip-path:url(#SVGID_00000181805549867366387620000010700275131383382660_);fill:#ED8200;" d="M26.5,3.9
		c-0.1-0.1-0.1,0-0.2,0.1c-0.1,0.1-0.1-0.1-0.3,0.1c-0.2,0.2-0.2,0-0.2,0.2c0.1,0.2,0.1,0.3,0.1,0.3s0.2,0,0.2,0.2
		c0,0.1,0.1,0.2,0.2,0.2c0.1-0.1,0.2-0.1,0.4-0.1c0.2,0,0.4,0,0.5,0c0.1,0,0.4,0,0.4,0s0.1,0.2,0.3,0.1s0.1-0.3,0.3-0.2
		C28.3,4.9,28.5,5,28.5,5l0.3,0.2L29,5.6h0.4c0,0,0.1,0.1,0.2,0.2c0,0.1,0.2-0.4,0.4-0.2C30.1,5.9,30,6.1,30,6.1s-0.2,0-0.2,0.2
		c0,0.1,0.1,0.1-0.1,0.2c-0.2,0.1-0.2,0.1-0.3,0.1c-0.2,0,0.1,0.1-0.3,0c-0.4-0.1-0.3-0.2-0.5-0.1c-0.1,0.1-0.2,0.1-0.2,0.3
		c0,0.2,0.3,0.3,0.3,0.3s0.6,0.1,0.7-0.1c0.1-0.2,0.3,0,0.5,0c0.2,0,0.6,0.2,0.7,0.3c0.1,0.1-0.1,0.1,0.4,0.2
		c0.6,0.1,0.6,0.1,0.8,0.1c0.2,0.1,0.5,0.1,0.4,0.1c-0.1-0.2-0.3-0.3-0.5-0.4c-0.2-0.1-0.5-0.3-0.3-0.2c0.2,0,0.5,0.2,0.5,0.2
		s0.5,0.2,0.5,0.2c0.1,0.1,0.5,0.3,0.2,0c-0.2-0.3-0.2-0.4-0.2-0.4l-0.4-0.5c0,0-0.1-0.1-0.3-0.1c-0.2,0-0.4-0.2-0.4-0.2
		s0-0.2-0.2-0.2C31,6,31.3,5.9,31.4,6c0.1,0.1,0.1,0.2,0.3,0.3c0.2,0.1,0.1-0.1,0.3,0.1c0.3,0.2,0.4,0.1,0.4,0.1l0-0.3l-0.1-0.3
		c0,0-0.3,0-0.5,0c-0.2,0-0.3-0.2-0.3-0.2l-0.3-0.1L31,5.5c0,0-0.4-0.1-0.3-0.2C30.7,5.2,30.7,5,30.7,5l-0.2-0.2c0,0-0.3,0-0.4,0
		c-0.1,0-0.3-0.1-0.3-0.1s0-0.1-0.3-0.1c-0.3,0-0.3,0-0.4,0c-0.1,0,0-0.3-0.4-0.3c-0.4,0-0.5-0.2-0.7-0.1c-0.2,0.1-0.3,0.3-0.5,0.1
		c-0.2-0.2-0.1-0.4-0.4-0.4c-0.3,0-0.5,0-0.5,0.2c0.1,0.2,0.2,0.4,0.2,0.4c-0.2,0.1-0.1,0.2-0.3,0.2c-0.1,0-0.2-0.1-0.1-0.2
		c0-0.1,0-0.1,0-0.3L26.5,3.9z"/>
	<path style="clip-path:url(#SVGID_00000181805549867366387620000010700275131383382660_);fill:#ED8200;" d="M27.6,3.7
		c-0.1,0.2-0.2,0.2-0.1,0.3c0.1,0.1,0.3,0.1,0.4,0c0.1-0.1,0.4-0.2,0.2-0.3C27.9,3.7,27.6,3.7,27.6,3.7"/>
	<path style="clip-path:url(#SVGID_00000181805549867366387620000010700275131383382660_);fill:#ED8200;" d="M24.9,3.3
		c0,0.2,0,0.3,0,0.3s0.1,0.1,0.2,0.2c0.1,0.1,0.3,0.1,0.4,0.1c0.1,0,0-0.1,0.2-0.1c0.2-0.1,0.3,0,0.6,0c0.3,0,0.6,0,0.7-0.1
		c0.1,0,0.2-0.2,0.2-0.2s0.1-0.1-0.5-0.1c-0.5,0-0.4,0.1-0.7,0c-0.3,0-0.3-0.3-0.4-0.1c-0.1,0.1,0,0.2-0.2,0.3
		c-0.2,0.1-0.2,0.2-0.3,0c-0.1-0.2-0.1-0.2-0.1-0.3C25.1,3.2,24.9,3.3,24.9,3.3"/>
	<path style="clip-path:url(#SVGID_00000181805549867366387620000010700275131383382660_);fill:#ED8200;" d="M28.3,2.3
		c-0.5,0-0.8,0-0.8,0l-0.7,0c0,0-0.2-0.1-0.2,0c-0.1,0.1-0.2,0.1-0.2,0.1s-0.3-0.4-0.3-0.2c0,0.2,0,0.2,0,0.2s0.2,0.2,0.2,0.3
		c0,0.1-0.1,0.2-0.1,0.2h-0.2V2.9l0.3,0.4h0.2l-0.3,0l-0.5-0.2c0,0-0.1,0.2,0.2,0.2c0.3,0,0.2,0.1,0.6-0.1c0.4-0.1,0.5-0.2,0.7-0.2
		c0.2,0-0.2,0.1,0.4,0C28.4,3,28.5,3,28.5,2.8c0-0.2,0-0.2,0-0.3C28.4,2.4,28.5,2.3,28.3,2.3"/>
	<path style="clip-path:url(#SVGID_00000181805549867366387620000010700275131383382660_);fill:#ED8200;" d="M24.6,2.9
		c0,0,0.1,0,0.1,0c0,0,0.1,0,0.1,0.1c0,0.1-0.1,0.1-0.2,0.2c-0.1,0-0.1,0-0.2-0.1C24.4,3,24.5,2.9,24.6,2.9"/>
	<path style="clip-path:url(#SVGID_00000181805549867366387620000010700275131383382660_);fill:#ED8200;" d="M24.1,3.3
		c0.1,0,0.1,0.1,0.1,0.2c0,0.1-0.1,0.2-0.1,0.2c0,0-0.1,0.1-0.1,0.1c-0.1,0-0.1-0.1-0.1-0.2c0-0.1,0-0.1,0.1-0.2
		C23.9,3.3,24,3.2,24.1,3.3"/>
	<path style="clip-path:url(#SVGID_00000181805549867366387620000010700275131383382660_);fill:#ED8200;" d="M24.5,3.6
		c0.1-0.1,0.3,0,0.3,0.1c0,0.1-0.1,0.1-0.1,0.1c0,0-0.1,0.1-0.2,0C24.4,3.8,24.4,3.7,24.5,3.6"/>
	<path style="clip-path:url(#SVGID_00000181805549867366387620000010700275131383382660_);fill:#ED8200;" d="M24.4,3.3
		C24.4,3.3,24.4,3.4,24.4,3.3c0.1,0.1,0.3,0.1,0.3,0c0,0,0-0.1,0-0.1C24.5,3.2,24.4,3.3,24.4,3.3"/>
	<path style="clip-path:url(#SVGID_00000181805549867366387620000010700275131383382660_);fill:#ED8200;" d="M23.8,2.6
		c-0.1,0-0.1,0-0.3,0c-0.2,0-0.3,0-0.3,0c0,0.1,0.1,0.2,0.1,0.2c0.1,0.1,0.3,0.1,0.4,0.1c0.1,0,0.2,0,0.2-0.1
		C24,2.7,23.9,2.6,23.8,2.6"/>
	<path style="clip-path:url(#SVGID_00000181805549867366387620000010700275131383382660_);fill:#ED8200;" d="M24.3,2.7
		c-0.1,0-0.1,0.1-0.1,0.2c0,0.1,0.1,0.1,0.1,0.1c0.1,0,0.2,0,0.2-0.1C24.4,2.7,24.4,2.7,24.3,2.7"/>
	<path style="clip-path:url(#SVGID_00000181805549867366387620000010700275131383382660_);fill:#ED8200;" d="M22.7,3.1
		c0,0,0,0.1,0.1,0.2c0,0.1,0.1,0.1,0.1,0.1c0,0.1-0.1,0.1-0.1,0.1c-0.1,0-0.3,0-0.3-0.2c0-0.1,0-0.2,0.1-0.2
		C22.6,3.1,22.7,3,22.7,3.1"/>
	<path style="clip-path:url(#SVGID_00000181805549867366387620000010700275131383382660_);fill:#ED8200;" d="M21.2,3.1
		C21.3,3,21.4,3,21.5,3c0.1,0,0.2,0,0.3,0c0.1,0,0.2,0,0.3,0.1c0,0,0.2,0.1,0.2,0.2c0,0,0,0.1,0,0.2c0,0-0.1,0-0.2,0
		c-0.2-0.1-0.2-0.1-0.4-0.2c0,0-0.1,0-0.2,0c-0.2,0-0.3,0.1-0.3,0C21.2,3.3,21.2,3.2,21.2,3.1"/>
	<path style="clip-path:url(#SVGID_00000181805549867366387620000010700275131383382660_);fill:#ED8200;" d="M20.4,2.8
		c0-0.1,0.2-0.1,0.2-0.1c0.1,0,0.2,0,0.2,0c0.1,0.1,0.1,0.2,0,0.2c0,0-0.1,0-0.2,0c-0.1,0-0.2,0.1-0.2,0.1C20.5,3,20.3,2.9,20.4,2.8
		C20.4,2.9,20.4,2.9,20.4,2.8"/>
	<path style="clip-path:url(#SVGID_00000181805549867366387620000010700275131383382660_);fill:#ED8200;" d="M21.4,2.6
		c0,0-0.1,0-0.1,0.1c0,0.1,0.1,0.1,0.2,0.1c0,0,0.1,0,0.2-0.1c0,0,0.1-0.1,0-0.1C21.7,2.6,21.6,2.6,21.4,2.6"/>
	<path style="clip-path:url(#SVGID_00000181805549867366387620000010700275131383382660_);fill:#ED8200;" d="M22.3,2.7
		c-0.1,0-0.2,0-0.3,0.1c0,0,0.1,0.1,0.1,0.1c0.1,0,0.3,0,0.3-0.1C22.5,2.8,22.4,2.7,22.3,2.7"/>
	<path style="clip-path:url(#SVGID_00000181805549867366387620000010700275131383382660_);fill:#ED8200;" d="M22.9,3.7
		c0.1-0.1,0.3,0,0.3,0.1c0,0.1,0,0.2,0,0.2c-0.1,0.1-0.2,0.1-0.2,0.1C22.9,4,22.8,3.8,22.9,3.7"/>
	<path style="clip-path:url(#SVGID_00000181805549867366387620000010700275131383382660_);fill:#ED8200;" d="M28.7,5.4
		c0.1,0,0.2,0.1,0.2,0.3c0,0.1-0.2,0.2-0.2,0.2c-0.2,0-0.3,0-0.4-0.1C28.3,5.5,28.6,5.3,28.7,5.4"/>
	<path style="clip-path:url(#SVGID_00000181805549867366387620000010700275131383382660_);fill:#ED8200;" d="M36.1,14.6
		c0.1,0,0.1,0.2,0.3,0.3c0.1,0,0.2,0,0.2,0c0,0-0.1,0.2-0.2,0.2c-0.1,0-0.1-0.1-0.3-0.2c-0.2-0.1-0.3,0-0.4-0.1
		C35.7,14.8,35.9,14.6,36.1,14.6"/>
	<path style="clip-path:url(#SVGID_00000181805549867366387620000010700275131383382660_);fill:#ED8200;" d="M30.6,26.7
		c-0.1,0.1-0.1,0.2,0,0.4c0.1,0.1,0.1,0.1,0.2,0.2c0,0.1,0,0.2,0,0.3c0,0.1,0.1,0.2,0.2,0.2c0.1,0,0.2-0.2,0.2-0.3
		c0-0.1,0.1-0.2,0-0.4C31.1,26.8,30.7,26.7,30.6,26.7"/>
	<path style="clip-path:url(#SVGID_00000181805549867366387620000010700275131383382660_);fill:#ED8200;" d="M29.9,27.1
		c0.1-0.1,0.2,0,0.3,0.1c0,0.1,0,0.2-0.1,0.3c-0.1,0-0.2,0-0.2,0C29.8,27.4,29.8,27.2,29.9,27.1"/>
	<path style="clip-path:url(#SVGID_00000181805549867366387620000010700275131383382660_);fill:#ED8200;" d="M30.5,27.9
		c0.1,0,0.1,0.1,0.1,0.2c0.1,0.2,0.1,0.3,0.1,0.4c-0.1,0.1-0.2,0.2-0.3,0.1c-0.1-0.1-0.1-0.2-0.1-0.3C30.3,28.2,30.4,27.9,30.5,27.9
		"/>
	<path style="clip-path:url(#SVGID_00000181805549867366387620000010700275131383382660_);fill:#ED8200;" d="M31.3,27.7
		c-0.1,0-0.2,0.1-0.2,0.2c0,0.1,0.2,0.1,0.2,0.2c0,0.1,0,0.1,0,0.2c0.1,0.1,0.2,0.1,0.2,0c0.1-0.1,0.1-0.2,0.1-0.2
		C31.6,28,31.5,27.7,31.3,27.7"/>
	<path style="clip-path:url(#SVGID_00000181805549867366387620000010700275131383382660_);fill:#ED8200;" d="M31.5,28.8
		c-0.1,0-0.1,0.1-0.1,0.2c0,0.1,0.1,0.2,0.2,0.1c0.1,0,0.1-0.1,0.1-0.2C31.7,28.8,31.6,28.7,31.5,28.8"/>
	<path style="clip-path:url(#SVGID_00000181805549867366387620000010700275131383382660_);fill:#ED8200;" d="M32.1,28.8
		C32,28.9,32,29,32,29.1c0,0,0,0.2,0.2,0.3c0,0,0.1,0.1,0.2,0c0.1-0.1,0.1-0.2,0.1-0.2C32.4,29,32.2,28.8,32.1,28.8"/>
	<path style="clip-path:url(#SVGID_00000181805549867366387620000010700275131383382660_);fill:#ED8200;" d="M33.1,30.1
		c-0.1,0-0.3,0.2-0.3,0.3c0,0.1,0.1,0.1,0.2,0.2c0.1,0,0.3,0,0.4-0.1c0-0.1,0.1-0.2,0-0.3C33.4,30.1,33.2,30,33.1,30.1"/>
	<path style="clip-path:url(#SVGID_00000181805549867366387620000010700275131383382660_);fill:#ED8200;" d="M25.9,30.6
		c0-0.2,0.6-0.5,1.1-0.7c0.7-0.2,1.2-0.2,1.5-0.2c0.5,0,0.9,0.1,1.2,0.2c0.6,0.1,0.8,0.2,1.1,0.3c0.1,0,0.2,0.1,0.3,0.1
		c0.2,0,0.3-0.1,0.4,0c0.1,0.1,0.1,0.1,0.2,0.2c0.2,0.1,0.3,0.1,0.5,0.2c0.2,0,0.3,0,0.4,0c0.1,0.1,0.1,0.2,0,0.3
		c-0.1,0.2-0.4,0.2-0.6,0.2c-1.1,0.1-1.5,0.3-1.6,0.1c-0.1-0.2,0.1-0.4,0-0.5c-0.1-0.1-0.2,0.1-0.4,0c-0.2-0.1-0.1-0.2-0.3-0.3
		c-0.1-0.1-0.2,0-0.6,0c-0.5,0-0.6,0-0.7,0c-0.1-0.1-0.1-0.1-0.3-0.2c-0.2-0.1-0.5-0.2-0.5-0.1c0,0.1,0.1,0.2,0,0.2
		c-0.1,0.1-0.2-0.2-0.5-0.1c-0.1,0-0.1,0-0.4,0.2c-0.3,0.2-0.4,0.2-0.5,0.2C26.2,30.7,26,30.6,25.9,30.6"/>
	<path style="clip-path:url(#SVGID_00000181805549867366387620000010700275131383382660_);fill:#ED8200;" d="M33.1,31
		c0.1-0.1,0.4,0,0.8,0c0.3,0,0.4-0.1,0.8-0.2c0.3,0,0.5,0,0.5,0c0.2,0.1,0.2,0.1,0.4,0.2c0.3,0.1,0.4,0.1,0.5,0.2
		c0,0.1,0,0.2-0.1,0.2c-0.2,0.2-0.5-0.1-0.9,0.1c-0.1,0-0.1,0.1-0.3,0.1c-0.2,0.1-0.3,0-0.4,0.1c-0.1,0.1,0,0.1-0.1,0.3
		c-0.1,0.1-0.1,0.2-0.1,0.2c-0.2,0.1-0.3-0.2-0.7-0.2c-0.2,0-0.2,0.1-0.4,0c-0.2-0.1-0.4-0.3-0.3-0.4c0-0.1,0.3,0.1,0.5,0
		c0.2-0.1,0.3-0.3,0.3-0.4c-0.1-0.1-0.3,0-0.4-0.2C33,31.2,33,31.1,33.1,31"/>
	<path style="clip-path:url(#SVGID_00000181805549867366387620000010700275131383382660_);fill:#ED8200;" d="M30.8,2.1
		c-0.3,0-0.5,0-0.9,0.1c-0.1,0-0.3,0.1-0.4,0.2c-0.1,0.1,0,0.1-0.1,0.2c-0.1,0.1-0.4,0-0.4,0.1c0,0.1,0.2,0.3,0.3,0.4
		c0.2,0.1,0.2,0.2,0.3,0.2c0.3,0.1,0.4-0.1,0.7-0.1c0.1,0,0.2,0,0.4,0.1c0.2,0.1,0.4,0.2,0.7,0.4c0.7,0.5,0.8,0.5,0.9,0.5
		c0.1,0,0.2,0,0.4,0c0,0,0.2,0.1,0.2,0.2c0,0.1-0.2,0.1-0.2,0.2c0,0.1,0.1,0.2,0.2,0.2C33.1,5,33.2,5.1,33.3,5
		c0.1,0,0.1-0.1,0.2-0.1c0,0,0.1,0.1,0.2,0.3c0.1,0.1,0.1,0.2,0.1,0.2c0.1,0.2,0.2,0.3,0.2,0.4c0.1,0.1,0.2,0.1,0.3,0.2
		c0.1,0.1,0.2,0.2,0.2,0.3c0.3,0.3,0.7,0.5,0.7,0.5c0,0-0.2-0.2-0.1-0.2c0,0,0.3,0.2,0.7,0.4c0.6,0.4,0.7,0.4,0.8,0.5
		c0.2,0.1,0.3,0,0.5,0.1c0.2,0.1,0.4,0.2,0.6,0.2c0,0,0.1,0,0.2,0c0.1,0,0.2,0,0.3-0.1c0.1-0.1-0.1-0.3-0.2-0.4
		c-0.3-0.4-0.5-0.4-0.6-0.7c-0.1-0.2-0.1-0.2-0.2-0.3C37.1,6,36.9,6,36.9,5.8c0-0.1,0-0.1,0.1-0.3c0.1-0.3,0.3-0.3,0.3-0.4
		c0-0.1-0.2-0.3-0.7-0.5c-0.2-0.1-0.2-0.1-0.3-0.2c-0.1-0.2,0-0.3-0.1-0.5c0-0.2-0.2-0.4-0.3-0.4c0,0-0.1,0-0.4,0.2
		c-0.1,0.1-0.2,0.1-0.2,0.1c-0.1,0-0.1-0.2-0.1-0.3c0.1-0.1,0.2-0.2,0.2-0.2c0-0.1-0.2-0.1-0.6-0.2C34.4,3.1,34.3,3,34.2,3
		c0-0.1,0.1-0.2,0-0.3c0-0.1-0.1-0.2-0.3-0.2c-0.2-0.1-0.4-0.2-0.5-0.1c-0.1,0-0.1,0.1-0.2,0.1c-0.1,0-0.2-0.2-0.4-0.3
		c-0.1-0.1-0.2-0.1-0.4-0.2c-0.4-0.1-0.8-0.1-0.9,0C31.1,1.9,31.1,2,30.8,2.1"/>
</g>
</svg>
