<?xml version="1.0" encoding="utf-8"?>
<!-- Generator: Adobe Illustrator 25.4.1, SVG Export Plug-In . SVG Version: 6.00 Build 0)  -->
<svg version="1.1" id="Layer_1" xmlns="http://www.w3.org/2000/svg" xmlns:xlink="http://www.w3.org/1999/xlink" x="0px" y="0px"
	 viewBox="0 0 50 50" style="enable-background:new 0 0 50 50;" xml:space="preserve">
<style type="text/css">
	.st0{clip-path:url(#SVGID_00000015333476683724928070000013699636207244337286_);fill:#F0F0F0;}
	.st1{clip-path:url(#SVGID_00000015333476683724928070000013699636207244337286_);fill:#ED8200;}
</style>
<g>
	<defs>
		<rect id="SVGID_1_" width="50" height="50"/>
	</defs>
	<clipPath id="SVGID_00000078018229078209559220000015687003631523763888_">
		<use xlink:href="#SVGID_1_"  style="overflow:visible;"/>
	</clipPath>
	<path style="clip-path:url(#SVGID_00000078018229078209559220000015687003631523763888_);fill:#F0F0F0;" d="M50,25
		C50,11.2,38.8,0,25,0C11.2,0,0,11.2,0,25s11.2,25,25,25C38.8,50,50,38.8,50,25"/>
	<path style="clip-path:url(#SVGID_00000078018229078209559220000015687003631523763888_);fill:#ED8200;" d="M40.2,6.1
		c0.1,0.1,0.2,0.3,0.3,0.4c0.1,0.1,0.1,0.1,0.1,0.1c0,0.1,0,0.1,0,0.2C40.8,6.9,41,7,41.2,7c0.2-0.1,0-0.4,0-0.5
		c0-0.1-0.1-0.2-0.1-0.2c-0.1-0.1-0.2-0.2-0.3-0.2c-0.2-0.2-0.4-0.4-0.7-0.5c0,0-0.1,0-0.1,0C39.8,5.8,40,6,40.2,6.1"/>
	<path style="clip-path:url(#SVGID_00000078018229078209559220000015687003631523763888_);fill:#ED8200;" d="M16.3,17.9
		C16.3,17.9,16.3,18,16.3,17.9c0,0,0-0.1,0.1-0.2C16.4,17.8,16.4,17.9,16.3,17.9 M7.3,21c0.1,0.2,0.1,0.4,0.2,0.5
		C7.4,21.4,7.3,21.2,7.3,21 M6.7,8.5c0.2-0.2,0.4-0.4,0.6-0.7C7.1,8.1,6.9,8.3,6.7,8.5 M20.7,20.1c0.1,0,0.1,0,0.2,0
		C20.7,20.1,20.7,20.1,20.7,20.1C20.6,20.1,20.6,20.1,20.7,20.1 M22.5,4.5c0.4-0.1,0.8-0.1,1.3-0.2c0.3-0.1,0.7-0.1,1-0.2
		C25,4,25.1,3.8,25.2,3.8c0.2-0.1,0.5,0,0.2,0.3c-0.1,0.1-0.1,0.1-0.2,0.2c-0.3,0.1-0.6,0.3-0.9,0.4c-0.2,0.1-0.2,0.1-0.4,0
		c-0.3-0.1-0.7-0.1-1-0.1C22.7,4.5,22.6,4.5,22.5,4.5C22.5,4.5,22.5,4.5,22.5,4.5 M31.3,12.8c0.1,0,0.1-0.1,0.1-0.1
		c-0.2,0.1-0.3,0.3-0.5,0.4C31,13,31.1,12.9,31.3,12.8 M17,18.4C17,18.4,17,18.4,17,18.4c0.2,0,0.4-0.2,0.8-0.5
		c0.3-0.2,0.3-0.5,0.4,0.1c0.1,0.3,0.1,0.6,0.1,0.8c0,0.4,0.2,0.8,0.3,1.2c0.1,0.6-0.1,1.3-0.2,1.9c0,0.2-0.1,0.5,0,0.7
		c0.1,0.1,0.1,0,0.2,0.1c0,0,0.2,0,0.2,0c0.4,0.1,0.6,1.1,0.8,1.4c0.3,0.6,0.5,1.2,0.9,1.6c0.4,0.3,1.2,1.2,1.7,1.1
		c0.3,0,0.2,0,0.1-0.3c-0.1-0.3-0.4-0.5-0.6-0.8c-0.2-0.5,0.1-0.8,0.3-1.2c0,0,0,0,0-0.1c-0.3-0.5-1.2-0.7-1.7-1
		c-0.1,0-0.4-0.2-0.4-0.3c-0.2-0.2,0-0.2-0.1-0.6c0-0.1,0.1-0.1,0-0.2c-0.1-0.3-0.3-0.4-0.5-0.5c0,0-0.1-0.1-0.1-0.1h0
		c0,0-0.1-0.1-0.1-0.1c-0.1-0.1-0.2,0.3-0.1-0.2c0.1-0.4,0.1-1.3,0.2-1.6c0.1-0.3,0.5-0.6,0.7-0.2c0,0,0,0.2,0,0.3
		c0.1,0.1,0,0.1,0.1,0.1c0.2,0.1,0.5-0.1,0.7,0c0.4,0.2,0.2,0.5,0.4,0.8c0.2,0.4,0.4,0.2,0.8,0.3c0.3,0,0.3-0.2,0.4,0.2
		c0,0.2-0.1,0.5-0.2,0.6c0,0.2-0.1,0.3,0,0.4c0,0,0,0,0.1,0c0.3,0,0.6-0.4,0.9-0.5c0.1-0.1,0.3-0.1,0.4-0.2c0.2-0.1,0.2-0.4,0.4-0.6
		c0.4-0.3,1-0.3,1.2-0.8c0.3-0.5,0.1-1.1-0.1-1.6c-0.2-0.4-0.3-0.7-0.6-1c-0.5-0.5-1.8-1-1.2-1.8c0.4-0.5,1.2-1.2,1.9-0.9
		c0,0,0.1,0,0.1,0c0,0,0,0.1,0.1,0.2c0,0,0.2,0.3,0.2,0.2c0,0,0.1,0.1,0.1,0.1c-0.1,0.1-0.2,0.1-0.3,0.2c-0.1,0-0.2,0-0.3,0
		c0,0-0.1,0.1-0.2,0.1c-0.2,0.1-0.4,0.6-0.4,0.9c-0.1,0.5,0.2,0.5,0.6,0.3c0.7-0.3,1-0.2,1.1-1c0.1-0.9,0-0.7,0.9-0.9
		c0.4-0.1,0.7-0.3,1.1-0.4c0.2-0.1,0.4-0.1,0.6-0.2c0.3-0.1,0.5-0.2,0.8-0.3c0.4-0.2,0.7-0.4,1-0.8c0.4-0.5,0.7-0.7,1.3-1
		c0.2-0.1,0.3-0.1,0.3-0.4c0-0.2-0.1-0.6-0.1-0.8c0-0.1,0-0.2,0-0.3c0-0.1-0.1-0.2-0.2-0.3c-0.2-0.3-0.5-0.6-0.7-0.8
		c-0.1-0.1-0.8-0.4-0.8-0.5C30.5,9,31.7,9.1,32,9c0,0,0-0.1,0-0.1c-0.3-0.3-0.7-0.4-1.1-0.3c-0.1,0-0.1,0-0.2,0
		c-0.1,0-0.1,0.1-0.2,0.1c-0.2,0.2-0.3,0.2-0.2,0.1c0,0,0.1-0.1,0.2-0.2c0,0,0-0.1,0-0.1c-0.1-0.1-0.2-0.1-0.4-0.1
		c-0.1,0-0.2,0-0.3-0.1c0,0,0.1,0,0.2-0.1c0.2-0.2,0.5-0.3,0.8-0.4c0.7-0.1,0.3,0,0.1,0.2c0,0,0,0.1,0,0.1c0.2,0.1,0.6,0,0.8,0
		c0.2,0,1-0.1,0.8,0.2c0,0,0,0.1,0,0.1c0.2,0.3,1.8,0.3,1.1,1.2c0,0,0,0,0,0.1C34,9.9,36.3,10,35,8.9c-0.2-0.1-0.7-0.4-0.8-0.6
		c-0.1-0.2-0.1,0,0.1-0.3c-0.1,0.1,0.3-0.3,0.3-0.2c0.2-0.2,0.3-0.5,0.7-0.4c0.1,0,0.2,0.1,0.2,0.1c0.1,0,0.2,0.1,0.3,0.1
		c0.5,0.1,1.8-0.6,1.8-1.2c0-0.4-0.2-1-0.5-1.2c-0.5-0.3-1.1-0.3-1.5-0.5c-0.4,0-0.3-0.1,0.2-0.1c0.2,0,0.4,0,0.6,0
		c0.3,0,0.5,0,0.8,0c0.7,0,1.4,0.3,2.1,0.4c0.1,0,0.1-0.1,0.1-0.1c-1.4-1-3-2.2-4.7-2.4c-0.8-0.1-1.5-0.2-2.3-0.4
		c-0.3-0.1-0.6-0.2-0.9-0.2c-0.1,0-0.1,0-0.2,0c0,0,0-0.1,0-0.2c-0.3-0.2-0.9-0.2-1.2-0.2c-1.2,0-2.2,0.1-3.3-0.2
		c-0.4-0.1-0.7-0.2-1-0.3c-0.6-0.1-1.2,0-1.8,0c-1.1-0.1-2.1,0.1-3.2,0.2c-0.6,0.1-1.2,0.2-1.8,0.3c-0.6,0.1-1.3,0.1-1.8,0.4
		c-0.3,0.2-0.6,0.4-0.9,0.5c-0.3,0.1-0.4,0-0.6,0c0,0-0.1-0.1-0.1-0.1c-0.5-0.1-1.3,0.5-1.7,0.7c-1,0.5-1.9,1.1-2.8,1.7
		C9.1,6,7.5,7.5,6.1,9.2c0,0,0,0.1,0,0.1c0.3,0.4-0.6,0.6-0.7,0.9c0,0,0,0.1,0,0.1c0,0,0,0,0,0c-0.2,0.1-0.3,0.4-0.4,0.6
		c0,0.1-0.2,0.7-0.2,0.3c0-0.1-0.1-0.1-0.1,0C4.1,12,3,13.2,3.3,14.4c0,0,0,0.1,0.1,0c0.2,0,0.3-0.3,0.5-0.2c0,0,0,0.3,0.1,0.4
		c0.1,0.1,0.5,0.2,0.6,0.2c0.5,0,0.9-0.7,1.1-0.1c0,0.1,0,0.2,0,0.4c0.1,0.2,0.3,0.3,0.2,0.4c0,0,0,0,0,0.1c0,0.3,0.4,1.1,0.7,1
		c0.1,0,0.2-0.2,0.2-0.2c0.1,0,0.1,0,0.1,0.3c0,0.1-0.1,0.2-0.1,0.3c-0.1,0.5-0.2,0.9-0.1,1.4c0.1,1.2,0.5,2.3,0.9,3.4
		c0.1,0.4,0.2,0.9,0.7,0.6c0.1-0.1,0.5-0.2,0.5-0.4v0c0,0.3,0,0.8,0,1.1c0,0.2-0.1,0.6,0.1,0.7c0.1,0.1,0.4,0.1,0.6,0
		c0.2,0,0.4-0.2,0.5-0.4c0.1-0.2,0-0.4-0.1-0.6c-0.1-0.2-0.1-0.5-0.2-0.7c0-0.1,0-0.2-0.1-0.2c0,0-0.1,0-0.1,0c0,0-0.3-0.3-0.5-0.5
		c0,0,0-0.1,0-0.1c0.1-0.3,0-0.8,0.1-1c0-0.1,0-0.1,0.1-0.2c0,0,0.1-0.1,0.1-0.2c0-0.1,0.1-0.2,0.1-0.4c0-0.7,0.3-1,0.9-1.3
		c0.1-0.1,0.2-0.1,0.2-0.1c0,0,0.1,0,0.1-0.1c0,0,0.1-0.1,0.1-0.1c0.3-0.3,0.7-0.8,1.1-1c0.3-0.2,1.1-0.3,1.3-0.6c0-0.1,0-0.2,0-0.3
		c0-0.1-0.1-0.2-0.1-0.2c0.1-0.2,0.6-0.3,0.8-0.3c0.2,0,0.3,0,0.5,0c0.3-0.1,0.6-0.4,0.9-0.3c0.3,0.1,0.4,0.5,0.6,0.8
		c0,0,0.2,0.1,0.2,0.2c0.1,0.2,0,0.4,0.1,0.6c0,0,0,0,0,0c0.8,0.1,0.5,0.8,0.2,1.3c0,0,0,0.1,0,0.1C16.6,18.3,16.8,18.4,17,18.4"/>
	<path style="clip-path:url(#SVGID_00000078018229078209559220000015687003631523763888_);fill:#ED8200;" d="M1.3,20.4
		c-0.1,0-0.1,0-0.1,0.1C1,20.7,1,20.8,1,20.9c0,0,0.1,0,0.1,0v0c-0.3,0.3-0.2,0.6-0.3,1c-0.1,1-0.2,2-0.2,3c0,0.1,0.1,0.1,0.1,0
		c0.2-1,0.3-2,0.5-3C1.2,21.7,1.6,20.7,1.3,20.4C1.3,20.4,1.3,20.4,1.3,20.4"/>
	<path style="clip-path:url(#SVGID_00000078018229078209559220000015687003631523763888_);fill:#ED8200;" d="M3.6,15
		c0-0.3,0.3-0.5,0.2-0.8c0-0.1-0.1-0.1-0.1,0c-0.3,0.3-0.5,0.7-0.7,1c-0.1,0.1-0.1,0.1-0.1,0.1c0,0,0,0,0,0C2.7,15.1,3,14.7,3,14.4
		c0,0,0.1,0,0.1,0v0c0,0-0.1,0-0.1,0c0,0,0,0,0,0c0,0,0,0,0,0c0,0-0.1,0-0.1,0c0,0,0,0,0,0c0,0,0,0,0,0c0,0,0,0,0,0
		C2,16.2,1.4,18.1,1,20c0,0.1,0.1,0.1,0.1,0.1C1.5,19.6,1.6,19,2,18.5c0.1-0.2,0.3-0.3,0.5-0.5c0.3-0.4,0.6-0.9,0.9-1.3
		c0.2-0.2,0.6-0.8,0.5-1.1C3.8,15.3,3.6,15.4,3.6,15"/>
	<path style="clip-path:url(#SVGID_00000078018229078209559220000015687003631523763888_);fill:#ED8200;" d="M38.6,6.4
		c0.1-0.1,0-0.2-0.1-0.4c-0.1-0.2-0.8-1.1-1-0.9c0,0,0,0,0,0c0,0,0,0,0,0c0,0,0,0,0,0c0,0,0,0,0,0c-0.1,0.2,0,0.3,0.1,0.5
		c0,0,0.1,0.1,0.1,0.1c0.1,0.1,0.2,0.3,0.2,0.5c0.1,0.2,0.3,1,0.6,0.9c0,0,0,0,0,0c0-0.1,0-0.2,0-0.3c0,0-0.1-0.2-0.1-0.2
		C38.4,6.5,38.5,6.5,38.6,6.4"/>
	<path style="clip-path:url(#SVGID_00000078018229078209559220000015687003631523763888_);fill:#ED8200;" d="M38.8,7.1
		c-0.2,0.1-0.2,0.3-0.3,0.5c-0.1,0.2-0.2,0.3-0.3,0.5c0,0,0,0.1,0,0.1c0,0,0.1,0,0.1,0c0.2,0,0.3-0.1,0.5-0.1c0.1,0,0.3,0,0.3,0
		c0,0,0,0.1,0.1,0.1c0.1,0.1,0.4-0.1,0.5-0.2c0.1-0.1,0.1-0.1,0.2-0.1c0,0,0.1,0,0.2-0.1c0.2-0.2-0.4-0.3-0.5-0.3
		C39.3,7.5,39.1,7,38.8,7.1"/>
	<path style="clip-path:url(#SVGID_00000078018229078209559220000015687003631523763888_);fill:#ED8200;" d="M36.8,10.3
		c0,0.1-0.1,0.2-0.1,0.2c0-0.1-0.1-0.1-0.2-0.2C36.6,10.3,36.7,10.3,36.8,10.3C36.8,10.3,36.8,10.3,36.8,10.3 M37.7,10.5
		c0.5,0.3,1.1-0.6,1.5-0.3c0.1,0.1,0.1,0.4,0.4,0.3c0.2-0.1,0.1-0.5,0.1-0.6c0-0.2-0.1-0.4-0.2-0.6c-0.1-0.2,0-0.4-0.1-0.6
		c-0.1-0.3-0.4-0.5-0.6-0.5c0,0,0,0,0,0c0,0,0,0,0,0c-0.2,0.1-0.2,0.1-0.2,0.3c0,0.1,0,0.2,0,0.3c0.1,0.1,0,0.2-0.2,0.3
		c-0.1,0-0.1,0-0.2,0.1c-0.1,0.1-0.4,0.2-0.4,0.3c0,0,0,0.1,0,0.1c0,0,0,0,0,0c-0.2,0-0.5,0-0.7,0c-0.1,0-0.4-0.1-0.5-0.1
		c-0.1,0-0.2,0.1-0.3,0.2c0,0,0,0-0.1,0c-0.1,0-0.2,0.1-0.2,0.1c-0.2,0.1-0.3,0.2-0.5,0.3c-0.4,0.2,0.1,0.6,0.2,0.9
		c0.1,0.1,0.2,0.5,0.3,0.5c0.1,0,0.2-0.2,0.2-0.3c0.1-0.2,0.1-0.3,0.2-0.5c0-0.1,0.1-0.1,0.1-0.2c0,0,0,0,0,0
		c0.1,0.1,0.2,0.1,0.2,0.1c0.1,0,0.1-0.1,0.2-0.2c0,0,0.1-0.1,0.1-0.1c0,0,0,0,0,0.1c0.1,0.1,0.2,0.1,0.2,0.1c0.1-0.1,0.1-0.2,0-0.3
		c0,0,0.1,0.1,0.1,0.1C37.7,10.4,37.6,10.5,37.7,10.5"/>
	<path style="clip-path:url(#SVGID_00000078018229078209559220000015687003631523763888_);fill:#ED8200;" d="M32.3,13.4
		C32.3,13.4,32.3,13.4,32.3,13.4c-0.2,0-0.4-0.1-0.5,0c-0.1,0.1-0.1,0.2-0.1,0.2c-0.1,0.2-0.3,0.4-0.4,0.6c-0.1,0.1-0.1,0.2,0,0.4
		c0.1,0.2,0.3,0.3,0.5,0.4c0.1,0.1,0.1,0.1,0.1,0.2c0,0,0.1,0,0.1,0c0.1-0.1,0.1-0.3,0.2-0.4c0.1-0.2,0.2-0.4,0.2-0.6
		c0.1-0.2,0.2-0.3,0.2-0.5C32.6,13.6,32.5,13.5,32.3,13.4"/>
	<path style="clip-path:url(#SVGID_00000078018229078209559220000015687003631523763888_);fill:#ED8200;" d="M33.1,17.2
		C33,17,33,16.9,32.9,16.8c-0.2-0.2-0.4-0.2-0.6-0.1h0c0,0,0,0,0,0c0,0,0,0,0,0c0,0,0,0,0,0c-0.3,0.2-0.4,0.3-0.4,0.6
		c0,0.2,0.1,0.4,0,0.6c0,0.1-0.1,0.2-0.1,0.4c0,0.2,0.1,0.5,0.2,0.7c0.1,0,0.2,0,0.2,0c0,0,0.1,0.2,0.1,0.3c-0.1,0-0.2,0-0.2,0
		c0,0,0,0,0,0c0,0,0,0,0,0c-0.3,0.1,0.2,0.7,0.3,0.8c0,0.1,0.1,0.3,0.2,0.3c0.1,0,0.2-0.2,0.3-0.2c0.1-0.1,0.2-0.1,0.1-0.3
		c0,0-0.1-0.1-0.1-0.1c-0.1-0.1-0.1-0.2-0.2-0.3c0,0,0,0,0-0.1c0,0,0.1,0,0.1,0c0.2-0.1,0-0.6,0-0.8c0,0-0.1-0.1-0.1-0.1
		c0,0,0,0,0,0c0.1-0.1,0.2-0.2,0.2-0.3C33,18.1,33,18,33.1,18c0.1-0.1,0.2-0.1,0.3-0.2c0.1,0,0.1,0,0.1-0.1c0,0,0-0.1,0-0.1
		C33.4,17.4,33.2,17.3,33.1,17.2"/>
	<path style="clip-path:url(#SVGID_00000078018229078209559220000015687003631523763888_);fill:#ED8200;" d="M34,19
		c-0.1-0.1-0.2-0.2-0.4-0.2c-0.2,0-0.6,0.1-0.7,0.2c-0.1,0.2,0.2,0.4,0.3,0.5c0.1,0.1,0.1,0,0.2,0c0,0,0,0,0-0.1
		c0.1,0,0.1,0,0.2,0.1c0.1,0,0.1,0.1,0.2,0.1c0.1,0.1,0.2,0.2,0.3,0.3c0.1,0,0.2,0,0.2-0.1c0-0.1-0.1-0.2-0.1-0.3
		c-0.1-0.3,0.2-0.1,0.2-0.3C34.6,19.2,34.1,19.1,34,19"/>
	<path style="clip-path:url(#SVGID_00000078018229078209559220000015687003631523763888_);fill:#ED8200;" d="M33.5,20.4
		c-0.1-0.1-0.1-0.2-0.2-0.3c-0.1-0.1-0.1,0.1-0.1,0.2c0,0.2-0.1,0.4-0.1,0.6c0,0.1,0,0.2,0.1,0.2c0.1,0,0.1,0,0.2,0
		c0.1,0,0.1,0,0.2,0c0,0,0,0,0.1,0.1c0.1,0.1,0.2-0.1,0.2-0.2C33.9,20.8,33.8,20.6,33.5,20.4C33.5,20.4,33.5,20.4,33.5,20.4"/>
	<path style="clip-path:url(#SVGID_00000078018229078209559220000015687003631523763888_);fill:#ED8200;" d="M34.9,19.9
		C34.9,19.9,34.9,19.9,34.9,19.9C34.9,19.9,34.9,19.9,34.9,19.9c-0.2,0-0.7,0-0.5,0.3c0.1,0.1,0.2,0.2,0.2,0.2
		c0,0.1-0.1,0.1-0.1,0.2c0,0,0,0,0,0.1c0,0,0,0,0,0c0,0,0,0,0,0.1c0,0.1,0.1,0.1,0.1,0.2c0.1,0.1,0.1,0.2,0.1,0.3
		c0,0.1,0.2,0.2,0.2,0.2c0,0,0.1,0,0.1-0.1c0-0.1,0-0.2,0-0.3c0,0-0.1-0.1-0.1-0.1c0-0.1,0-0.1,0.1-0.1c0.1,0,0.2,0.1,0.2-0.1
		c0-0.2,0-0.4-0.1-0.6C35.1,20.1,35,20,34.9,19.9"/>
	<path style="clip-path:url(#SVGID_00000078018229078209559220000015687003631523763888_);fill:#ED8200;" d="M34.3,20.2
		c-0.1-0.1-0.5-0.3-0.6-0.2c0,0,0,0,0,0c0,0,0,0,0,0c0,0.1-0.1,0.1-0.1,0.2c0,0.1,0.2,0.2,0.3,0.2c0.1,0,0.1,0.1,0.2,0.1
		c0.1,0,0.2,0.1,0.3,0.1c0.1,0,0.1-0.1,0.2-0.1C34.5,20.3,34.3,20.2,34.3,20.2"/>
	<path style="clip-path:url(#SVGID_00000078018229078209559220000015687003631523763888_);fill:#ED8200;" d="M34.4,20.8
		c-0.1-0.1-0.2-0.2-0.3-0.1c0,0,0,0,0,0c-0.1,0.1-0.2,0.2-0.2,0.4c-0.1,0.1-0.2,0.2-0.2,0.4c0,0.2,0,0.2,0.1,0.4
		c0.1,0.1,0.2,0.1,0.3,0.1c0,0,0-0.1,0.1-0.1c0,0,0-0.1,0-0.1c0-0.1,0.1-0.1,0.1-0.2c0,0,0,0,0,0c0,0,0,0.1,0.1,0.1
		c0.1,0.1,0.3,0.2,0.5,0.2c0,0,0.1,0,0-0.1c0-0.1-0.1-0.3-0.2-0.4c0,0,0,0,0,0c-0.1,0-0.2,0-0.2,0c0,0,0.1-0.1,0.1-0.1
		C34.4,21.1,34.4,20.9,34.4,20.8"/>
	<path style="clip-path:url(#SVGID_00000078018229078209559220000015687003631523763888_);fill:#ED8200;" d="M30.4,22.2
		c0,0.1-0.2,0.4-0.1,0.4c0.1,0.1,0.4-0.3,0.5-0.4c0.2-0.3,0.4-0.5,0.7-0.8c0.2-0.2,0.3-0.4,0.5-0.6c0.1-0.2,0.3-0.5,0.2-0.7
		c0,0,0,0,0,0c0,0,0,0,0,0c-0.1,0-0.1,0-0.2,0c0,0,0,0-0.1,0c0,0.1,0,0.2,0,0.3c0,0.1-0.2,0.2-0.3,0.3c-0.2,0.2-0.3,0.4-0.4,0.6
		C30.9,21.6,30.6,21.8,30.4,22.2"/>
	<path style="clip-path:url(#SVGID_00000078018229078209559220000015687003631523763888_);fill:#ED8200;" d="M35.4,21.5
		C35.4,21.5,35.4,21.5,35.4,21.5c-0.2,0.2-0.3,0.4-0.5,0.5c-0.1,0.1-0.3,0.3-0.4,0.3c0,0,0,0,0,0c0,0-0.1-0.1,0-0.1c0,0,0,0,0-0.1
		c-0.1-0.2-0.6,0-0.8,0.1c-0.3,0.2-0.6,0.8-0.4,1.2c0.2,0.4,0.4-0.1,0.4-0.3c0,0,0-0.3,0.1-0.3c0,0,0,0,0.1,0c0.1,0,0.1,0,0.1,0
		c0.1,0,0.2,0-0.1,0.1c0,0,0,0,0.1,0c0.1,0,0.2,0,0.3-0.1c0,0,0.1-0.1,0.1-0.1c0,0,0.1,0,0.1,0c0.3-0.1,0.1,0.1,0.1,0.3
		c0,0.4,0.5,0.7,0.8,0.9c0.4,0.2,0.3-0.1,0.3-0.4c0-0.2-0.1-0.3-0.1-0.5c0-0.1,0-0.1,0-0.1c0.1,0,0.4,0.3,0.5,0.3
		c0.5,0.1,0.1-0.5,0-0.7C35.7,22.4,35.9,21.2,35.4,21.5"/>
	<path style="clip-path:url(#SVGID_00000078018229078209559220000015687003631523763888_);fill:#ED8200;" d="M28.6,29.5
		c0.1,0,0.1,0,0.1,0.1C28.7,29.6,28.7,29.5,28.6,29.5 M28.4,24.5C28.4,24.5,28.4,24.5,28.4,24.5c0.1,0,0.2,0,0.3,0c0,0,0,0-0.1,0
		C28.5,24.5,28.4,24.5,28.4,24.5 M31.6,26.7C31.6,26.7,31.6,26.7,31.6,26.7C31.6,26.7,31.6,26.7,31.6,26.7c0.1-0.1,0-0.1,0-0.2
		c-0.4-0.2-0.6-0.2-0.6-0.7c0-0.1,0.2-0.1,0.1-0.2c-0.1-0.2-0.4-0.4-0.4-0.6c0-0.4,0.4-0.2,0.7-0.4c0,0,0.1-0.1,0-0.1
		c0,0-0.2-0.1-0.2-0.1c-0.1-0.2-0.3,0-0.1-0.2c0.1-0.1,0.4-0.1,0.5-0.1c0,0,0.1,0,0-0.1c-0.1-0.3-0.7-0.3-0.9-0.6
		c-0.2-0.3-0.3-0.5-0.6-0.7c0,0,0,0,0,0c0,0,0,0,0,0c-0.5-0.2-0.7,0.5-0.8,0.9c-0.1,0.7-0.2,0.7-0.9,0.8c-0.1,0-0.4,0-0.4,0.1
		c0,0,0,0.1,0,0.1c0.1,0,0.1,0.1,0.1,0.1c0,0-0.1,0.1-0.1,0.1c-0.3,0.3-0.9,0.5-1.1,0.6c-0.2,0-0.3,0-0.4,0.1
		c-0.3,0.3,0.1,0.8-0.5,0.7c-0.2,0-0.6-0.5-0.9-0.4c-0.2,0.1-0.1,0.2-0.2,0.3c-0.1,0.3-0.3,0.4-0.3,0.7c0,0,0.2,0.5,0.2,0.5
		c0,0,0.1,0.5,0.1,0.5c0.1,0.2,0.1,0.1,0.3,0.1c0.1,0.1,0.2-0.1,0.3,0.1c0.1,0.1,0,0.5,0,0.7c0,0.2,0,0.2,0.2,0.3
		c0.2,0.2,0.6-0.2,0.8,0c0.1,0.1-0.1,0.3,0.1,0.4c0.2,0.1,0.6-0.2,0.9-0.2c0.4,0,0.8,0.2,1.1,0.5c0,0,0.1,0,0.1,0
		c0.3-0.2,0.4-0.5,0.9-0.4c0,0,0,0,0.1,0c0,0,0-0.1,0-0.1c0-0.1,0-0.2,0-0.3c0-0.2,0.1-0.2,0.2-0.4c0,0,0-0.1,0-0.1c0,0,0-0.1,0-0.1
		c0-0.2,0-0.4,0.1-0.5c0.1-0.1,0.4-0.1,0.5-0.3c0.1-0.2-0.1-0.3-0.1-0.5C30.7,26.8,31.2,26.9,31.6,26.7"/>
	<path style="clip-path:url(#SVGID_00000078018229078209559220000015687003631523763888_);fill:#ED8200;" d="M34.2,26.9
		c0,0,0.1,0,0.1,0c0.2,0,0.3,0,0.4,0c0.2-0.1,1-0.8,0.3-0.6c-0.3,0.1-0.8,0.4-1,0.4c-0.4,0-0.8-0.2-1.2-0.2c-0.7,0-0.6,0.5-0.9,1.1
		c-0.1,0.3-0.2,0.5-0.4,0.7c-0.1,0.1-0.4,0.4-0.4,0.5c0,0.1,0,0.3,0.1,0.4c0.1,0.1,0.2-0.1,0.3,0c0.5,0.3,0,1.4,0.1,1.9
		c0,0.1,0.1,0.1,0.1,0c0.3-0.2,0.5-0.5,0.6-0.8c0.1-0.3-0.2-1-0.1-1.3c0.2-0.3,0.3,0.7,0.4,0.8c0.1,0.2,0.2,0.2,0.2,0.1
		c0,0,0,0,0.1,0c0,0,0.1,0,0.1,0c0.2,0,0-0.3,0.2,0.2c0,0.1,0,0.3,0.1,0.4c0,0,0.1,0.1,0.2,0.1c0.2,0,0.7-0.7,0.7-0.9
		c0-0.3-0.4-0.3-0.6-0.4c-0.1-0.1-0.2,0-0.3-0.2c-0.1-0.1-0.2-0.3-0.2-0.4c0,0-0.2-0.2-0.2-0.2c0-0.3,0.5-0.3,0.7-0.4
		c0.3-0.1,0.6-0.2,0.7-0.5c0,0,0-0.1,0-0.1c-0.1,0-0.3,0-0.4,0.1c0.1,0-0.5,0.2-0.5,0.2c-0.1,0-0.1,0.1-0.2,0.1
		c-0.1-0.3-0.2-0.6-0.3-0.9C33.1,26.7,33.7,26.9,34.2,26.9"/>
	<path style="clip-path:url(#SVGID_00000078018229078209559220000015687003631523763888_);fill:#ED8200;" d="M35,28.4
		c0.2,0,0.5,0,0.7,0c0.1,0,0.1,0,0.2-0.1c0,0,0-0.1,0-0.1c0.1-0.1,0.1-0.1,0.2-0.2c0.1,0,0.1-0.1,0.1-0.2c-0.1-0.1-0.2,0-0.3,0
		c-0.3,0.1-0.5,0.2-0.8,0.2c-0.1,0-0.3,0.1-0.3,0.2C34.8,28.4,34.9,28.4,35,28.4"/>
	<path style="clip-path:url(#SVGID_00000078018229078209559220000015687003631523763888_);fill:#ED8200;" d="M37.5,28.6
		c-0.2,0-0.4,0-0.6,0c-0.1,0-0.2,0-0.3,0c-0.2,0.1-0.1,0.4-0.3,0.6c-0.1,0.1-0.2,0.2-0.1,0.2c0,0,0.1,0,0.2,0c0.2,0,0.5-0.1,0.7-0.1
		c0.2,0,0.4-0.1,0.6-0.1c0.2,0,0.5,0.1,0.6,0C38.7,29.1,37.7,28.6,37.5,28.6"/>
	<path style="clip-path:url(#SVGID_00000078018229078209559220000015687003631523763888_);fill:#ED8200;" d="M35.6,29.7
		c0.1,0,0.1-0.1,0.2-0.1c0.1-0.1,0.3-0.3,0.4-0.4c0.1,0,0.2-0.1,0.2-0.2c0-0.1-0.1-0.1-0.2-0.1c-0.2,0-0.4,0-0.6-0.1
		c0,0-0.1,0-0.1,0c0,0,0,0,0,0c0,0,0,0,0,0c0,0,0,0,0,0c0,0.2,0,0.4,0,0.6C35.5,29.6,35.5,29.7,35.6,29.7"/>
	<path style="clip-path:url(#SVGID_00000078018229078209559220000015687003631523763888_);fill:#ED8200;" d="M36.3,27.6
		C36.3,27.6,36.4,27.6,36.3,27.6c0.2,0,0.3-0.1,0.4-0.2c0,0,0-0.1,0-0.1c-0.5-0.4,0.6-0.6,0.6-1c0-0.3-0.4-0.8-0.6-0.5c0,0,0,0,0,0
		c0,0,0,0,0,0c-0.1,0.2-0.3,0.4-0.3,0.6c0,0.1,0,0.1,0,0.3C36.4,27,36.1,27.3,36.3,27.6"/>
	<path style="clip-path:url(#SVGID_00000078018229078209559220000015687003631523763888_);fill:#ED8200;" d="M37.4,25.9
		c0.1,0.1,0.2-0.2,0.2-0.3c0.1-0.2,0-0.3-0.2-0.4c-0.2-0.1-0.3,0-0.4,0.1c0,0,0,0,0,0c0,0,0,0,0,0c0,0,0,0,0,0c0,0,0,0.1,0,0.1
		c0.1,0.1,0.2,0.2,0.3,0.3C37.3,25.8,37.3,25.9,37.4,25.9"/>
	<path style="clip-path:url(#SVGID_00000078018229078209559220000015687003631523763888_);fill:#ED8200;" d="M38.6,27.4L38.6,27.4
		H38h0c0.2,0,0.4-0.2,0.4-0.2c0,0,0.2,0,0.1,0C38.5,27.2,38.6,27.3,38.6,27.4C38.6,27.3,38.6,27.4,38.6,27.4 M45,30.4
		c0.2-0.4,0.3-0.4,0-0.7c-0.2-0.2-0.4-0.2-0.6-0.3c-0.1-0.1-0.2-0.4-0.3-0.5c-0.2-0.3-0.5-0.3-0.8-0.4c-0.3-0.1-0.6-0.1-0.9-0.2
		c-0.3-0.1-0.5-0.6-0.8-0.6c-0.1,0-0.1,0-0.2,0c0,0-0.1,0-0.1,0c0,0-0.1,0.1-0.1,0.1c0,0,0,0,0,0c0,0-0.1,0.1-0.2,0.2
		c-0.4,0.4-1,1.4-1.2,0.2c-0.1-0.4,0-0.5-0.5-0.8h0c0,0,0,0.1,0,0.1c-0.2,0-0.5,0.1-0.7,0.2c0,0,0.1,0,0.1-0.1
		c0.1-0.1-0.1-0.2-0.3-0.2c0,0,0,0,0,0c-0.2,0-0.3,0-0.5,0c-0.1,0-0.2,0-0.2,0c-0.1,0.1,0.1,0.3,0.2,0.3c0.2,0,0.4,0,0.5,0
		c0,0,0.1,0,0.1,0c-0.1,0-0.2,0.1-0.4,0.1c-0.2,0-0.4-0.1-0.6,0c0,0,0,0,0,0.1c0,0.2,0.4,0.4,0.6,0.4c0,0,0.1,0,0.2,0.1c0,0,0,0,0,0
		c0.1,0.1,0.3,0.2,0.4,0.3c-0.1,0,0.4,0,0.5,0c0,0-0.5,0.1-0.4,0.1c0,0-0.1,0-0.1,0.1c0.1,0.4,0.4,0.8,0.8,0.7c0,0,0.1,0,0-0.1
		c-0.1-0.3,0.5,0.2,0.5,0.3c0,0,0,0.1,0.1,0.2c0.1,0,0.1,0.1,0.2,0.1c0.2,0.1,0.6-0.1,0.8,0.1c0,0,0.2,0.5,0.2,0.5
		c0.1,0.5-0.1,0.4-0.5,0.6c-0.2,0.1-0.4,0.1-0.3,0.4c0.1,0.4,0.7,0.1,0.9,0.1c0.5,0,0.6,0.5,1,0.5c0.1,0,0.6-0.3,0.7-0.4
		c0.2-0.2,0.2-0.4,0.5-0.5c0.6-0.3,0.1,0.6,0.4,0.9c0.2,0.2,1.2,0.1,1.5,0c0,0,0,0,0-0.1C45.6,31.1,44.6,31.2,45,30.4"/>
	<path style="clip-path:url(#SVGID_00000078018229078209559220000015687003631523763888_);fill:#ED8200;" d="M38.9,28.4
		C38.9,28.4,38.9,28.4,38.9,28.4C38.9,28.4,38.9,28.4,38.9,28.4"/>
	<path style="clip-path:url(#SVGID_00000078018229078209559220000015687003631523763888_);fill:#ED8200;" d="M46.7,28.1
		C46.7,28.1,46.7,28,46.7,28.1L46.7,28.1C46.7,28,46.7,28.1,46.7,28.1C46.6,28.1,46.6,28.1,46.7,28.1c-0.2,0.1-0.4,0.2-0.5,0.5
		c0,0.1,0,0.2,0,0.3c0,0.1-0.1,0.2-0.1,0.3c-0.1,0.1,0,0.1-0.1,0.2c-0.2,0.1-0.4,0-0.6-0.1c-0.1,0-0.4-0.1-0.5,0c0,0,0,0,0,0.1
		c0,0.1,0.3,0.2,0.3,0.3c0.1,0.1,0.3,0.2,0.5,0.3c0.2,0.1,0.4,0.2,0.6,0.1c0.4-0.2,0.3-0.8,0.5-1.1C46.8,28.6,47,28.1,46.7,28.1"/>
	<path style="clip-path:url(#SVGID_00000078018229078209559220000015687003631523763888_);fill:#ED8200;" d="M43,32.4
		c0-0.1,0-0.2-0.1-0.2C43,32.2,43,32.3,43,32.4 M38.9,42.7C38.9,42.7,38.9,42.7,38.9,42.7C38.9,42.7,38.9,42.7,38.9,42.7
		C38.9,42.7,38.9,42.7,38.9,42.7 M38,33.6c0-0.1,0.1-0.1,0.1-0.2c0,0,0.1,0,0.1,0C38.2,33.5,38.1,33.6,38,33.6 M29,38.5
		c0.1-0.1,0.3-0.1,0.4-0.2C29.3,38.4,29.1,38.4,29,38.5 M43.6,35.5c-0.1-0.4-0.1-0.7,0-1.1c0-0.1,0.3-0.6,0.2-0.7
		c-0.1-0.1,0-0.1-0.1-0.2c-0.2-0.2,0,0.1-0.1,0c-0.1,0.1-0.3,0.1-0.4,0c-0.3,0-0.3-0.1-0.2-0.3c0-0.2,0.1-0.4,0.1-0.7
		c0-0.2,0-0.6-0.3-0.6c0,0,0,0-0.1,0c0,0,0,0,0,0c-0.2,0.1-0.2,0.2-0.3,0.4c-0.1,0.3,0,0.7-0.1,1c-0.1,0.2-0.1,0.4-0.2,0.6
		c-0.1,0.3-0.2,0.7-0.3,1c0,0,0,0.1-0.1,0.1c0,0.1-0.1,0.2-0.1,0.2c0,0.1-0.1,0.1-0.1,0.2c-0.3,0.5-0.2,0-0.3-0.1
		c-0.2-0.1-0.4,0.1-0.6,0c-0.3,0-0.5-0.2-0.8-0.3c-0.3-0.1-0.7,0-0.5-0.4c0.1-0.2,1-1,1.1-1.1c0.1-0.1,0.5-0.1,0.5-0.3
		c0,0,0-0.1,0-0.1c-0.7-0.1-1.5,0.2-2.2,0c-0.2-0.1-0.4-0.4-0.6-0.3c0,0-0.1,0.1,0,0.1c0,0.1,0.1,0.2,0.1,0.3
		c-0.2-0.3-0.6-0.4-0.9-0.3c0,0,0,0,0,0c0,0,0,0,0,0c-0.1,0.1-0.3,0.2-0.4,0.3c-0.1,0.1-0.1,0.1,0,0.2c0.1,0,0.2,0,0.2,0
		c0.1,0,0.3,0,0.4,0.1c0,0,0.1,0,0.1,0c-0.2,0-0.3,0.1-0.4,0.2c-0.8,0.6,0.2,1.1-1.4,0.8c-0.1,0,0-0.2-0.2-0.2
		c-0.4,0.1-0.8,0.5-1.1,0.8c-0.3,0.3-0.4,0.8-0.7,1.1c0,0,0,0,0,0c0,0,0,0-0.1-0.1c-0.1-0.1-0.1-0.1-0.2-0.2c-0.3-0.1-1,0.5-1.1,0.8
		c0,0.1,0.1,0.2,0,0.3c0,0.1,0.1,0.1,0.1,0c0,0-0.1,0.1-0.1,0.2c-0.2,0.2-1,0.3-1.2,0.3c-0.6,0.1-1.2,0.2-1.8,0.5
		c-0.7,0.3-1.4,0.3-1.8,1.2c-0.1,0.2,0,0.4-0.2,0.6c0,0-0.2,0.2-0.2,0.2c-0.1,0.3,0.1,0.6,0.2,0.9c0.1,0.3,0.3,0.7,0.4,1
		c0.1,0.3,0,0.5,0,0.7c0,0-0.1,0.1,0,0.1c0,0.1,0,0.1,0,0.2c0.1,0.2,1,0.4,1.3,0.4c0.2,0,0.4,0,0.5-0.1c0,0,0-0.2-0.1-0.2
		c0.4-0.3,1.3-0.3,1.9-0.4c0.4-0.1,0.7-0.2,1-0.2h0l0,0c0.2-0.1,0.5-0.1,0.7-0.2c0.6-0.2,1.2-0.1,1.7-0.3c0.1,0,0.1-0.1,0.2-0.1
		c0.9-0.4,1.3,0.7,2.1,0.6c0.1,0,0.4-0.2,0.5-0.2c0.2,0,0-0.1,0.2,0c0.1,0.1,0,0.2,0.1,0.2c0.1,0.1,0.2,0.2,0.4,0.2c0,0,0,0,0,0
		c0,0,0.1,0,0.1,0c0,0,0,0-0.1-0.1c0,0,0,0,0,0c0,0,0.1,0,0.1,0c0,0,0,0.1,0,0.1c0,0,0,0,0,0c0,0,0.1-0.1,0-0.1
		c0.1,0,0.2-0.1,0.3-0.1c0.8-0.3,2-0.2,2.5-0.9c0.5-0.8,1.1-1.6,1.7-2.3c0.2-0.3,0.4-0.6,0.7-0.8c0.1-0.1,0.3-0.1,0.3-0.3
		c0.2-0.3-0.1-0.8-0.2-1C44.1,36.6,43.7,36.1,43.6,35.5"/>
	<path style="clip-path:url(#SVGID_00000078018229078209559220000015687003631523763888_);fill:#ED8200;" d="M38.9,42.8
		C38.9,42.8,38.9,42.8,38.9,42.8C38.9,42.8,38.9,42.8,38.9,42.8"/>
	<path style="clip-path:url(#SVGID_00000078018229078209559220000015687003631523763888_);fill:#ED8200;" d="M39.6,30.9
		c0.1,0.1,0.2,0.2,0.4,0.2c0.4,0,0.3-0.7,0.3-0.9c0-0.2-0.2-0.6-0.4-0.3c-0.2,0.2-0.4,0.3-0.5,0.5c-0.1,0.1-0.1,0.2,0,0.3
		C39.3,30.7,39.5,30.8,39.6,30.9"/>
	<path style="clip-path:url(#SVGID_00000078018229078209559220000015687003631523763888_);fill:#ED8200;" d="M38.1,31.6
		c0.2-0.2,0.4-0.4,0.5-0.7c0.1-0.2-0.1-0.3-0.3-0.2c0,0,0,0,0,0c0,0,0,0,0,0c-0.1,0.1-0.3,0.2-0.5,0.4c-0.1,0-0.1,0.1-0.2,0.2
		c0,0.1,0,0.1,0,0.2c0,0.1,0,0.2,0,0.2C37.6,32,38,31.7,38.1,31.6"/>
	<path style="clip-path:url(#SVGID_00000078018229078209559220000015687003631523763888_);fill:#ED8200;" d="M31.7,32.5
		c-0.2,0-0.7,0.1-0.5,0.4c0.1,0.1,0.2,0.2,0.3,0.3c0.1,0.1,0.4,0.1,0.5,0.1c0.1,0,0.3,0.1,0.3-0.1c0-0.1,0-0.2,0-0.2
		c0-0.1,0.1-0.1,0.1-0.2C32.6,32.4,31.9,32.5,31.7,32.5"/>
	<path style="clip-path:url(#SVGID_00000078018229078209559220000015687003631523763888_);fill:#ED8200;" d="M30.3,32
		c-0.2,0-0.3,0-0.5,0c-0.2,0-0.3,0-0.4,0C29.7,32,30,32,30.3,32 M34.7,31.8C34.7,31.8,34.7,31.8,34.7,31.8
		C34.7,31.8,34.7,31.8,34.7,31.8 M28.8,32.1c0,0.2,0.1,0.3,0.3,0.3c0.2,0,0.6-0.1,0.8-0.1c0.4,0,0.8-0.1,1.2-0.1
		c0.6,0,1.3-0.1,1.9-0.1c0.5,0,1.1,0,1.6-0.2c-0.1,0.1-0.1,0.2-0.2,0.2c-0.2,0.2-0.5,0.4-0.7,0.6c-0.1,0.1-0.5,0.3-0.6,0.5
		c0,0,0,0.1,0.1,0.1c0.2,0,0.5-0.1,0.7-0.2c0.4-0.2,0.8-0.4,1.2-0.6c0.3-0.1,0.6-0.2,0.8-0.5c0.1-0.2,0.1-0.4-0.2-0.4c0,0,0,0,0,0
		c0,0,0,0,0,0c-0.3,0-0.7,0-0.9,0.1c0,0-0.1,0-0.1,0.1c0,0,0,0,0,0c-0.1-0.1-0.1,0,0.1-0.1c0,0,0,0,0,0c0,0,0,0,0,0c0,0,0,0,0,0
		c0,0,0-0.1,0-0.1c-0.8-0.2-1.9,0.2-2.7,0.2c-0.3,0-0.6,0-0.9,0.1C30.6,32,29.8,31.9,29,32c0,0,0-0.1,0-0.1c-0.1-0.1-0.1,0-0.2-0.1
		c-0.1-0.1-0.6,0-0.6,0c-0.1,0-1,0-0.6-0.1c0.4-0.1,1.1,0,1.3-0.3c0,0,0,0,0,0c-0.2-0.1-0.6,0-0.8,0h0c-0.5,0-0.8,0-1.3-0.2
		c-0.1,0-0.1-0.2-0.2-0.2c-0.2,0-0.2,0.1-0.4,0.1c-0.3,0.1-0.3,0.4-0.7,0.3c-0.1,0-0.2-0.2-0.3-0.3c-0.5-0.3-1.8-0.4-2.3,0.1
		c0,0,0,0.1,0,0.1c0.2,0.2,0.1,0,0.4,0.2c0.2,0.1,0.3,0.2,0.5,0.3c0.1,0.1,0.1,0.1,0.2,0.2c0.5,0.2,1.3,0.1,1.8,0.2
		c0.8,0.1,1.6,0.1,2.4,0.2C28.3,32.2,28.6,32.3,28.8,32.1"/>
	<path style="clip-path:url(#SVGID_00000078018229078209559220000015687003631523763888_);fill:#ED8200;" d="M24.2,28.7
		C24.2,28.7,24.2,28.7,24.2,28.7c0,0.2-0.1,0.5,0.1,0.6c0.1,0,0.3-0.1,0.4-0.1c0.1,0,0.2,0,0.3,0c0.2-0.1-0.1-0.5-0.2-0.6
		C24.7,28.5,24.4,28.6,24.2,28.7C24.2,28.7,24.2,28.7,24.2,28.7"/>
	<path style="clip-path:url(#SVGID_00000078018229078209559220000015687003631523763888_);fill:#ED8200;" d="M23.3,29.9
		c0-0.1,0-0.2-0.1-0.4C23.3,29.6,23.3,29.7,23.3,29.9 M23.2,30.4c0.3-0.3,0.2-0.6,0.1-1c-0.1-0.7-0.6-0.9-1-1.5
		c-0.2-0.3-0.2-0.5-0.3-0.7c0-0.1-0.1-0.2-0.2-0.2c-0.1-0.1-0.2-0.1-0.3-0.2c-0.6-0.3-1.1-0.6-1.7-0.9c-0.5-0.3-0.8-0.9-1.3-1.3
		c-0.2-0.2-0.5-0.3-0.7-0.4c-0.3-0.1-0.7-0.3-1.1-0.5c0,0-0.1,0-0.1,0c0,0,0,0,0,0.1c0,0,0,0,0,0c0,0,0,0,0,0c0,0,0,0,0,0
		c0,0,0,0,0,0c0.1,0.2,0.1,0.4,0.3,0.5c0.4,0.5,0.8,0.9,1.2,1.4c0.3,0.4,0.5,0.8,0.8,1.1c0.4,0.5,0.9,0.9,1.3,1.4
		c0.4,0.5,0.6,1.6,1.3,1.9c0.3,0.1,0.7,0.1,1,0.1C22.8,30.5,23,30.6,23.2,30.4"/>
	<path style="clip-path:url(#SVGID_00000078018229078209559220000015687003631523763888_);fill:#ED8200;" d="M18.5,26.6
		c-0.1-0.1-0.3-0.2-0.4-0.3c0,0,0,0-0.1,0c-0.2,0-0.4,0.2-0.4,0.4c0,0,0,0.1,0.1,0.1c0.1,0.1,0.1,0.2,0.1,0.3c0,0.1,0.1,0.2,0.2,0.2
		c0.1,0,0.2-0.1,0.3-0.2c0.1-0.1,0.3-0.1,0.3-0.2C18.7,26.8,18.6,26.7,18.5,26.6"/>
	<path style="clip-path:url(#SVGID_00000078018229078209559220000015687003631523763888_);fill:#ED8200;" d="M23.6,28.6
		c-0.1-0.1-0.1-0.2-0.2-0.4c-0.1-0.1-0.2-0.1-0.3-0.2c0,0,0,0-0.1,0c0,0,0,0,0,0c0,0,0,0,0,0c-0.3,0.1-0.3,0.4-0.1,0.6
		c0.1,0.1,0.3,0.2,0.4,0.3c0.1,0.1,0.3,0.4,0.5,0.4c0.2,0,0-0.5-0.1-0.6C23.8,28.7,23.7,28.6,23.6,28.6"/>
	<path style="clip-path:url(#SVGID_00000078018229078209559220000015687003631523763888_);fill:#ED8200;" d="M24.7,25.3
		c0.1,0,0.1,0.1,0.2,0.1c0.1,0,0.1-0.1,0.2-0.2c0-0.1,0.1-0.2,0-0.3c-0.1-0.2-0.3-0.2-0.4-0.1c-0.1,0.1-0.3,0.3-0.2,0.4
		C24.5,25.3,24.6,25.2,24.7,25.3"/>
</g>
</svg>
